<svg width="360" height="269" viewBox="0 0 360 269" fill="none" xmlns="http://www.w3.org/2000/svg">
<path d="M359.6 0.900002H1V262.8H359.6V0.900002Z" fill="#CBCBCB"/>
<path d="M59.5 39.5H53.3V74.2H59.5V39.5Z" fill="#989898"/>
<path d="M86.4 39.5H80.2V74.2H86.4V39.5Z" fill="#989898"/>
<path d="M279.3 39.5H273.1V74.2H279.3V39.5Z" fill="#989898"/>
<path d="M306.2 39.5H300V74.2H306.2V39.5Z" fill="#989898"/>
<path d="M330.4 65.3H31.3V74.8H330.4V65.3Z" fill="#808080" stroke="#808080" stroke-width="0.5" stroke-miterlimit="10"/>
<path d="M359.6 223.7H1V238.5H359.6V223.7Z" fill="#F1F1F1"/>
<path d="M359.6 238.5H1V262.7H359.6V238.5Z" fill="#E5E5E5"/>
<path d="M75.1 262.7H53.3V268.6H75.1V262.7Z" fill="#FF1D25" stroke="#808080" stroke-width="0.5" stroke-miterlimit="10"/>
<path d="M201.2 256.1C206.502 256.1 210.8 253.638 210.8 250.6C210.8 247.562 206.502 245.1 201.2 245.1C195.898 245.1 191.6 247.562 191.6 250.6C191.6 253.638 195.898 256.1 201.2 256.1Z" fill="#4D4D4D"/>
<path d="M201.2 246.6C206.2 246.6 209.3 249 209.3 250.6C209.3 252.2 206.1 254.6 201.2 254.6C196.2 254.6 193.1 252.2 193.1 250.6C193.1 249 196.2 246.6 201.2 246.6ZM201.2 243.6C195.1 243.6 190.1 246.7 190.1 250.6C190.1 254.5 195.1 257.6 201.2 257.6C207.3 257.6 212.3 254.5 212.3 250.6C212.3 246.7 207.3 243.6 201.2 243.6Z" fill="#666666"/>
<path d="M110.2 245.6H46.3V255.6H110.2V245.6Z" fill="url(#paint0_linear_102_2)"/>
<path d="M108.2 247.6V253.6H48.3V247.6H108.2ZM112.2 243.6H44.3V257.6H112.2V243.6Z" fill="#808080"/>
<path d="M359.6 0.900002H1V39.5H359.6V0.900002Z" fill="#989898"/>
<path d="M262.2 30.8H85.9C82.7 30.8 80.2 28.2 80.2 25.1V17.4C80.2 14.2 82.8 11.7 85.9 11.7H262.2C265.4 11.7 267.9 14.3 267.9 17.4V25.1C267.9 28.2 265.3 30.8 262.2 30.8Z" fill="#808080" stroke="#808080" stroke-width="0.5" stroke-miterlimit="10"/>
<path d="M1 223.7H359.6" stroke="#989898" stroke-width="1.5" stroke-miterlimit="10"/>
<defs>
<linearGradient id="paint0_linear_102_2" x1="46.2926" y1="250.634" x2="110.195" y2="250.634" gradientUnits="userSpaceOnUse">
<stop stop-color="#FBE8F2"/>
<stop offset="1" stop-color="#27AAE2"/>
</linearGradient>
</defs>
</svg>
