<svg width="359" height="185" viewBox="0 0 359 185" fill="none" xmlns="http://www.w3.org/2000/svg">
<g clip-path="url(#clip0_102_45)">
<path d="M0 0.5V184.7H358.6V0.5H0ZM313.2 146.7C313.2 157.5 304.4 166.3 293.6 166.3H52.4C41.6 166.3 32.8 157.5 32.8 146.7V36.3C32.8 25.5 41.6 16.7 52.4 16.7H293.7C304.5 16.7 313.3 25.5 313.3 36.3V146.7H313.2Z" fill="#F1F1F1"/>
<path opacity="0.21" d="M293.7 166.3H52.4C41.6 166.3 32.8 157.5 32.8 146.7V36.3C32.8 25.5 41.6 16.7 52.4 16.7H293.7C304.5 16.7 313.3 25.5 313.3 36.3V146.7C313.2 157.5 304.5 166.3 293.7 166.3Z" fill="#8ACDCC"/>
<path d="M137.3 175.8H209.7" stroke="#666666" stroke-width="6" stroke-miterlimit="10" stroke-linecap="round" stroke-linejoin="round"/>
</g>
<defs>
<clipPath id="clip0_102_45">
<rect width="359" height="185" fill="white"/>
</clipPath>
</defs>
</svg>
