<svg width="104" height="105" viewBox="0 0 104 105" fill="none" xmlns="http://www.w3.org/2000/svg">
<g clip-path="url(#clip0_103_92)">
<path d="M104 0.899994H0.300003V104.6H104V0.899994Z" fill="#7ABB4E"/>
<path d="M10.5 47.6V42.2H5.40001V6H40.4" stroke="#7ABB4E" stroke-miterlimit="10"/>
<path d="M47 16.8V47.6" stroke="#7ABB4E" stroke-miterlimit="10"/>
<path d="M40.4 6V17.1L47 16.8" stroke="#7ABB4E" stroke-miterlimit="10"/>
<path d="M12 9.39999H8.20001V13.2H12V9.39999Z" stroke="#E5E5E5" stroke-width="0.5" stroke-miterlimit="10"/>
<path d="M17.4 9.39999H13.6V13.2H17.4V9.39999Z" stroke="#E5E5E5" stroke-width="0.5" stroke-miterlimit="10"/>
<path d="M18.5 20.9H14.7V24.7H18.5V20.9Z" stroke="#E5E5E5" stroke-width="0.5" stroke-miterlimit="10"/>
<path d="M12.4 31.1H8.60001V34.9H12.4V31.1Z" stroke="#E5E5E5" stroke-width="0.5" stroke-miterlimit="10"/>
<path d="M44.8 20.9H37.5V28.2H44.8V20.9Z" stroke="#E5E5E5" stroke-width="0.5" stroke-miterlimit="10"/>
<path d="M35.5 31.5H32.5V34.5H35.5V31.5Z" stroke="#E5E5E5" stroke-width="0.5" stroke-miterlimit="10"/>
<path d="M22.9 9.39999H21V11.3H22.9V9.39999Z" stroke="#E5E5E5" stroke-width="0.5" stroke-miterlimit="10"/>
<path d="M25.8 9.39999H23.9V11.3H25.8V9.39999Z" fill="#E5E5E5"/>
<path d="M28.2 9.39999H26.3V11.3H28.2V9.39999Z" fill="#E5E5E5"/>
<path d="M10.1 18.7C11.1494 18.7 12 17.8493 12 16.8C12 15.7507 11.1494 14.9 10.1 14.9C9.05067 14.9 8.20001 15.7507 8.20001 16.8C8.20001 17.8493 9.05067 18.7 10.1 18.7Z" fill="#E5E5E5"/>
<path d="M15.4 34.1C16.0075 34.1 16.5 33.6075 16.5 33C16.5 32.3925 16.0075 31.9 15.4 31.9C14.7925 31.9 14.3 32.3925 14.3 33C14.3 33.6075 14.7925 34.1 15.4 34.1Z" fill="#E5E5E5"/>
<path d="M18 34.1C18.6075 34.1 19.1 33.6075 19.1 33C19.1 32.3925 18.6075 31.9 18 31.9C17.3925 31.9 16.9 32.3925 16.9 33C16.9 33.6075 17.3925 34.1 18 34.1Z" fill="#E5E5E5"/>
<path d="M20.6 34.1C21.2075 34.1 21.7 33.6075 21.7 33C21.7 32.3925 21.2075 31.9 20.6 31.9C19.9925 31.9 19.5 32.3925 19.5 33C19.5 33.6075 19.9925 34.1 20.6 34.1Z" fill="#E5E5E5"/>
<path d="M23.2 34.1C23.8075 34.1 24.3 33.6075 24.3 33C24.3 32.3925 23.8075 31.9 23.2 31.9C22.5925 31.9 22.1 32.3925 22.1 33C22.1 33.6075 22.5925 34.1 23.2 34.1Z" fill="#E5E5E5"/>
<path d="M25.8 34.1C26.4075 34.1 26.9 33.6075 26.9 33C26.9 32.3925 26.4075 31.9 25.8 31.9C25.1925 31.9 24.7 32.3925 24.7 33C24.7 33.6075 25.1925 34.1 25.8 34.1Z" fill="#E5E5E5"/>
<path d="M28.3 34.1C28.9075 34.1 29.4 33.6075 29.4 33C29.4 32.3925 28.9075 31.9 28.3 31.9C27.6925 31.9 27.2 32.3925 27.2 33C27.2 33.6075 27.6925 34.1 28.3 34.1Z" fill="#E5E5E5"/>
<path d="M15.4 17.9C16.0075 17.9 16.5 17.4075 16.5 16.8C16.5 16.1925 16.0075 15.7 15.4 15.7C14.7925 15.7 14.3 16.1925 14.3 16.8C14.3 17.4075 14.7925 17.9 15.4 17.9Z" stroke="#E5E5E5" stroke-miterlimit="10"/>
<path d="M19.2 17.9C19.8075 17.9 20.3 17.4075 20.3 16.8C20.3 16.1925 19.8075 15.7 19.2 15.7C18.5925 15.7 18.1 16.1925 18.1 16.8C18.1 17.4075 18.5925 17.9 19.2 17.9Z" stroke="#E5E5E5" stroke-miterlimit="10"/>
<path d="M22.9 17.9C23.5075 17.9 24 17.4075 24 16.8C24 16.1925 23.5075 15.7 22.9 15.7C22.2925 15.7 21.8 16.1925 21.8 16.8C21.8 17.4075 22.2925 17.9 22.9 17.9Z" stroke="#E5E5E5" stroke-miterlimit="10"/>
<path d="M26.6 17.9C27.2075 17.9 27.7 17.4075 27.7 16.8C27.7 16.1925 27.2075 15.7 26.6 15.7C25.9925 15.7 25.5 16.1925 25.5 16.8C25.5 17.4075 25.9925 17.9 26.6 17.9Z" stroke="#E5E5E5" stroke-miterlimit="10"/>
<path d="M30.3 17.9C30.9075 17.9 31.4 17.4075 31.4 16.8C31.4 16.1925 30.9075 15.7 30.3 15.7C29.6925 15.7 29.2 16.1925 29.2 16.8C29.2 17.4075 29.6925 17.9 30.3 17.9Z" stroke="#E5E5E5" stroke-miterlimit="10"/>
<path d="M34 17.9C34.6075 17.9 35.1 17.4075 35.1 16.8C35.1 16.1925 34.6075 15.7 34 15.7C33.3925 15.7 32.9 16.1925 32.9 16.8C32.9 17.4075 33.3925 17.9 34 17.9Z" stroke="#E5E5E5" stroke-miterlimit="10"/>
<path d="M22.9 41.7C23.5075 41.7 24 41.2075 24 40.6C24 39.9925 23.5075 39.5 22.9 39.5C22.2925 39.5 21.8 39.9925 21.8 40.6C21.8 41.2075 22.2925 41.7 22.9 41.7Z" stroke="#E5E5E5" stroke-miterlimit="10"/>
<path d="M26.6 41.7C27.2075 41.7 27.7 41.2075 27.7 40.6C27.7 39.9925 27.2075 39.5 26.6 39.5C25.9925 39.5 25.5 39.9925 25.5 40.6C25.5 41.2075 25.9925 41.7 26.6 41.7Z" stroke="#E5E5E5" stroke-miterlimit="10"/>
<path d="M30.3 41.7C30.9075 41.7 31.4 41.2075 31.4 40.6C31.4 39.9925 30.9075 39.5 30.3 39.5C29.6925 39.5 29.2 39.9925 29.2 40.6C29.2 41.2075 29.6925 41.7 30.3 41.7Z" stroke="#E5E5E5" stroke-miterlimit="10"/>
<path d="M34 41.7C34.6075 41.7 35.1 41.2075 35.1 40.6C35.1 39.9925 34.6075 39.5 34 39.5C33.3925 39.5 32.9 39.9925 32.9 40.6C32.9 41.2075 33.3925 41.7 34 41.7Z" stroke="#E5E5E5" stroke-miterlimit="10"/>
<path d="M62.3 47.6V42.2H57.2V6H92.2" stroke="#7ABB4E" stroke-miterlimit="10"/>
<path d="M98.8 16.8V47.6" stroke="#7ABB4E" stroke-miterlimit="10"/>
<path d="M92.2 6V17.1L98.8 16.8" stroke="#7ABB4E" stroke-miterlimit="10"/>
<path d="M63.8 9.39999H60V13.2H63.8V9.39999Z" stroke="#E5E5E5" stroke-width="0.5" stroke-miterlimit="10"/>
<path d="M69.2 9.39999H65.4V13.2H69.2V9.39999Z" stroke="#E5E5E5" stroke-width="0.5" stroke-miterlimit="10"/>
<path d="M70.3 20.9H66.5V24.7H70.3V20.9Z" stroke="#E5E5E5" stroke-width="0.5" stroke-miterlimit="10"/>
<path d="M64.2 31.1H60.4V34.9H64.2V31.1Z" stroke="#E5E5E5" stroke-width="0.5" stroke-miterlimit="10"/>
<path d="M96.6 20.9H89.3V28.2H96.6V20.9Z" stroke="#E5E5E5" stroke-width="0.5" stroke-miterlimit="10"/>
<path d="M87.3 31.5H84.3V34.5H87.3V31.5Z" stroke="#E5E5E5" stroke-width="0.5" stroke-miterlimit="10"/>
<path d="M74.7 9.39999H72.8V11.3H74.7V9.39999Z" stroke="#E5E5E5" stroke-width="0.5" stroke-miterlimit="10"/>
<path d="M77.6 9.39999H75.7V11.3H77.6V9.39999Z" fill="#E5E5E5"/>
<path d="M80.1 9.39999H78.2V11.3H80.1V9.39999Z" fill="#E5E5E5"/>
<path d="M61.9 18.7C62.9493 18.7 63.8 17.8493 63.8 16.8C63.8 15.7507 62.9493 14.9 61.9 14.9C60.8507 14.9 60 15.7507 60 16.8C60 17.8493 60.8507 18.7 61.9 18.7Z" fill="#E5E5E5"/>
<path d="M67.3 34.1C67.9075 34.1 68.4 33.6075 68.4 33C68.4 32.3925 67.9075 31.9 67.3 31.9C66.6925 31.9 66.2 32.3925 66.2 33C66.2 33.6075 66.6925 34.1 67.3 34.1Z" fill="#E5E5E5"/>
<path d="M69.9 34.1C70.5075 34.1 71 33.6075 71 33C71 32.3925 70.5075 31.9 69.9 31.9C69.2925 31.9 68.8 32.3925 68.8 33C68.8 33.6075 69.2925 34.1 69.9 34.1Z" fill="#E5E5E5"/>
<path d="M72.4 34.1C73.0075 34.1 73.5 33.6075 73.5 33C73.5 32.3925 73.0075 31.9 72.4 31.9C71.7925 31.9 71.3 32.3925 71.3 33C71.3 33.6075 71.7925 34.1 72.4 34.1Z" fill="#E5E5E5"/>
<path d="M75 34.1C75.6075 34.1 76.1 33.6075 76.1 33C76.1 32.3925 75.6075 31.9 75 31.9C74.3925 31.9 73.9 32.3925 73.9 33C73.9 33.6075 74.3925 34.1 75 34.1Z" fill="#E5E5E5"/>
<path d="M77.6 34.1C78.2075 34.1 78.7 33.6075 78.7 33C78.7 32.3925 78.2075 31.9 77.6 31.9C76.9925 31.9 76.5 32.3925 76.5 33C76.5 33.6075 76.9925 34.1 77.6 34.1Z" fill="#E5E5E5"/>
<path d="M80.2 34.1C80.8075 34.1 81.3 33.6075 81.3 33C81.3 32.3925 80.8075 31.9 80.2 31.9C79.5925 31.9 79.1 32.3925 79.1 33C79.1 33.6075 79.5925 34.1 80.2 34.1Z" fill="#E5E5E5"/>
<path d="M67.3 17.9C67.9075 17.9 68.4 17.4075 68.4 16.8C68.4 16.1925 67.9075 15.7 67.3 15.7C66.6925 15.7 66.2 16.1925 66.2 16.8C66.2 17.4075 66.6925 17.9 67.3 17.9Z" stroke="#E5E5E5" stroke-miterlimit="10"/>
<path d="M71 17.9C71.6075 17.9 72.1 17.4075 72.1 16.8C72.1 16.1925 71.6075 15.7 71 15.7C70.3925 15.7 69.9 16.1925 69.9 16.8C69.9 17.4075 70.3925 17.9 71 17.9Z" stroke="#E5E5E5" stroke-miterlimit="10"/>
<path d="M74.7 17.9C75.3075 17.9 75.8 17.4075 75.8 16.8C75.8 16.1925 75.3075 15.7 74.7 15.7C74.0925 15.7 73.6 16.1925 73.6 16.8C73.6 17.4075 74.0925 17.9 74.7 17.9Z" stroke="#E5E5E5" stroke-miterlimit="10"/>
<path d="M78.4 17.9C79.0075 17.9 79.5 17.4075 79.5 16.8C79.5 16.1925 79.0075 15.7 78.4 15.7C77.7925 15.7 77.3 16.1925 77.3 16.8C77.3 17.4075 77.7925 17.9 78.4 17.9Z" stroke="#E5E5E5" stroke-miterlimit="10"/>
<path d="M82.1 17.9C82.7075 17.9 83.2 17.4075 83.2 16.8C83.2 16.1925 82.7075 15.7 82.1 15.7C81.4925 15.7 81 16.1925 81 16.8C81 17.4075 81.4925 17.9 82.1 17.9Z" stroke="#E5E5E5" stroke-miterlimit="10"/>
<path d="M85.8 17.9C86.4075 17.9 86.9 17.4075 86.9 16.8C86.9 16.1925 86.4075 15.7 85.8 15.7C85.1925 15.7 84.7 16.1925 84.7 16.8C84.7 17.4075 85.1925 17.9 85.8 17.9Z" stroke="#E5E5E5" stroke-miterlimit="10"/>
<path d="M74.7 41.7C75.3075 41.7 75.8 41.2075 75.8 40.6C75.8 39.9925 75.3075 39.5 74.7 39.5C74.0925 39.5 73.6 39.9925 73.6 40.6C73.6 41.2075 74.0925 41.7 74.7 41.7Z" stroke="#E5E5E5" stroke-miterlimit="10"/>
<path d="M78.4 41.7C79.0075 41.7 79.5 41.2075 79.5 40.6C79.5 39.9925 79.0075 39.5 78.4 39.5C77.7925 39.5 77.3 39.9925 77.3 40.6C77.3 41.2075 77.7925 41.7 78.4 41.7Z" stroke="#E5E5E5" stroke-miterlimit="10"/>
<path d="M82.1 41.7C82.7075 41.7 83.2 41.2075 83.2 40.6C83.2 39.9925 82.7075 39.5 82.1 39.5C81.4925 39.5 81 39.9925 81 40.6C81 41.2075 81.4925 41.7 82.1 41.7Z" stroke="#E5E5E5" stroke-miterlimit="10"/>
<path d="M85.8 41.7C86.4075 41.7 86.9 41.2075 86.9 40.6C86.9 39.9925 86.4075 39.5 85.8 39.5C85.1925 39.5 84.7 39.9925 84.7 40.6C84.7 41.2075 85.1925 41.7 85.8 41.7Z" stroke="#E5E5E5" stroke-miterlimit="10"/>
<path d="M10.5 98V92.6H5.40001V56.4H40.4" stroke="#7ABB4E" stroke-miterlimit="10"/>
<path d="M47 67.2V98" stroke="#7ABB4E" stroke-miterlimit="10"/>
<path d="M40.4 56.4V67.6L47 67.2" stroke="#7ABB4E" stroke-miterlimit="10"/>
<path d="M12 59.8H8.20001V63.6H12V59.8Z" stroke="#E5E5E5" stroke-width="0.5" stroke-miterlimit="10"/>
<path d="M17.4 59.8H13.6V63.6H17.4V59.8Z" stroke="#E5E5E5" stroke-width="0.5" stroke-miterlimit="10"/>
<path d="M18.5 71.3H14.7V75.1H18.5V71.3Z" stroke="#E5E5E5" stroke-width="0.5" stroke-miterlimit="10"/>
<path d="M12.4 81.5H8.60001V85.3H12.4V81.5Z" stroke="#E5E5E5" stroke-width="0.5" stroke-miterlimit="10"/>
<path d="M44.8 71.3H37.5V78.6H44.8V71.3Z" stroke="#E5E5E5" stroke-width="0.5" stroke-miterlimit="10"/>
<path d="M35.5 81.9H32.5V84.9H35.5V81.9Z" stroke="#E5E5E5" stroke-width="0.5" stroke-miterlimit="10"/>
<path d="M22.9 59.8H21V61.7H22.9V59.8Z" stroke="#E5E5E5" stroke-width="0.5" stroke-miterlimit="10"/>
<path d="M25.8 59.8H23.9V61.7H25.8V59.8Z" fill="#E5E5E5"/>
<path d="M28.2 59.8H26.3V61.7H28.2V59.8Z" fill="#E5E5E5"/>
<path d="M10.1 69.1C11.1494 69.1 12 68.2493 12 67.2C12 66.1506 11.1494 65.3 10.1 65.3C9.05067 65.3 8.20001 66.1506 8.20001 67.2C8.20001 68.2493 9.05067 69.1 10.1 69.1Z" fill="#E5E5E5"/>
<path d="M15.4 84.5C16.0075 84.5 16.5 84.0075 16.5 83.4C16.5 82.7925 16.0075 82.3 15.4 82.3C14.7925 82.3 14.3 82.7925 14.3 83.4C14.3 84.0075 14.7925 84.5 15.4 84.5Z" fill="#E5E5E5"/>
<path d="M18 84.5C18.6075 84.5 19.1 84.0075 19.1 83.4C19.1 82.7925 18.6075 82.3 18 82.3C17.3925 82.3 16.9 82.7925 16.9 83.4C16.9 84.0075 17.3925 84.5 18 84.5Z" fill="#E5E5E5"/>
<path d="M20.6 84.5C21.2075 84.5 21.7 84.0075 21.7 83.4C21.7 82.7925 21.2075 82.3 20.6 82.3C19.9925 82.3 19.5 82.7925 19.5 83.4C19.5 84.0075 19.9925 84.5 20.6 84.5Z" fill="#E5E5E5"/>
<path d="M23.2 84.5C23.8075 84.5 24.3 84.0075 24.3 83.4C24.3 82.7925 23.8075 82.3 23.2 82.3C22.5925 82.3 22.1 82.7925 22.1 83.4C22.1 84.0075 22.5925 84.5 23.2 84.5Z" fill="#E5E5E5"/>
<path d="M25.8 84.5C26.4075 84.5 26.9 84.0075 26.9 83.4C26.9 82.7925 26.4075 82.3 25.8 82.3C25.1925 82.3 24.7 82.7925 24.7 83.4C24.7 84.0075 25.1925 84.5 25.8 84.5Z" fill="#E5E5E5"/>
<path d="M28.3 84.5C28.9075 84.5 29.4 84.0075 29.4 83.4C29.4 82.7925 28.9075 82.3 28.3 82.3C27.6925 82.3 27.2 82.7925 27.2 83.4C27.2 84.0075 27.6925 84.5 28.3 84.5Z" fill="#E5E5E5"/>
<path d="M15.4 68.3C16.0075 68.3 16.5 67.8075 16.5 67.2C16.5 66.5925 16.0075 66.1 15.4 66.1C14.7925 66.1 14.3 66.5925 14.3 67.2C14.3 67.8075 14.7925 68.3 15.4 68.3Z" stroke="#E5E5E5" stroke-miterlimit="10"/>
<path d="M19.2 68.3C19.8075 68.3 20.3 67.8075 20.3 67.2C20.3 66.5925 19.8075 66.1 19.2 66.1C18.5925 66.1 18.1 66.5925 18.1 67.2C18.1 67.8075 18.5925 68.3 19.2 68.3Z" stroke="#E5E5E5" stroke-miterlimit="10"/>
<path d="M22.9 68.3C23.5075 68.3 24 67.8075 24 67.2C24 66.5925 23.5075 66.1 22.9 66.1C22.2925 66.1 21.8 66.5925 21.8 67.2C21.8 67.8075 22.2925 68.3 22.9 68.3Z" stroke="#E5E5E5" stroke-miterlimit="10"/>
<path d="M26.6 68.3C27.2075 68.3 27.7 67.8075 27.7 67.2C27.7 66.5925 27.2075 66.1 26.6 66.1C25.9925 66.1 25.5 66.5925 25.5 67.2C25.5 67.8075 25.9925 68.3 26.6 68.3Z" stroke="#E5E5E5" stroke-miterlimit="10"/>
<path d="M30.3 68.3C30.9075 68.3 31.4 67.8075 31.4 67.2C31.4 66.5925 30.9075 66.1 30.3 66.1C29.6925 66.1 29.2 66.5925 29.2 67.2C29.2 67.8075 29.6925 68.3 30.3 68.3Z" stroke="#E5E5E5" stroke-miterlimit="10"/>
<path d="M34 68.3C34.6075 68.3 35.1 67.8075 35.1 67.2C35.1 66.5925 34.6075 66.1 34 66.1C33.3925 66.1 32.9 66.5925 32.9 67.2C32.9 67.8075 33.3925 68.3 34 68.3Z" stroke="#E5E5E5" stroke-miterlimit="10"/>
<path d="M22.9 92.1C23.5075 92.1 24 91.6075 24 91C24 90.3925 23.5075 89.9 22.9 89.9C22.2925 89.9 21.8 90.3925 21.8 91C21.8 91.6075 22.2925 92.1 22.9 92.1Z" stroke="#E5E5E5" stroke-miterlimit="10"/>
<path d="M26.6 92.1C27.2075 92.1 27.7 91.6075 27.7 91C27.7 90.3925 27.2075 89.9 26.6 89.9C25.9925 89.9 25.5 90.3925 25.5 91C25.5 91.6075 25.9925 92.1 26.6 92.1Z" stroke="#E5E5E5" stroke-miterlimit="10"/>
<path d="M30.3 92.1C30.9075 92.1 31.4 91.6075 31.4 91C31.4 90.3925 30.9075 89.9 30.3 89.9C29.6925 89.9 29.2 90.3925 29.2 91C29.2 91.6075 29.6925 92.1 30.3 92.1Z" stroke="#E5E5E5" stroke-miterlimit="10"/>
<path d="M34 92.1C34.6075 92.1 35.1 91.6075 35.1 91C35.1 90.3925 34.6075 89.9 34 89.9C33.3925 89.9 32.9 90.3925 32.9 91C32.9 91.6075 33.3925 92.1 34 92.1Z" stroke="#E5E5E5" stroke-miterlimit="10"/>
<path d="M62.3 98V92.6H57.2V56.4H92.2" stroke="#7ABB4E" stroke-miterlimit="10"/>
<path d="M98.8 67.2V98" stroke="#7ABB4E" stroke-miterlimit="10"/>
<path d="M92.2 56.4V67.6L98.8 67.2" stroke="#7ABB4E" stroke-miterlimit="10"/>
<path d="M63.8 59.8H60V63.6H63.8V59.8Z" stroke="#E5E5E5" stroke-width="0.5" stroke-miterlimit="10"/>
<path d="M69.2 59.8H65.4V63.6H69.2V59.8Z" stroke="#E5E5E5" stroke-width="0.5" stroke-miterlimit="10"/>
<path d="M70.3 71.3H66.5V75.1H70.3V71.3Z" stroke="#E5E5E5" stroke-width="0.5" stroke-miterlimit="10"/>
<path d="M64.2 81.5H60.4V85.3H64.2V81.5Z" stroke="#E5E5E5" stroke-width="0.5" stroke-miterlimit="10"/>
<path d="M96.6 71.3H89.3V78.6H96.6V71.3Z" stroke="#E5E5E5" stroke-width="0.5" stroke-miterlimit="10"/>
<path d="M87.3 81.9H84.3V84.9H87.3V81.9Z" stroke="#E5E5E5" stroke-width="0.5" stroke-miterlimit="10"/>
<path d="M74.7 59.8H72.8V61.7H74.7V59.8Z" stroke="#E5E5E5" stroke-width="0.5" stroke-miterlimit="10"/>
<path d="M77.6 59.8H75.7V61.7H77.6V59.8Z" fill="#E5E5E5"/>
<path d="M80.1 59.8H78.2V61.7H80.1V59.8Z" fill="#E5E5E5"/>
<path d="M61.9 69.1C62.9493 69.1 63.8 68.2493 63.8 67.2C63.8 66.1506 62.9493 65.3 61.9 65.3C60.8507 65.3 60 66.1506 60 67.2C60 68.2493 60.8507 69.1 61.9 69.1Z" fill="#E5E5E5"/>
<path d="M67.3 84.5C67.9075 84.5 68.4 84.0075 68.4 83.4C68.4 82.7925 67.9075 82.3 67.3 82.3C66.6925 82.3 66.2 82.7925 66.2 83.4C66.2 84.0075 66.6925 84.5 67.3 84.5Z" fill="#E5E5E5"/>
<path d="M69.9 84.5C70.5075 84.5 71 84.0075 71 83.4C71 82.7925 70.5075 82.3 69.9 82.3C69.2925 82.3 68.8 82.7925 68.8 83.4C68.8 84.0075 69.2925 84.5 69.9 84.5Z" fill="#E5E5E5"/>
<path d="M72.4 84.5C73.0075 84.5 73.5 84.0075 73.5 83.4C73.5 82.7925 73.0075 82.3 72.4 82.3C71.7925 82.3 71.3 82.7925 71.3 83.4C71.3 84.0075 71.7925 84.5 72.4 84.5Z" fill="#E5E5E5"/>
<path d="M75 84.5C75.6075 84.5 76.1 84.0075 76.1 83.4C76.1 82.7925 75.6075 82.3 75 82.3C74.3925 82.3 73.9 82.7925 73.9 83.4C73.9 84.0075 74.3925 84.5 75 84.5Z" fill="#E5E5E5"/>
<path d="M77.6 84.5C78.2075 84.5 78.7 84.0075 78.7 83.4C78.7 82.7925 78.2075 82.3 77.6 82.3C76.9925 82.3 76.5 82.7925 76.5 83.4C76.5 84.0075 76.9925 84.5 77.6 84.5Z" fill="#E5E5E5"/>
<path d="M80.2 84.5C80.8075 84.5 81.3 84.0075 81.3 83.4C81.3 82.7925 80.8075 82.3 80.2 82.3C79.5925 82.3 79.1 82.7925 79.1 83.4C79.1 84.0075 79.5925 84.5 80.2 84.5Z" fill="#E5E5E5"/>
<path d="M67.3 68.3C67.9075 68.3 68.4 67.8075 68.4 67.2C68.4 66.5925 67.9075 66.1 67.3 66.1C66.6925 66.1 66.2 66.5925 66.2 67.2C66.2 67.8075 66.6925 68.3 67.3 68.3Z" stroke="#E5E5E5" stroke-miterlimit="10"/>
<path d="M71 68.3C71.6075 68.3 72.1 67.8075 72.1 67.2C72.1 66.5925 71.6075 66.1 71 66.1C70.3925 66.1 69.9 66.5925 69.9 67.2C69.9 67.8075 70.3925 68.3 71 68.3Z" stroke="#E5E5E5" stroke-miterlimit="10"/>
<path d="M74.7 68.3C75.3075 68.3 75.8 67.8075 75.8 67.2C75.8 66.5925 75.3075 66.1 74.7 66.1C74.0925 66.1 73.6 66.5925 73.6 67.2C73.6 67.8075 74.0925 68.3 74.7 68.3Z" stroke="#E5E5E5" stroke-miterlimit="10"/>
<path d="M78.4 68.3C79.0075 68.3 79.5 67.8075 79.5 67.2C79.5 66.5925 79.0075 66.1 78.4 66.1C77.7925 66.1 77.3 66.5925 77.3 67.2C77.3 67.8075 77.7925 68.3 78.4 68.3Z" stroke="#E5E5E5" stroke-miterlimit="10"/>
<path d="M82.1 68.3C82.7075 68.3 83.2 67.8075 83.2 67.2C83.2 66.5925 82.7075 66.1 82.1 66.1C81.4925 66.1 81 66.5925 81 67.2C81 67.8075 81.4925 68.3 82.1 68.3Z" stroke="#E5E5E5" stroke-miterlimit="10"/>
<path d="M85.8 68.3C86.4075 68.3 86.9 67.8075 86.9 67.2C86.9 66.5925 86.4075 66.1 85.8 66.1C85.1925 66.1 84.7 66.5925 84.7 67.2C84.7 67.8075 85.1925 68.3 85.8 68.3Z" stroke="#E5E5E5" stroke-miterlimit="10"/>
<path d="M74.7 92.1C75.3075 92.1 75.8 91.6075 75.8 91C75.8 90.3925 75.3075 89.9 74.7 89.9C74.0925 89.9 73.6 90.3925 73.6 91C73.6 91.6075 74.0925 92.1 74.7 92.1Z" stroke="#E5E5E5" stroke-miterlimit="10"/>
<path d="M78.4 92.1C79.0075 92.1 79.5 91.6075 79.5 91C79.5 90.3925 79.0075 89.9 78.4 89.9C77.7925 89.9 77.3 90.3925 77.3 91C77.3 91.6075 77.7925 92.1 78.4 92.1Z" stroke="#E5E5E5" stroke-miterlimit="10"/>
<path d="M82.1 92.1C82.7075 92.1 83.2 91.6075 83.2 91C83.2 90.3925 82.7075 89.9 82.1 89.9C81.4925 89.9 81 90.3925 81 91C81 91.6075 81.4925 92.1 82.1 92.1Z" stroke="#E5E5E5" stroke-miterlimit="10"/>
<path d="M85.8 92.1C86.4075 92.1 86.9 91.6075 86.9 91C86.9 90.3925 86.4075 89.9 85.8 89.9C85.1925 89.9 84.7 90.3925 84.7 91C84.7 91.6075 85.1925 92.1 85.8 92.1Z" stroke="#E5E5E5" stroke-miterlimit="10"/>
</g>
<defs>
<clipPath id="clip0_103_92">
<rect width="104" height="105" fill="white"/>
</clipPath>
</defs>
</svg>
