<?xml version="1.0" encoding="utf-8"?>
<!-- Generator: Adobe Illustrator 27.4.0, SVG Export Plug-In . SVG Version: 6.00 Build 0)  -->
<svg version="1.1" id="Livello_1" xmlns="http://www.w3.org/2000/svg" xmlns:xlink="http://www.w3.org/1999/xlink" x="0px" y="0px"
	 viewBox="0 0 562 821.9" style="enable-background:new 0 0 562 821.9;" xml:space="preserve">
<style type="text/css">
	.st0{fill:none;stroke:#0090D2;stroke-width:2;stroke-miterlimit:10;}
	.st1{opacity:0.1;fill:#0090D2;}
</style>
<g id="_x31__PCB_LOADER">
</g>
<g id="_x32__SCREEN_PRINTER">
</g>
<g id="_x33__CONVEYOR_0.5MT">
</g>
<g id="_x34_-5-6_PICK_AND_PLACE_1">
</g>
<g id="_x37__CONVEYOR_1mt">
</g>
<g id="_x38__REFLOW_OVEN">
</g>
<g id="_x39__CONVEYOR_0.5MT">
</g>
<g id="_x31_0_PCB_UNLOADER">
	<g>
		<path class="st0" d="M240.8,805c0,4.8,6.6,8.7,14.7,8.7c8.1,0,14.7-3.9,14.7-8.7v-4.2h-29.4L240.8,805L240.8,805z"/>
		<ellipse class="st0" cx="255.5" cy="800.7" rx="14.7" ry="8.7"/>
		<path class="st0" d="M251.7,798.3c0,1.2,1.7,2.3,3.8,2.3s3.8-1,3.8-2.3v-12.1h-7.6v12.3"/>
		<ellipse class="st0" cx="255.5" cy="786.2" rx="3.8" ry="2.3"/>
	</g>
	<g>
		<path class="st0" d="M504.4,650.2c0,4.8,6.6,8.7,14.7,8.7s14.7-3.9,14.7-8.7V646h-29.4V650.2z"/>
		<ellipse class="st0" cx="519.1" cy="646" rx="14.7" ry="8.7"/>
		<path class="st0" d="M515.3,643.6c0,1.2,1.7,2.3,3.8,2.3s3.8-1,3.8-2.3v-12.1h-7.6v12.3"/>
		<ellipse class="st0" cx="519.1" cy="631.4" rx="3.8" ry="2.3"/>
	</g>
	<g>
		<path class="st0" d="M14.5,676.8c0,4.8,6.6,8.7,14.7,8.7s14.7-3.9,14.7-8.7v-4.2H14.5V676.8z"/>
		<ellipse class="st0" cx="29.2" cy="672.6" rx="14.7" ry="8.7"/>
		<path class="st0" d="M25.3,670.1c0,1.2,1.7,2.3,3.8,2.3s3.8-1,3.8-2.3V658h-7.6v12.3"/>
		<ellipse class="st0" cx="29.2" cy="658" rx="3.8" ry="2.3"/>
	</g>
	<polygon class="st0" points="250.1,316.4 530.6,150.8 530.6,631.4 250.1,796.2 	"/>
	<polygon class="st0" points="17.1,661 250.1,796.2 250.1,316.4 17.1,181.2 	"/>
	<line class="st0" x1="383.6" y1="236.3" x2="383.6" y2="710.8"/>
	<polyline class="st0" points="17.1,650.3 250.1,788.6 530.6,623.4 	"/>
	<line class="st0" x1="383.6" y1="327.8" x2="264.8" y2="396.3"/>
	<line class="st0" x1="264.8" y1="308.6" x2="264.8" y2="781.3"/>
	<polygon class="st0" points="17.1,181.2 299.1,15.9 530.6,150.8 250.1,316.4 	"/>
	<path class="st0" d="M204.3,265c0,4,5.4,7.2,12.1,7.2c6.7,0,12.1-3.2,12.1-7.2v-30.8h-24.3L204.3,265L204.3,265z"/>
	<ellipse class="st0" cx="216.5" cy="234.2" rx="12.1" ry="7.2"/>
	<path class="st0" d="M204.3,232.2c0,4,5.4,7.2,12.1,7.2c6.7,0,12.1-3.2,12.1-7.2v-10.8h-24.3L204.3,232.2L204.3,232.2z"/>
	<ellipse class="st0" cx="216.5" cy="221.4" rx="12.1" ry="7.2"/>
	<path class="st0" d="M204.3,219.3c0,4,5.4,7.2,12.1,7.2c6.7,0,12.1-3.2,12.1-7.2v-10.8h-24.3L204.3,219.3L204.3,219.3z"/>
	<ellipse class="st0" cx="216.5" cy="208.5" rx="12.1" ry="7.2"/>
	<path class="st0" d="M204.3,206.5c0,4,5.4,7.2,12.1,7.2c6.7,0,12.1-3.2,12.1-7.2v-10.8h-24.3L204.3,206.5L204.3,206.5z"/>
	<ellipse class="st0" cx="216.5" cy="195.7" rx="12.1" ry="7.2"/>
	<path class="st0" d="M204.3,193.9c0,4,5.4,7.2,12.1,7.2c6.7,0,12.1-3.2,12.1-7.2v-37.2h-24.3L204.3,193.9L204.3,193.9z"/>
	<ellipse class="st0" cx="216.5" cy="156.7" rx="12.1" ry="7.2"/>
	<g>
		<polygon class="st0" points="519.7,593.6 427.9,647.6 427.9,501.5 519.7,447.5 		"/>
		<ellipse class="st0" cx="431.8" cy="504.7" rx="1.7" ry="2.8"/>
		<ellipse class="st0" cx="515.6" cy="455.5" rx="1.7" ry="2.8"/>
		<ellipse class="st0" cx="431.8" cy="638.8" rx="1.7" ry="2.8"/>
		<ellipse class="st0" cx="515.6" cy="589.5" rx="1.7" ry="2.8"/>
		<line class="st0" x1="437.2" y1="513.7" x2="447.9" y2="507.6"/>
		<line class="st0" x1="450.6" y1="506" x2="461.3" y2="499.9"/>
		<line class="st0" x1="464" y1="498.3" x2="474.6" y2="492.2"/>
		<line class="st0" x1="477.4" y1="490.6" x2="488" y2="484.5"/>
		<line class="st0" x1="490.7" y1="483" x2="501.4" y2="476.9"/>
		<line class="st0" x1="504.1" y1="475.3" x2="514.7" y2="469.2"/>
		<line class="st0" x1="437.2" y1="519.1" x2="447.9" y2="513"/>
		<line class="st0" x1="450.6" y1="511.5" x2="461.3" y2="505.4"/>
		<line class="st0" x1="464" y1="503.8" x2="474.6" y2="497.7"/>
		<line class="st0" x1="477.4" y1="496.1" x2="488" y2="490"/>
		<line class="st0" x1="490.7" y1="488.4" x2="501.4" y2="482.3"/>
		<line class="st0" x1="504.1" y1="480.7" x2="514.7" y2="474.6"/>
		<line class="st0" x1="437.2" y1="524.6" x2="447.9" y2="518.5"/>
		<line class="st0" x1="450.6" y1="516.9" x2="461.3" y2="510.8"/>
		<line class="st0" x1="464" y1="509.2" x2="474.6" y2="503.1"/>
		<line class="st0" x1="477.4" y1="501.6" x2="488" y2="495.5"/>
		<line class="st0" x1="490.7" y1="493.9" x2="501.4" y2="487.8"/>
		<line class="st0" x1="504.1" y1="486.2" x2="514.7" y2="480.1"/>
		<line class="st0" x1="437.2" y1="530.1" x2="447.9" y2="523.9"/>
		<line class="st0" x1="450.6" y1="522.4" x2="461.3" y2="516.3"/>
		<line class="st0" x1="464" y1="514.7" x2="474.6" y2="508.6"/>
		<line class="st0" x1="477.4" y1="507" x2="488" y2="500.9"/>
		<line class="st0" x1="490.7" y1="499.3" x2="501.4" y2="493.2"/>
		<line class="st0" x1="504.1" y1="491.7" x2="514.7" y2="485.5"/>
		<line class="st0" x1="437.2" y1="535.5" x2="447.9" y2="529.4"/>
		<line class="st0" x1="450.6" y1="527.8" x2="461.3" y2="521.7"/>
		<line class="st0" x1="464" y1="520.2" x2="474.6" y2="514"/>
		<line class="st0" x1="477.4" y1="512.5" x2="488" y2="506.4"/>
		<line class="st0" x1="490.7" y1="504.8" x2="501.4" y2="498.7"/>
		<line class="st0" x1="504.1" y1="497.1" x2="514.7" y2="491"/>
		<line class="st0" x1="437.2" y1="541" x2="447.9" y2="534.9"/>
		<line class="st0" x1="450.6" y1="533.3" x2="461.3" y2="527.2"/>
		<line class="st0" x1="464" y1="525.6" x2="474.6" y2="519.5"/>
		<line class="st0" x1="477.4" y1="517.9" x2="488" y2="511.8"/>
		<line class="st0" x1="490.7" y1="510.3" x2="501.4" y2="504.1"/>
		<line class="st0" x1="504.1" y1="502.6" x2="514.7" y2="496.5"/>
		<line class="st0" x1="437.2" y1="546.4" x2="447.9" y2="540.3"/>
		<line class="st0" x1="450.6" y1="538.8" x2="461.3" y2="532.6"/>
		<line class="st0" x1="464" y1="531.1" x2="474.6" y2="525"/>
		<line class="st0" x1="477.4" y1="523.4" x2="488" y2="517.3"/>
		<line class="st0" x1="490.7" y1="515.7" x2="501.4" y2="509.6"/>
		<line class="st0" x1="504.1" y1="508" x2="514.7" y2="501.9"/>
		<line class="st0" x1="437.2" y1="551.9" x2="447.9" y2="545.8"/>
		<line class="st0" x1="450.6" y1="544.2" x2="461.3" y2="538.1"/>
		<line class="st0" x1="464" y1="536.5" x2="474.6" y2="530.4"/>
		<line class="st0" x1="477.4" y1="528.9" x2="488" y2="522.7"/>
		<line class="st0" x1="490.7" y1="521.2" x2="501.4" y2="515.1"/>
		<line class="st0" x1="504.1" y1="513.5" x2="514.7" y2="507.4"/>
		<line class="st0" x1="437.2" y1="557.4" x2="447.9" y2="551.2"/>
		<line class="st0" x1="450.6" y1="549.7" x2="461.3" y2="543.6"/>
		<line class="st0" x1="464" y1="542" x2="474.6" y2="535.9"/>
		<line class="st0" x1="477.4" y1="534.3" x2="488" y2="528.2"/>
		<line class="st0" x1="490.7" y1="526.6" x2="501.4" y2="520.5"/>
		<line class="st0" x1="504.1" y1="519" x2="514.7" y2="512.8"/>
		<line class="st0" x1="437.2" y1="562.8" x2="447.9" y2="556.7"/>
		<line class="st0" x1="450.6" y1="555.1" x2="461.3" y2="549"/>
		<line class="st0" x1="464" y1="547.5" x2="474.6" y2="541.3"/>
		<line class="st0" x1="477.4" y1="539.8" x2="488" y2="533.7"/>
		<line class="st0" x1="490.7" y1="532.1" x2="501.4" y2="526"/>
		<line class="st0" x1="504.1" y1="524.4" x2="514.7" y2="518.3"/>
		<line class="st0" x1="437.2" y1="568.3" x2="447.9" y2="562.2"/>
		<line class="st0" x1="450.6" y1="560.6" x2="461.3" y2="554.5"/>
		<line class="st0" x1="464" y1="552.9" x2="474.6" y2="546.8"/>
		<line class="st0" x1="477.4" y1="545.2" x2="488" y2="539.1"/>
		<line class="st0" x1="490.7" y1="537.6" x2="501.4" y2="531.4"/>
		<line class="st0" x1="504.1" y1="529.9" x2="514.7" y2="523.8"/>
		<line class="st0" x1="437.2" y1="573.7" x2="447.9" y2="567.6"/>
		<line class="st0" x1="450.6" y1="566.1" x2="461.3" y2="559.9"/>
		<line class="st0" x1="464" y1="558.4" x2="474.6" y2="552.3"/>
		<line class="st0" x1="477.4" y1="550.7" x2="488" y2="544.6"/>
		<line class="st0" x1="490.7" y1="543" x2="501.4" y2="536.9"/>
		<line class="st0" x1="504.1" y1="535.3" x2="514.7" y2="529.2"/>
		<line class="st0" x1="437.2" y1="579.2" x2="447.9" y2="573.1"/>
		<line class="st0" x1="450.6" y1="571.5" x2="461.3" y2="565.4"/>
		<line class="st0" x1="464" y1="563.8" x2="474.6" y2="557.7"/>
		<line class="st0" x1="477.4" y1="556.2" x2="488" y2="550"/>
		<line class="st0" x1="490.7" y1="548.5" x2="501.4" y2="542.4"/>
		<line class="st0" x1="504.1" y1="540.8" x2="514.7" y2="534.7"/>
		<line class="st0" x1="437.2" y1="584.7" x2="447.9" y2="578.5"/>
		<line class="st0" x1="450.6" y1="577" x2="461.3" y2="570.9"/>
		<line class="st0" x1="464" y1="569.3" x2="474.6" y2="563.2"/>
		<line class="st0" x1="477.4" y1="561.6" x2="488" y2="555.5"/>
		<line class="st0" x1="490.7" y1="553.9" x2="501.4" y2="547.8"/>
		<line class="st0" x1="504.1" y1="546.2" x2="514.7" y2="540.1"/>
		<line class="st0" x1="437.2" y1="590.1" x2="447.9" y2="584"/>
		<line class="st0" x1="450.6" y1="582.4" x2="461.3" y2="576.3"/>
		<line class="st0" x1="464" y1="574.7" x2="474.6" y2="568.6"/>
		<line class="st0" x1="477.4" y1="567.1" x2="488" y2="561"/>
		<line class="st0" x1="490.7" y1="559.4" x2="501.4" y2="553.3"/>
		<line class="st0" x1="504.1" y1="551.7" x2="514.7" y2="545.6"/>
		<line class="st0" x1="437.2" y1="595.6" x2="447.9" y2="589.5"/>
		<line class="st0" x1="450.6" y1="587.9" x2="461.3" y2="581.8"/>
		<line class="st0" x1="464" y1="580.2" x2="474.6" y2="574.1"/>
		<line class="st0" x1="477.4" y1="572.5" x2="488" y2="566.4"/>
		<line class="st0" x1="490.7" y1="564.8" x2="501.4" y2="558.7"/>
		<line class="st0" x1="504.1" y1="557.2" x2="514.7" y2="551.1"/>
		<line class="st0" x1="437.2" y1="601" x2="447.9" y2="594.9"/>
		<line class="st0" x1="450.6" y1="593.3" x2="461.3" y2="587.2"/>
		<line class="st0" x1="464" y1="585.7" x2="474.6" y2="579.6"/>
		<line class="st0" x1="477.4" y1="578" x2="488" y2="571.9"/>
		<line class="st0" x1="490.7" y1="570.3" x2="501.4" y2="564.2"/>
		<line class="st0" x1="504.1" y1="562.6" x2="514.7" y2="556.5"/>
		<line class="st0" x1="437.2" y1="606.5" x2="447.9" y2="600.4"/>
		<line class="st0" x1="450.6" y1="598.8" x2="461.3" y2="592.7"/>
		<line class="st0" x1="464" y1="591.1" x2="474.6" y2="585"/>
		<line class="st0" x1="477.4" y1="583.4" x2="488" y2="577.3"/>
		<line class="st0" x1="490.7" y1="575.8" x2="501.4" y2="569.6"/>
		<line class="st0" x1="504.1" y1="568.1" x2="514.7" y2="562"/>
		<line class="st0" x1="437.2" y1="611.9" x2="447.9" y2="605.8"/>
		<line class="st0" x1="450.6" y1="604.3" x2="461.3" y2="598.1"/>
		<line class="st0" x1="464" y1="596.6" x2="474.6" y2="590.5"/>
		<line class="st0" x1="477.4" y1="588.9" x2="488" y2="582.8"/>
		<line class="st0" x1="490.7" y1="581.2" x2="501.4" y2="575.1"/>
		<line class="st0" x1="504.1" y1="573.5" x2="514.7" y2="567.4"/>
		<line class="st0" x1="437.2" y1="617.4" x2="447.9" y2="611.3"/>
		<line class="st0" x1="450.6" y1="609.7" x2="461.3" y2="603.6"/>
		<line class="st0" x1="464" y1="602" x2="474.6" y2="595.9"/>
		<line class="st0" x1="477.4" y1="594.4" x2="488" y2="588.2"/>
		<line class="st0" x1="490.7" y1="586.7" x2="501.4" y2="580.6"/>
		<line class="st0" x1="504.1" y1="579" x2="514.7" y2="572.9"/>
		<line class="st0" x1="437.2" y1="622.9" x2="447.9" y2="616.7"/>
		<line class="st0" x1="450.6" y1="615.2" x2="461.3" y2="609.1"/>
		<line class="st0" x1="464" y1="607.5" x2="474.6" y2="601.4"/>
		<line class="st0" x1="477.4" y1="599.8" x2="488" y2="593.7"/>
		<line class="st0" x1="490.7" y1="592.1" x2="501.4" y2="586"/>
		<line class="st0" x1="504.1" y1="584.5" x2="514.7" y2="578.3"/>
	</g>
	<polygon class="st0" points="280.1,537.6 270.8,542.8 270.8,453 280.1,447.8 	"/>
	<g>
		<polygon class="st0" points="318.1,350.9 273.5,376.9 273.5,332.3 318.1,306.3 		"/>
		<polygon class="st0" points="311.7,348.2 279.9,366.8 279.9,340.1 311.7,321.6 		"/>
		<polygon class="st0" points="302.3,324.2 291,330.7 291,325.5 302.3,318.9 		"/>
		<ellipse class="st0" cx="354.1" cy="313.3" rx="5.8" ry="9.8"/>
		<ellipse class="st0" cx="355.7" cy="313.3" rx="4.6" ry="7.7"/>
		<path class="st0" d="M366.7,307.9l-10.4-0.2c-1.9,0-3.4,2.6-3.4,5.8s1.5,5.8,3.4,5.8l10.4,5.5"/>
		<ellipse class="st0" cx="366.7" cy="316.4" rx="5" ry="8.5"/>
		<polygon class="st0" points="330,309 322.3,313.8 322.3,329 330,324.2 		"/>
		<polygon class="st0" points="343.1,301.9 335.3,306.7 335.3,321.9 343.1,317.1 		"/>
		<ellipse class="st0" cx="326.9" cy="328.1" rx="4.6" ry="7.8"/>
		<ellipse class="st0" cx="330" cy="329" rx="4.6" ry="7.8"/>
		<ellipse class="st0" cx="331.6" cy="329" rx="4.2" ry="7.1"/>
		<ellipse class="st0" cx="340" cy="321.6" rx="4.6" ry="7.8"/>
		<ellipse class="st0" cx="342.8" cy="322.4" rx="4.6" ry="7.8"/>
		<ellipse class="st0" cx="343.4" cy="322.4" rx="3.4" ry="5.8"/>
	</g>
	<g>
		<polygon class="st0" points="310.3,610.9 289.7,622.9 289.7,592.7 310.3,580.7 		"/>
		<ellipse class="st0" cx="298" cy="603.1" rx="6.4" ry="10.8"/>
		<ellipse class="st0" cx="302.4" cy="601.8" rx="6.4" ry="10.8"/>
		<polygon class="st0" points="296.9,604.1 300,604.1 308.2,597.2 308.8,600.1 300.7,607.3 297.7,607.3 		"/>
	</g>
	<path class="st0" d="M408.8,282.3l10.5-6c4.5-2.5,10.2-0.7,12.3,4l35.6,79.3c1.8,4.1,0.3,8.8-3.5,11.1l-9.3,5.5
		c-4.4,2.6-10.1,0.8-12.3-3.8l-36.8-78.8C403.2,289.5,404.8,284.6,408.8,282.3z"/>
	<path class="st0" d="M449.9,257.7l10.5-6c4.5-2.5,10.2-0.7,12.3,4l35.6,79.3c1.8,4.1,0.3,8.8-3.5,11.1l-9.3,5.5
		c-4.4,2.6-10.1,0.8-12.3-3.8L446.3,269C444.3,264.8,445.9,259.9,449.9,257.7z"/>
</g>
<path class="st1" d="M522.9,637.6v-1.7l7.7-4.5V150.8L299.1,15.9l-282,165.3V661l6.2,3.6c-5.2,1.3-8.8,4.4-8.8,8v4.2
	c0,4.8,6.6,8.7,14.7,8.7c8.1,0,14.7-3.9,14.7-8.7v-0.2L246.2,794c-3.3,1.6-5.4,4-5.4,6.7c0,0,0,0.1,0,0.1h0v4.2h0
	c0,4.8,6.6,8.7,14.7,8.7s14.7-3.9,14.7-8.7v-4.2h0c0,0,0-0.1,0-0.1c0-4-4.6-7.4-10.9-8.4v-1.5l245.1-144v3.4c0,4.8,6.6,8.7,14.7,8.7
	s14.7-3.9,14.7-8.7V646C533.8,642,529.2,638.6,522.9,637.6z"/>
</svg>
