<?xml version="1.0" encoding="utf-8"?>
<!-- Generator: Adobe Illustrator 27.4.0, SVG Export Plug-In . SVG Version: 6.00 Build 0)  -->
<svg version="1.1" id="Livello_1" xmlns="http://www.w3.org/2000/svg" xmlns:xlink="http://www.w3.org/1999/xlink" x="0px" y="0px"
	 viewBox="0 0 769.2 833.3" style="enable-background:new 0 0 769.2 833.3;" xml:space="preserve">
<style type="text/css">
	.st0{fill:none;stroke:#0090D2;stroke-width:2;stroke-miterlimit:10;}
	.st1{fill:none;stroke:#0090D2;stroke-width:2;stroke-linecap:round;stroke-miterlimit:10;}
	.st2{fill:none;stroke:#0090D2;stroke-width:2;stroke-linecap:round;stroke-linejoin:round;stroke-miterlimit:10;}
	.st3{opacity:0.1;}
	.st4{fill:#0090D2;}
</style>
<g id="_x31__PCB_LOADER">
</g>
<g id="_x32__SCREEN_PRINTER">
	<polyline class="st0" points="738,485.2 742.6,482.7 746.6,484.6 748.4,489.5 755.9,494 742.2,512.4 	"/>
	<path class="st1" d="M613.2,378.5c0,0-6.7-5-9.8,1.8s6.4,33.1,4.9,41.3c-1.4,8.2-4.9,8.4-4.9,8.4"/>
	<path class="st0" d="M601.3,397.7l-12.2-6.4l-11.4,5.5l9.6,5.9l9-5.2C596.3,397.5,599.8,396.2,601.3,397.7z"/>
	<polygon class="st0" points="535.4,252.9 457.2,207.4 225.7,342.3 303.6,387.5 	"/>
	<g>
		<path class="st0" d="M291.5,814.5c0,4.8,6.6,8.7,14.7,8.7s14.7-3.9,14.7-8.7v-4.2h-29.4L291.5,814.5L291.5,814.5z"/>
		<ellipse class="st0" cx="306.2" cy="810.3" rx="14.7" ry="8.7"/>
		<path class="st0" d="M302.4,807.9c0,1.2,1.7,2.3,3.8,2.3s3.8-1,3.8-2.3v-12.1h-7.6L302.4,807.9"/>
		<ellipse class="st0" cx="306.2" cy="795.7" rx="3.8" ry="2.3"/>
	</g>
	<g>
		<path class="st0" d="M21.6,663.6c0,4.8,6.6,8.7,14.7,8.7s14.7-3.9,14.7-8.7v-4.2H21.6V663.6z"/>
		<ellipse class="st0" cx="36.3" cy="659.4" rx="14.7" ry="8.7"/>
		<path class="st0" d="M32.5,656.9c0,1.2,1.7,2.3,3.8,2.3s3.8-1,3.8-2.3v-12.1h-7.6v12.3"/>
		<ellipse class="st0" cx="36.3" cy="644.8" rx="3.8" ry="2.3"/>
	</g>
	<g>
		<path class="st0" d="M561.3,659.4c0,4.8,6.6,8.7,14.7,8.7s14.7-3.9,14.7-8.7v-4.2h-29.4V659.4z"/>
		<ellipse class="st0" cx="576" cy="655.2" rx="14.7" ry="8.7"/>
		<path class="st0" d="M572.2,652.8c0,1.2,1.7,2.3,3.8,2.3s3.8-1,3.8-2.3v-12.1h-7.6V653"/>
		<ellipse class="st0" cx="576" cy="640.7" rx="3.8" ry="2.3"/>
	</g>
	<polygon class="st0" points="306.2,807.4 22.4,642.9 304.5,477.1 589.1,642.4 	"/>
	<polygon class="st0" points="306.2,807.4 306.2,537.3 278.5,402.7 19.3,252.2 19.3,642.9 	"/>
	<polygon class="st0" points="306.2,807.4 332.1,793.3 332.1,522.5 306.2,537.3 	"/>
	<polygon class="st0" points="278.5,402.7 303.6,387.5 332.1,522.5 306.2,537.3 	"/>
	<polygon class="st0" points="303.6,387.5 44.8,237.3 19.3,252.2 278.5,402.7 	"/>
	<polygon class="st0" points="563.1,657.6 589.1,643.4 589.1,372.6 563.1,387.4 	"/>
	<polygon class="st0" points="535.4,252.9 560.5,237.7 589.1,372.6 563.1,387.4 	"/>
	<polygon class="st0" points="560.5,237.7 301.8,87.4 276.3,102.3 535.4,252.9 	"/>
	<polygon class="st0" points="332.1,628.4 563.1,493.3 563.1,657.6 332.1,793.3 	"/>
	<polygon class="st0" points="303.6,387.5 535.4,252.9 563.1,387.4 332.1,522.5 	"/>
	<polygon class="st0" points="44.8,237.3 276.3,102.3 457.4,207.5 225.5,342.2 	"/>
	<path class="st0" d="M333.6,400.1c24.7-14.5,144.4-84.7,178.6-104.8c4.4-2.6,10,0.1,10.8,5.1l10.5,67.6c0.5,2.9-0.9,5.9-3.5,7.4
		L354.7,478.1c-4.3,2.5-9.7,0.1-10.7-4.8l-13.8-65.5C329.5,404.8,330.9,401.7,333.6,400.1z"/>
	<polyline class="st0" points="290.1,379.9 264.4,394.6 264.4,785.1 	"/>
	<line class="st0" x1="521.4" y1="244.7" x2="547.1" y2="229.8"/>
	<line class="st0" x1="332.1" y1="134.6" x2="357.8" y2="119.7"/>
	<line class="st0" x1="79.3" y1="287.3" x2="105" y2="272.4"/>
	<polygon class="st0" points="95.6,237.3 276.3,132.4 431.3,222.5 250.9,327.6 	"/>
	<ellipse class="st0" cx="263.5" cy="230" rx="26.6" ry="15.8"/>
	<polygon class="st0" points="253.9,139.4 264.3,133.3 274.8,139.4 264.3,145.5 	"/>
	<polygon class="st0" points="99.8,229.2 110.2,223.1 120.7,229.2 110.2,235.3 	"/>
	<polygon class="st0" points="105,230.5 112.2,226.3 114.7,227.6 107.6,231.8 	"/>
	<polygon class="st0" points="260.1,140.8 267.3,136.6 269.9,137.9 262.7,142.1 	"/>
	<polygon class="st0" points="109.7,240.9 124.8,231.6 259.9,311.4 245.1,319.7 	"/>
	<path class="st0" d="M312.7,116.5c0,4,5.4,7.2,12.1,7.2s12.1-3.2,12.1-7.2v-3.9h-24.3L312.7,116.5L312.7,116.5z"/>
	<ellipse class="st0" cx="324.8" cy="112.5" rx="12.1" ry="7.2"/>
	<path class="st0" d="M285.6,100.6c0,4,5.4,7.2,12.1,7.2s12.1-3.2,12.1-7.2v-3.9h-24.3L285.6,100.6L285.6,100.6z"/>
	<ellipse class="st0" cx="297.8" cy="96.7" rx="12.1" ry="7.2"/>
	<path class="st0" d="M318.1,110.7c0,2.2,3,4,6.7,4s6.7-1.8,6.7-4v-17h-13.4L318.1,110.7L318.1,110.7z"/>
	<path class="st0" d="M312.7,95.4c0,4,5.4,7.2,12.1,7.2s12.1-3.2,12.1-7.2v-3.9h-24.3L312.7,95.4L312.7,95.4z"/>
	<ellipse class="st0" cx="324.8" cy="91.4" rx="12.1" ry="7.2"/>
	<path class="st0" d="M312.7,88.7c0,4,5.4,7.2,12.1,7.2s12.1-3.2,12.1-7.2V77.9h-24.3L312.7,88.7L312.7,88.7z"/>
	<ellipse class="st0" cx="324.8" cy="77.9" rx="12.1" ry="7.2"/>
	<path class="st0" d="M312.7,75.8c0,4,5.4,7.2,12.1,7.2s12.1-3.2,12.1-7.2V65h-24.3L312.7,75.8L312.7,75.8z"/>
	<ellipse class="st0" cx="324.8" cy="65" rx="12.1" ry="7.2"/>
	<path class="st0" d="M312.7,63c0,4,5.4,7.2,12.1,7.2s12.1-3.2,12.1-7.2V52.2h-24.3L312.7,63L312.7,63z"/>
	<ellipse class="st0" cx="324.8" cy="52.2" rx="12.1" ry="7.2"/>
	<path class="st0" d="M312.7,50.6c0,4,5.4,7.2,12.1,7.2s12.1-3.2,12.1-7.2V39.8h-24.3L312.7,50.6L312.7,50.6z"/>
	<ellipse class="st0" cx="324.8" cy="39.8" rx="12.1" ry="7.2"/>
	<path class="st0" d="M312.7,37.8c0,4,5.4,7.2,12.1,7.2s12.1-3.2,12.1-7.2V17.9h-24.3L312.7,37.8L312.7,37.8z"/>
	<ellipse class="st0" cx="324.8" cy="17.9" rx="12.1" ry="7.2"/>
	<polygon class="st0" points="329.1,95.4 329.1,93.2 334.7,90.5 334.7,93 	"/>
	<polygon class="st0" points="329.1,82.2 329.1,79.9 334.7,77.2 334.7,79.7 	"/>
	<polygon class="st0" points="329.1,69.3 329.1,67 334.7,64.3 334.7,66.8 	"/>
	<polygon class="st0" points="329.1,57.2 329.1,54.9 334.7,52.2 334.7,54.7 	"/>
	<polygon class="st0" points="329.1,44.2 329.1,42 334.7,39.2 334.7,41.7 	"/>
	<polygon class="st0" points="408.6,229.8 419.1,223.7 429.6,229.8 419.1,235.9 	"/>
	<polygon class="st0" points="254.5,319.7 265,313.6 275.5,319.6 265,325.8 	"/>
	<polygon class="st0" points="260.1,321.1 267.3,316.9 269.9,318.2 262.7,322.4 	"/>
	<polygon class="st0" points="414.2,230.7 421.4,226.5 424,227.8 416.8,232 	"/>
	<ellipse class="st0" cx="565.1" cy="328.4" rx="5.8" ry="9.8"/>
	<ellipse class="st0" cx="566.7" cy="328.4" rx="4.6" ry="7.7"/>
	<path class="st0" d="M577.7,323l-10.4-0.2c-1.9,0-3.4,2.6-3.4,5.8s1.5,5.8,3.4,5.8l10.4,5.5"/>
	<ellipse class="st0" cx="577.7" cy="331.5" rx="5" ry="8.5"/>
	<ellipse class="st0" cx="521.4" cy="552.3" rx="14.2" ry="23.9"/>
	<ellipse class="st0" cx="570.2" cy="354.2" rx="3.7" ry="6.2"/>
	<ellipse class="st0" cx="572.4" cy="354.8" rx="3.7" ry="6.2"/>
	<ellipse class="st0" cx="572.9" cy="354.8" rx="2.7" ry="4.6"/>
	<polygon class="st0" points="332.1,522.5 563.1,387.4 563.1,493.3 332.1,628.4 	"/>
	<line class="st0" x1="331.9" y1="628.3" x2="563.4" y2="493.3"/>
	<line class="st2" x1="572.2" y1="479" x2="563.2" y2="456.7"/>
	<line class="st1" x1="340.7" y1="614.1" x2="572.2" y2="479"/>
	<line class="st2" x1="332.1" y1="588.3" x2="340.7" y2="614.1"/>
	<polygon class="st0" points="433.3,582.7 484.9,552.6 484.9,568.1 433.3,597.7 	"/>
	<path class="st0" d="M589.1,401.7l7.1-4.2c3.1-1.8,7.1,0.4,7.1,4.1v48.8c0,1.6-0.8,3.1-2.2,4l-12,7.5L589.1,401.7z"/>
	<polygon class="st0" points="603.3,406.6 611.7,401.3 611.7,409.3 603.3,413.9 	"/>
	<polygon class="st0" points="603.3,433.6 611.7,428.3 611.7,436.3 603.3,440.9 	"/>
	<path class="st0" d="M612.3,267.7v210.1h130v-210C742.2,267.9,612.3,266.5,612.3,267.7z"/>
	<path class="st0" d="M625.9,477.9v7.6h102.7v-7.6C728.6,477.9,625.9,477.8,625.9,477.9z"/>
	<path class="st0" d="M612.3,485.3v39.4c0,1.1,0.9,1.9,1.9,1.9h126.1c1.1,0,1.9-0.9,1.9-1.9v-37.4c0-1.1-0.9-1.9-1.9-1.9
		C724.2,485.3,612.3,485,612.3,485.3z"/>
	<path class="st0" d="M618.7,491v30.6h116.6V491C735.4,491,618.7,490.8,618.7,491z"/>
	<path class="st0" d="M625.9,283v179.5h102.7V283.1C728.6,283.1,625.9,281.9,625.9,283z"/>
	<g>
		<path class="st0" d="M621.8,494v2.9h5.8V494H621.8z"/>
		<path class="st0" d="M628.3,494v2.9h5.8V494H628.3z"/>
		<path class="st0" d="M634.9,494v2.9h5.8V494C640.6,494,634.9,494,634.9,494z"/>
		<path class="st0" d="M641.4,494v2.9h5.8V494H641.4z"/>
		<path class="st0" d="M648,494v2.9h5.8V494C653.7,494,648,494,648,494z"/>
		<path class="st0" d="M654.5,494v2.9h5.8V494H654.5z"/>
		<path class="st0" d="M661.1,494v2.9h5.8V494C666.8,494,661.1,494,661.1,494z"/>
		<path class="st0" d="M667.6,494v2.9h5.8V494C673.4,494,667.6,494,667.6,494z"/>
		<path class="st0" d="M674.2,494v2.9h5.8V494C679.9,494,674.2,494,674.2,494z"/>
		<path class="st0" d="M680.7,494v2.9h5.8V494H680.7z"/>
		<path class="st0" d="M687.2,494v2.9h5.8V494H687.2z"/>
		<path class="st0" d="M693.8,494v2.9h5.8V494H693.8z"/>
		<path class="st0" d="M700.3,494v2.9h5.8V494H700.3z"/>
		<path class="st0" d="M706.9,494v2.9h5.8V494H706.9z"/>
		<path class="st0" d="M713.4,494v2.9h5.8V494H713.4z"/>
		<path class="st0" d="M720,494v2.9h5.8V494H720z"/>
		<path class="st0" d="M726.5,494v2.9h5.8V494H726.5z"/>
		<path class="st0" d="M621.8,497.7v3.4h5.8v-3.4H621.8z"/>
		<path class="st0" d="M621.8,502v3.4h7.1V502C628.8,502,621.8,501.9,621.8,502z"/>
		<path class="st0" d="M621.8,506.2v3.4h8.8v-3.4C630.5,506.2,621.8,506.1,621.8,506.2z"/>
		<path class="st0" d="M628.3,497.7v3.4h5.8v-3.4H628.3z"/>
		<path class="st0" d="M629.6,502v3.4h4.9V502C634.5,502,629.6,501.9,629.6,502z"/>
		<path class="st0" d="M631.5,506.2v3.4h4.9v-3.4C636.4,506.2,631.5,506.1,631.5,506.2z"/>
		<path class="st0" d="M637.3,506.2v3.4h4.9v-3.4C642.2,506.2,637.3,506.1,637.3,506.2z"/>
		<path class="st0" d="M643.1,506.2v3.4h4.9v-3.4C648,506.2,643.1,506.1,643.1,506.2z"/>
		<path class="st0" d="M648.9,506.2v3.4h4.9v-3.4C653.9,506.2,648.9,506.1,648.9,506.2z"/>
		<path class="st0" d="M654.7,506.2v3.4h4.9v-3.4C659.7,506.2,654.7,506.1,654.7,506.2z"/>
		<path class="st0" d="M660.5,506.2v3.4h4.9v-3.4C665.5,506.2,660.5,506.1,660.5,506.2z"/>
		<path class="st0" d="M666.4,506.2v3.4h4.9v-3.4C671.3,506.2,666.4,506.1,666.4,506.2z"/>
		<path class="st0" d="M672.2,506.2v3.4h4.9v-3.4C677.1,506.2,672.2,506.1,672.2,506.2z"/>
		<path class="st0" d="M678,506.2v3.4h4.9v-3.4C682.9,506.2,678,506.1,678,506.2z"/>
		<path class="st0" d="M683.8,506.2v3.4h4.9v-3.4C688.8,506.2,683.8,506.1,683.8,506.2z"/>
		<path class="st0" d="M689.6,506.2v3.4h4.9v-3.4C694.6,506.2,689.6,506.1,689.6,506.2z"/>
		<path class="st0" d="M695.4,506.2v3.4h4.9v-3.4C700.4,506.2,695.4,506.1,695.4,506.2z"/>
		<path class="st0" d="M701.3,506.2v3.4h4.9v-3.4C706.2,506.2,701.3,506.1,701.3,506.2z"/>
		<path class="st0" d="M707.1,506.2v3.4h4.9v-3.4C712,506.2,707.1,506.1,707.1,506.2z"/>
		<path class="st0" d="M712.9,506.2v3.4h4.9v-3.4C717.8,506.2,712.9,506.1,712.9,506.2z"/>
		<path class="st0" d="M718.7,506.2v3.4h3.6v-3.4C722.3,506.2,718.7,506.1,718.7,506.2z"/>
		<path class="st0" d="M635.3,502v3.4h4.9V502C640.2,502,635.3,501.9,635.3,502z"/>
		<path class="st0" d="M641,502v3.4h4.9V502C645.9,502,641,501.9,641,502z"/>
		<path class="st0" d="M646.7,502v3.4h4.9V502C651.6,502,646.7,501.9,646.7,502z"/>
		<path class="st0" d="M652.4,502v3.4h4.9V502C657.3,502,652.4,501.9,652.4,502z"/>
		<path class="st0" d="M658.1,502v3.4h4.9V502C663,502,658.1,501.9,658.1,502z"/>
		<path class="st0" d="M663.8,502v3.4h4.9V502C668.7,502,663.8,501.9,663.8,502z"/>
		<path class="st0" d="M669.5,502v3.4h4.9V502C674.4,502,669.5,501.9,669.5,502z"/>
		<path class="st0" d="M675.2,502v3.4h4.9V502C680.1,502,675.2,501.9,675.2,502z"/>
		<path class="st0" d="M680.9,502v3.4h4.9V502C685.9,502,680.9,501.9,680.9,502z"/>
		<path class="st0" d="M686.6,502v3.4h4.9V502C691.6,502,686.6,501.9,686.6,502z"/>
		<path class="st0" d="M692.3,502v3.4h4.9V502C697.3,502,692.3,501.9,692.3,502z"/>
		<path class="st0" d="M698,502v3.4h4.9V502C703,502,698,501.9,698,502z"/>
		<path class="st0" d="M703.7,502v3.4h4.9V502C708.7,502,703.7,501.9,703.7,502z"/>
		<path class="st0" d="M709.4,502v3.4h4.9V502C714.4,502,709.4,501.9,709.4,502z"/>
		<path class="st0" d="M715.1,502v3.4h4.9V502C720.1,502,715.1,501.9,715.1,502z"/>
		<path class="st0" d="M720.8,502v3.4h4.9V502C725.8,502,720.8,501.9,720.8,502z"/>
		<path class="st0" d="M726.5,502v4.3c-2.2,0-3.2,0-3.2,0v3.3l9,0.2V502C732.3,502,726.5,501.9,726.5,502z"/>
		<path class="st0" d="M634.9,497.7v3.4h5.8v-3.4C640.6,497.7,634.9,497.7,634.9,497.7z"/>
		<path class="st0" d="M641.4,497.7v3.4h5.8v-3.4H641.4z"/>
		<path class="st0" d="M648,497.7v3.4h5.8v-3.4C653.7,497.7,648,497.7,648,497.7z"/>
		<path class="st0" d="M654.5,497.7v3.4h5.8v-3.4H654.5z"/>
		<path class="st0" d="M661.1,497.7v3.4h5.8v-3.4C666.8,497.7,661.1,497.7,661.1,497.7z"/>
		<path class="st0" d="M667.6,497.7v3.4h5.8v-3.4C673.4,497.7,667.6,497.7,667.6,497.7z"/>
		<path class="st0" d="M674.2,497.7v3.4h5.8v-3.4C679.9,497.7,674.2,497.7,674.2,497.7z"/>
		<path class="st0" d="M680.7,497.7v3.4h5.8v-3.4H680.7z"/>
		<path class="st0" d="M687.2,497.7v3.4h5.8v-3.4H687.2z"/>
		<path class="st0" d="M693.8,497.7v3.4h5.8v-3.4H693.8z"/>
		<path class="st0" d="M700.3,497.7v3.4h5.8v-3.4H700.3z"/>
		<path class="st0" d="M706.9,497.7v3.4h5.8v-3.4H706.9z"/>
		<path class="st0" d="M713.4,497.7v3.4h5.8v-3.4H713.4z"/>
		<path class="st0" d="M720,497.7v3.4h5.8v-3.4H720z"/>
		<path class="st0" d="M726.5,497.7v3.4h5.8v-3.4H726.5z"/>
		<path class="st0" d="M621.8,510.7v3.4h5.8v-3.4C627.6,510.7,621.8,510.7,621.8,510.7z"/>
		<path class="st0" d="M628.3,510.7v3.4h5.8v-3.4C634.1,510.7,628.3,510.7,628.3,510.7z"/>
		<path class="st0" d="M634.9,510.7v3.4h5.8v-3.4C640.6,510.7,634.9,510.7,634.9,510.7z"/>
		<path class="st0" d="M641.4,510.7v3.4h5.8v-3.4C647.2,510.7,641.4,510.7,641.4,510.7z"/>
		<path class="st0" d="M648,510.7v3.4h5.8v-3.4C653.7,510.7,648,510.7,648,510.7z"/>
		<path class="st0" d="M654.5,510.7v3.4h5.8v-3.4C660.3,510.7,654.5,510.7,654.5,510.7z"/>
		<path class="st0" d="M661.1,510.7v3.4h5.8v-3.4C666.8,510.7,661.1,510.7,661.1,510.7z"/>
		<path class="st0" d="M667.6,510.7v3.4h5.8v-3.4C673.4,510.7,667.6,510.7,667.6,510.7z"/>
		<path class="st0" d="M674.2,510.7v3.4h5.8v-3.4C679.9,510.7,674.2,510.7,674.2,510.7z"/>
		<path class="st0" d="M680.7,510.7v3.4h5.8v-3.4C686.5,510.7,680.7,510.7,680.7,510.7z"/>
		<path class="st0" d="M687.2,510.7v3.4h5.8v-3.4C693,510.7,687.2,510.7,687.2,510.7z"/>
		<path class="st0" d="M693.8,510.7v3.4h5.8v-3.4C699.6,510.7,693.8,510.7,693.8,510.7z"/>
		<path class="st0" d="M700.3,510.7v3.4h5.8v-3.4C706.1,510.7,700.3,510.7,700.3,510.7z"/>
		<path class="st0" d="M706.9,510.7v3.4h5.8v-3.4C712.7,510.7,706.9,510.7,706.9,510.7z"/>
		<path class="st0" d="M713.4,510.7v3.4h5.8v-3.4C719.2,510.7,713.4,510.7,713.4,510.7z"/>
		<path class="st0" d="M720,510.7v3.4h5.8v-3.4C725.8,510.7,720,510.7,720,510.7z"/>
		<path class="st0" d="M726.5,510.7v3.4h5.8v-3.4C732.3,510.7,726.5,510.7,726.5,510.7z"/>
		<path class="st0" d="M621.8,515.1v3.4h5.8v-3.4H621.8z"/>
		<path class="st0" d="M628.3,515.1v3.4h5.8v-3.4H628.3z"/>
		<path class="st0" d="M634.9,515.1v3.4h5.8v-3.4C640.6,515.1,634.9,515.1,634.9,515.1z"/>
		<path class="st0" d="M641.4,515.1v3.4h5.8v-3.4H641.4z"/>
		<path class="st0" d="M648,515.1v3.4h5.8v-3.4C653.7,515.1,648,515.1,648,515.1z"/>
		<path class="st0" d="M654.5,515.1v3.4h5.8v-3.4H654.5z"/>
		<path class="st0" d="M661.1,515.1v3.4h25.4v-3.4H661.1z"/>
		<path class="st0" d="M687.2,515.1v3.4h5.8v-3.4H687.2z"/>
		<path class="st0" d="M693.8,515.1v3.4h5.8v-3.4H693.8z"/>
		<path class="st0" d="M700.3,515.1v3.4h5.8v-3.4H700.3z"/>
		<path class="st0" d="M706.9,515.1v3.4h5.8v-3.4H706.9z"/>
		<path class="st0" d="M713.4,515.1v3.4h5.8v-3.4H713.4z"/>
		<path class="st0" d="M720,515.1v3.4h5.8v-3.4H720z"/>
		<path class="st0" d="M726.5,515.1v3.4h5.8v-3.4H726.5z"/>
	</g>
	<path class="st0" d="M625.9,521.6v7.6h102.7v-7.6C728.6,521.6,625.9,521.5,625.9,521.6z"/>
	<path class="st0" d="M637.5,485.2v-3.1c0-1.1-0.9-1.9-1.9-1.9h-15.7c-1.3,0-2.3,1-2.3,2.3v2.7C617.6,485.1,637.5,485.2,637.5,485.2
		z"/>
	<path class="st0" d="M736.5,485.2v-3.1c0-1.1-0.9-1.9-1.9-1.9h-15.7c-1.3,0-2.3,1-2.3,2.3v2.7C716.6,485.1,736.5,485.2,736.5,485.2
		z"/>
	<rect x="622.3" y="494.7" class="st0" width="1" height="0.8"/>
	<rect x="622.3" y="502.9" class="st0" width="1" height="0.8"/>
	<rect x="622.3" y="511.3" class="st0" width="1" height="0.8"/>
	<rect x="629.2" y="511.3" class="st0" width="1" height="0.8"/>
	<rect x="635.7" y="511.3" class="st0" width="1" height="0.8"/>
	<rect x="642.2" y="511.3" class="st0" width="1" height="0.8"/>
	<rect x="648.7" y="511.3" class="st0" width="1" height="0.8"/>
	<rect x="655.2" y="511.3" class="st0" width="1" height="0.8"/>
	<rect x="661.7" y="511.3" class="st0" width="1" height="0.8"/>
	<rect x="668.2" y="511.3" class="st0" width="1" height="0.8"/>
	<rect x="674.7" y="511.3" class="st0" width="1" height="0.8"/>
	<rect x="681.2" y="511.3" class="st0" width="1" height="0.8"/>
	<rect x="687.7" y="511.3" class="st0" width="1" height="0.8"/>
	<rect x="694.3" y="511.3" class="st0" width="1" height="0.8"/>
	<rect x="700.8" y="511.3" class="st0" width="1" height="0.8"/>
	<rect x="707.3" y="511.3" class="st0" width="1" height="0.8"/>
	<rect x="713.8" y="511.3" class="st0" width="1" height="0.8"/>
	<rect x="720.3" y="511.3" class="st0" width="1" height="0.8"/>
	<rect x="726.8" y="511.3" class="st0" width="1" height="0.8"/>
	<rect x="728.4" y="515.9" class="st0" width="1" height="0.8"/>
	<rect x="723.3" y="515.9" class="st0" width="1" height="0.8"/>
	<rect x="717" y="515.9" class="st0" width="1" height="0.8"/>
	<rect x="710.2" y="515.9" class="st0" width="1" height="0.8"/>
	<rect x="704.5" y="516.1" class="st0" width="1" height="0.8"/>
	<rect x="697.7" y="516.3" class="st0" width="1" height="0.8"/>
	<rect x="690.8" y="516.3" class="st0" width="1" height="0.8"/>
	<rect x="684.3" y="516.3" class="st0" width="1" height="0.8"/>
	<rect x="658.3" y="516.3" class="st0" width="1" height="0.8"/>
	<rect x="651.6" y="516.3" class="st0" width="1" height="0.8"/>
	<rect x="644.9" y="516.3" class="st0" width="1" height="0.8"/>
	<rect x="638.2" y="516.3" class="st0" width="1" height="0.8"/>
	<rect x="631.2" y="516.3" class="st0" width="1" height="0.8"/>
	<rect x="624.9" y="516.3" class="st0" width="1" height="0.8"/>
	<rect x="630.3" y="502.9" class="st0" width="1" height="0.8"/>
	<rect x="636.2" y="502.9" class="st0" width="1" height="0.8"/>
	<rect x="642.1" y="502.9" class="st0" width="1" height="0.8"/>
	<rect x="648" y="502.9" class="st0" width="1" height="0.8"/>
	<rect x="653.9" y="502.9" class="st0" width="1" height="0.8"/>
	<rect x="659.8" y="502.9" class="st0" width="1" height="0.8"/>
	<rect x="665.6" y="502.9" class="st0" width="1" height="0.8"/>
	<rect x="671.5" y="502.9" class="st0" width="1" height="0.8"/>
	<rect x="677.4" y="502.9" class="st0" width="1" height="0.8"/>
	<rect x="683.3" y="502.9" class="st0" width="1" height="0.8"/>
	<rect x="689.2" y="502.9" class="st0" width="1" height="0.8"/>
	<rect x="695.1" y="502.9" class="st0" width="1" height="0.8"/>
	<rect x="700.9" y="502.9" class="st0" width="1" height="0.8"/>
	<rect x="706.8" y="502.9" class="st0" width="1" height="0.8"/>
	<rect x="712.7" y="502.9" class="st0" width="1" height="0.8"/>
	<rect x="718.6" y="502.9" class="st0" width="1" height="0.8"/>
	<rect x="724.5" y="502.9" class="st0" width="1" height="0.8"/>
	<rect x="730.4" y="502.9" class="st0" width="1" height="6"/>
	<rect x="622.3" y="498.7" class="st0" width="1.2" height="1.4"/>
	<rect x="622.9" y="507.2" class="st0" width="1.2" height="1.4"/>
	<rect x="632.1" y="507.2" class="st0" width="1.2" height="1.4"/>
	<rect x="638.1" y="507.2" class="st0" width="1.2" height="1.4"/>
	<rect x="644.1" y="507.2" class="st0" width="1.2" height="1.4"/>
	<rect x="650.2" y="507.2" class="st0" width="1.2" height="1.4"/>
	<rect x="656.2" y="507.2" class="st0" width="1.2" height="1.4"/>
	<rect x="662.3" y="507.2" class="st0" width="1.2" height="1.4"/>
	<rect x="668.3" y="507.2" class="st0" width="1.2" height="1.4"/>
	<rect x="674.4" y="507.2" class="st0" width="1.2" height="1.4"/>
	<rect x="680.4" y="507.2" class="st0" width="1.2" height="1.4"/>
	<rect x="686.5" y="507.2" class="st0" width="1.2" height="1.4"/>
	<rect x="692.5" y="507.2" class="st0" width="1.2" height="1.4"/>
	<rect x="698.6" y="507.2" class="st0" width="1.2" height="1.4"/>
	<rect x="703.5" y="507.2" class="st0" width="1.2" height="1.4"/>
	<rect x="710.1" y="507.2" class="st0" width="1.2" height="1.4"/>
	<rect x="713.8" y="507.2" class="st0" width="1.2" height="1.4"/>
	<rect x="719.9" y="507.2" class="st0" width="1.2" height="1.4"/>
	<rect x="629.1" y="498.7" class="st0" width="1.2" height="1.4"/>
	<rect x="635.7" y="498.7" class="st0" width="1.2" height="1.4"/>
	<rect x="642.5" y="498.7" class="st0" width="1.2" height="1.4"/>
	<rect x="649.1" y="498.7" class="st0" width="1.2" height="1.4"/>
	<rect x="656" y="498.7" class="st0" width="1.2" height="1.4"/>
	<rect x="662.6" y="498.7" class="st0" width="1.2" height="1.4"/>
	<rect x="669.4" y="498.7" class="st0" width="1.2" height="1.4"/>
	<rect x="676" y="498.7" class="st0" width="1.2" height="1.4"/>
	<rect x="682.9" y="498.7" class="st0" width="1.2" height="1.4"/>
	<rect x="689.5" y="498.7" class="st0" width="1.2" height="1.4"/>
	<rect x="696.3" y="498.7" class="st0" width="1.2" height="1.4"/>
	<rect x="702.9" y="498.7" class="st0" width="1.2" height="1.4"/>
	<rect x="709.7" y="498.7" class="st0" width="1.2" height="1.4"/>
	<rect x="716.4" y="498.7" class="st0" width="1.2" height="1.4"/>
	<rect x="723.2" y="498.7" class="st0" width="1.2" height="1.4"/>
	<rect x="729.8" y="498.7" class="st0" width="1.2" height="1.4"/>
	<rect x="628.8" y="494.7" class="st0" width="1" height="0.8"/>
	<rect x="635.4" y="494.7" class="st0" width="1" height="0.8"/>
	<rect x="641.9" y="494.7" class="st0" width="1" height="0.8"/>
	<rect x="648.5" y="494.7" class="st0" width="1" height="0.8"/>
	<rect x="655" y="494.7" class="st0" width="1" height="0.8"/>
	<rect x="661.5" y="494.7" class="st0" width="1" height="0.8"/>
	<rect x="668.1" y="494.7" class="st0" width="1" height="0.8"/>
	<rect x="674.6" y="494.7" class="st0" width="1" height="0.8"/>
	<rect x="681.2" y="494.7" class="st0" width="1" height="0.8"/>
	<rect x="687.7" y="494.7" class="st0" width="1" height="0.8"/>
	<rect x="694.3" y="494.7" class="st0" width="1" height="0.8"/>
	<rect x="700.8" y="494.7" class="st0" width="1" height="0.8"/>
	<rect x="707.4" y="494.7" class="st0" width="1" height="0.8"/>
	<rect x="713.9" y="494.7" class="st0" width="1" height="0.8"/>
	<rect x="720.5" y="494.7" class="st0" width="1" height="0.8"/>
	<rect x="727" y="494.7" class="st0" width="1" height="0.8"/>
</g>
<g id="_x33__CONVEYOR_0.5MT">
</g>
<g id="_x34_-5-6_PICK_AND_PLACE_1">
</g>
<g id="_x37__CONVEYOR_1mt">
</g>
<g id="_x38__REFLOW_OVEN">
</g>
<g id="_x39__CONVEYOR_0.5MT">
</g>
<g id="_x31_0_PCB_UNLOADER">
</g>
<g class="st3">
	<path class="st4" d="M748.4,489.5l-1.8-4.9l-4-1.9l-4.6,2.5v0.2c-2.3,0-5.5,0-9.4,0v-0.2c4.2,0,7.9,0,7.9,0v-3.1
		c0-1.1-0.9-1.9-1.9-1.9h-6v-2.3c0,0-102.7-0.1-102.7,0v2.3h-6c-1.3,0-2.3,1-2.3,2.3v2.7c0,0,3.9,0,8.3,0l0,0
		c-8.4,0-13.6,0.1-13.6,0.1v39.4c0,1.1,0.9,1.9,1.9,1.9h11.7v2.6h102.7v-2.6h11.7c1.1,0,1.9-0.9,1.9-1.9v-12.3l13.7-18.4
		L748.4,489.5z"/>
	<path class="st4" d="M612.3,383.2v94.6h130v-210c-0.1,0.1-130-1.3-130-0.1v110.2c-1.9-1.1-6.5-2.9-8.9,2.4
		c-1.8,4,0.7,14.7,2.8,24.5l-2.9,1.8v7.3l3.5-1.9l-3.4,18c0,0,3.5-0.2,4.9-8.4c0.4-2.2,0-5.8-0.8-10l4.2-2.3v-8l-3.2,2L612.3,383.2z
		"/>
	<path class="st4" d="M601,397.5l0.3,0.2c-0.3-0.3-0.7-0.5-1.2-0.6l0.5,0.3c-0.3-0.1-0.6-0.3-0.9-0.3c0.1,0,0.3,0,0.4,0.1l-11-5.8
		v-18.7l-7.6-35.7c0.7-1.5,1.2-3.4,1.2-5.4c0-4.2-1.8-7.6-4.1-8.4l-18.1-85.4l-229-133v-3.3c3.3-1.3,5.4-3.5,5.4-6v-3.9l0,0v-0.1
		c0-0.5-0.1-0.9-0.2-1.3c0.1-0.4,0.2-0.9,0.2-1.4V77.9c0-0.4-0.1-0.7-0.1-1c0.1-0.3,0.1-0.7,0.1-1.1V65c0-0.3-0.1-0.7-0.1-1
		c0.1-0.3,0.1-0.7,0.1-1V52.2c0-0.3,0-0.5-0.1-0.8c0-0.3,0.1-0.5,0.1-0.8V39.8c0-0.3-0.1-0.7-0.1-1c0.1-0.3,0.1-0.7,0.1-1V17.9
		c0-4-5.4-7.2-12.1-7.2s-12.1,3.2-12.1,7.2h-0.1v19.9h0.1c0,0.3,0.1,0.7,0.1,1c-0.1,0.3-0.1,0.7-0.1,1h-0.1v10.8h0.1
		c0,0.3,0,0.5,0.1,0.8c0,0.3-0.1,0.5-0.1,0.8h-0.1V63h0.1c0,0.3,0.1,0.7,0.1,1c-0.1,0.3-0.1,0.7-0.1,1h-0.1v10.8h0.1
		c0,0.4,0.1,0.7,0.1,1.1c-0.1,0.3-0.1,0.7-0.1,1h-0.1v10.8h0.1c0,0.5,0.1,0.9,0.2,1.4c-0.1,0.4-0.2,0.9-0.2,1.3v0.1h-0.1v2.2
		l-10.8-6.3l-3.6,2.1c-0.1,0-0.3,0-0.4,0c-6.7,0-12.1,3.2-12.1,7.2h-0.2v0.2l-9.2,5.4l-231.5,135l-25.5,14.9v390.7l13.2,7.6v0.5
		c-6.3,1-10.9,4.4-10.9,8.4l0,0v4.2c0,4.8,6.6,8.7,14.7,8.7s14.7-3.9,14.7-8.7v-2.5l213.4,122.4v1.7l0.1-1.6l33.9,19.4
		c-4.1,1.5-6.9,4.3-6.9,7.4l0,0v4.2l0,0c0,4.8,6.6,8.7,14.7,8.7s14.7-3.9,14.7-8.7v-4.2c0-3-2.7-5.7-6.7-7.3l17.9-9.7l229.2-134.6
		v0.7c0,4.8,6.6,8.7,14.7,8.7s14.7-3.9,14.7-8.7v-4.2c0-3.5-3.6-6.6-8.7-7.9l7.1-3.9V461.9l12-7.5c1.4-0.9,2.2-2.4,2.2-4v-48.8
		C603.3,399.8,602.3,398.3,601,397.5z M270,316.5L270,316.5l69.2-40.3l2.2-1.3L270,316.5z M250.8,327.5l0.1,0.1l8.6-5l0,0
		l-33.8,19.7l-0.2-0.1L250.8,327.5z M589.1,401.7l2.9-1.7L589.1,401.7L589.1,401.7z"/>
	<polygon class="st4" points="603.3,440.9 611.7,436.3 611.7,428.3 603.3,433.6 	"/>
</g>
<g id="_x31_0_PCB_UNLOADER_00000113322528757960608870000017418633905446193552_">
</g>
</svg>
