<?xml version="1.0" encoding="utf-8"?>
<!-- Generator: Adobe Illustrator 27.4.0, SVG Export Plug-In . SVG Version: 6.00 Build 0)  -->
<svg version="1.1" id="Livello_1" xmlns="http://www.w3.org/2000/svg" xmlns:xlink="http://www.w3.org/1999/xlink" x="0px" y="0px"
	 viewBox="0 0 512.1 478.4" style="enable-background:new 0 0 512.1 478.4;" xml:space="preserve">
<style type="text/css">
	.st0{fill:none;stroke:#0090D2;stroke-width:2;stroke-miterlimit:10;}
	.st1{fill:none;stroke:#0090D2;stroke-width:2;stroke-linecap:round;stroke-linejoin:round;stroke-miterlimit:10;}
	.st2{opacity:0.1;fill:#0090D2;enable-background:new    ;}
</style>
<g id="_x31__PCB_LOADER">
</g>
<g id="_x32__SCREEN_PRINTER">
</g>
<g id="_x33__CONVEYOR_0.5MT">
	<g>
		<path class="st0" d="M228,459.9c0,4.8,6.6,8.7,14.7,8.7s14.7-3.9,14.7-8.7v-4.2H228V459.9z"/>
		<ellipse class="st0" cx="242.7" cy="455.7" rx="14.7" ry="8.7"/>
		<path class="st0" d="M238.9,453.3c0,1.2,1.7,2.3,3.8,2.3s3.8-1,3.8-2.3v-12.1h-7.6v12.3"/>
		<ellipse class="st0" cx="242.7" cy="441.1" rx="3.8" ry="2.3"/>
	</g>
	<g>
		<path class="st0" d="M12.1,334c0,4.8,6.6,8.7,14.7,8.7s14.7-3.9,14.7-8.7v-4.2H12.1V334z"/>
		<ellipse class="st0" cx="26.8" cy="329.8" rx="14.7" ry="8.7"/>
		<path class="st0" d="M23,327.4c0,1.2,1.7,2.3,3.8,2.3s3.8-1,3.8-2.3v-12.1H23v12.3"/>
		<ellipse class="st0" cx="26.8" cy="315.2" rx="3.8" ry="2.3"/>
	</g>
	<g>
		<path class="st0" d="M400.5,359.3c0,4.8,6.6,8.7,14.7,8.7s14.7-3.9,14.7-8.7v-4.2h-29.4L400.5,359.3L400.5,359.3z"/>
		<ellipse class="st0" cx="415.2" cy="355.1" rx="14.7" ry="8.7"/>
		<path class="st0" d="M411.4,352.7c0,1.2,1.7,2.3,3.8,2.3s3.8-1,3.8-2.3v-12.1h-7.6v12.3"/>
		<ellipse class="st0" cx="415.2" cy="340.6" rx="3.8" ry="2.3"/>
	</g>
	<polygon class="st0" points="299.4,30.1 248.4,59.8 428.7,165.5 480.3,135.6 	"/>
	<polygon class="st0" points="427.6,345.1 427.6,164.7 246.5,269.9 249.3,450 	"/>
	<polygon class="st0" points="400.9,119.3 427.6,164.7 246.5,269.9 222.2,224.3 	"/>
	<polygon class="st0" points="219,14.3 400.9,119.3 222.2,224.3 40.2,119.3 	"/>
	<path class="st0" d="M504.4,119.3c0,35.1-0.2,59.9-0.2,59.9l-49.8,31v-31.1l-26.7,15.1v-29.5L504.4,119.3z"/>
	<path class="st0" d="M478,75.1c0,0,26.4,9.1,26.4,44.2l-76.7,45.4c0,0,10.5-23.4-25.5-44.7L478,75.1z"/>
	<path class="st0" d="M402.2,120c-0.4-0.3-0.9-0.5-1.3-0.8C363.3,97.7,273.2,44,273.2,44l75.9-44L478,75.1L402.2,120z"/>
	<polygon class="st0" points="40.2,119.3 14.5,164.1 14.5,314.3 249.3,450 246.5,269.9 222.2,224.3 	"/>
	<line class="st0" x1="247.3" y1="329.2" x2="426.7" y2="225"/>
	<line class="st0" x1="273.6" y1="314" x2="273.6" y2="434.6"/>
	<line class="st0" x1="402.6" y1="239.8" x2="402.6" y2="360.4"/>
	<g>
		<polygon class="st0" points="252.9,210.7 296.7,185 318.3,223.7 275.2,248.7 		"/>
		<path class="st0" d="M296.1,187l20.2,36.1l-40.5,23.5L255,211.2L296.1,187 M297.2,182.9l-46.4,27.3l23.8,40.6l45.7-26.5
			L297.2,182.9L297.2,182.9z"/>
	</g>
	<g>
		<polygon class="st0" points="260.4,212.2 294.2,192.3 310.8,222 277.5,241.4 		"/>
		<path class="st0" d="M293.5,195.1l14.7,26.2l-29.9,17.4l-15.1-25.8L293.5,195.1 M295,189.5l-37.3,21.9l19.2,32.6l36.7-21.3
			L295,189.5L295,189.5z"/>
	</g>
	<path class="st0" d="M352,106.1l-89.6-51.7c-2.2-1.3-4.9-1.3-7.2,0l-138.5,80.8c-4.7,2.7-4.7,9.5,0,12.3l88.7,52.2
		c2.2,1.3,5,1.3,7.2,0L352,118.4C356.8,115.7,356.8,108.8,352,106.1z"/>
	<path class="st0" d="M103.7,108.3l12.3,7.3c1.2,0.7,2.8,0.7,4,0l91.3-52c2.7-1.6,2.7-5.5-0.1-7l-13.6-7.3c-1.2-0.7-2.7-0.6-3.9,0.1
		l-89.9,52C101.1,102.9,101.1,106.7,103.7,108.3z"/>
	<path class="st0" d="M399.2,96c-3.8,2.2-8.4,2.2-12.2,0c-15.6-9.2-56.6-33.3-70.5-41.6c-3.8-2.2-3.7-7.7,0.1-9.9l38.7-22.4
		c1.8-1,4-1,5.7,0L434.7,65c3.8,2.2,3.8,7.6,0,9.9L399.2,96z"/>
	<path class="st0" d="M299.9,47.7l56.1-32l95.2,55.5l-56,33.2C394.9,104.2,319.2,59.2,299.9,47.7z"/>
	<ellipse class="st0" cx="307.5" cy="47.5" rx="2" ry="1.2"/>
	<ellipse class="st0" cx="347.6" cy="76.3" rx="2" ry="1.2"/>
	<ellipse class="st0" cx="403.2" cy="43.5" rx="2" ry="1.2"/>
	<ellipse class="st0" cx="356.5" cy="18.9" rx="2" ry="1.2"/>
	<ellipse class="st0" cx="394.8" cy="100" rx="2" ry="1.2"/>
	<g>
		<path class="st0" d="M351.4,184.4c-1.7,0-3.4-1.2-4.4-3c-0.7-1.3-0.9-2.6-0.6-3.9c0.2-1.1,0.8-2,1.7-2.5c0.4-0.2,0.9-0.3,1.4-0.3
			c1.7,0,3.4,1.2,4.4,3c0.7,1.3,0.9,2.6,0.6,3.9c-0.2,1.1-0.8,2-1.7,2.5C352.4,184.3,351.9,184.4,351.4,184.4z"/>
		<path class="st0" d="M349.6,176.2L349.6,176.2c0.9,0,2.2,0.7,3.1,2.2c1,1.9,0.6,3.8-0.5,4.3c-0.2,0.1-0.5,0.2-0.7,0.2
			c-0.9,0-2.2-0.7-3.1-2.2c-1-1.9-0.6-3.8,0.5-4.3C349,176.3,349.3,176.2,349.6,176.2 M349.6,173.2c-0.7,0-1.5,0.2-2.1,0.5
			c-2.6,1.4-3.4,5.1-1.7,8.4c1.3,2.4,3.5,3.8,5.7,3.8c0.7,0,1.5-0.2,2.1-0.5c2.6-1.4,3.4-5.1,1.7-8.4
			C354,174.7,351.7,173.2,349.6,173.2L349.6,173.2z"/>
	</g>
	<ellipse class="st0" cx="443.7" cy="71.4" rx="2" ry="1.2"/>
	<path class="st1" d="M355.6,48.1v-2.4c0-1.7,1.9-2.8,3.4-1.9l24.4,15.1c0.7,0.4,1.1,1.1,1.1,1.9v4.7"/>
	<line class="st0" x1="211" y1="217.8" x2="389" y2="112.4"/>
	<polyline class="st1" points="278.8,168.4 278.8,152.8 316.9,129.9 316.9,145.1 	"/>
	<polygon class="st0" points="322.2,346.5 301.5,358.4 301.5,328.3 322.2,316.3 	"/>
	<ellipse class="st0" cx="309.8" cy="338.7" rx="6.4" ry="10.8"/>
	<ellipse class="st0" cx="314.2" cy="337.4" rx="6.4" ry="10.8"/>
	<polygon class="st0" points="308.7,339.6 311.9,339.6 320.1,332.8 320.7,335.6 312.5,342.8 309.5,342.8 	"/>
</g>
<g id="_x34_-5-6_PICK_AND_PLACE_1">
</g>
<g id="_x37__CONVEYOR_1mt">
</g>
<g id="_x38__REFLOW_OVEN">
</g>
<g id="_x39__CONVEYOR_0.5MT">
</g>
<g id="_x31_0_PCB_UNLOADER">
</g>
<path class="st2" d="M478,75.1L349.1,0l-75.9,44c0,0,0.4,0.2,1.2,0.7l-1.3,0.8l-54-31.2l-178.8,105l-25.7,44.8v150.2l8.5,4.9v2.2
	c-6.3,1-10.9,4.4-10.9,8.4v4.2c0,4.8,6.6,8.7,14.7,8.7s14.7-3.9,14.7-8.7v-4.1L238.9,444v3.3c-6.3,1-10.9,4.4-10.9,8.4l0,0v4.2
	c0,4.8,6.6,8.7,14.7,8.7s14.7-3.9,14.7-8.7v-4.2l0,0c0-2.9-2.3-5.4-5.9-7l149.3-87.8c1.3,4,7.3,7.1,14.4,7.1
	c8.1,0,14.7-3.9,14.7-8.7v-4.2c0-3.1-2.7-5.8-6.8-7.3l4.5-2.7V164.9l0.1,0.1v29.3l26.7-15.1v31.1l49.8-31c0,0,0.2-24.8,0.2-59.9
	C504.4,84.2,478,75.1,478,75.1z"/>
<g id="_x31_0_PCB_UNLOADER_00000008869032084036868430000007959575680701387181_">
</g>
</svg>
