<?xml version="1.0" encoding="utf-8"?>
<!-- Generator: Adobe Illustrator 27.4.0, SVG Export Plug-In . SVG Version: 6.00 Build 0)  -->
<svg version="1.2" baseProfile="tiny" xmlns="http://www.w3.org/2000/svg" xmlns:xlink="http://www.w3.org/1999/xlink" x="0px"
	 y="0px" viewBox="0 0 581.8 577.8" overflow="visible" xml:space="preserve">
<g id="_x31__PCB_LOADER">
</g>
<g id="_x32__SCREEN_PRINTER">
</g>
<g id="_x33__CONVEYOR_0.5MT">
</g>
<g id="_x34_-5-6_PICK_AND_PLACE_1">
</g>
<g id="_x37__CONVEYOR_1mt">
	<g>
		<path fill="#808080" stroke="#808080" stroke-width="0.5" stroke-miterlimit="10" d="M228.4,559.4c0,4.8,6.6,8.7,14.7,8.7
			c8.1,0,14.7-3.9,14.7-8.7v-4.2h-29.4V559.4z"/>
		<ellipse fill="#808080" stroke="#808080" stroke-width="0.5" stroke-miterlimit="10" cx="243.1" cy="555.2" rx="14.7" ry="8.7"/>
		<path fill="#E5E5E5" stroke="#808080" stroke-width="0.5" stroke-miterlimit="10" d="M239.3,552.8c0,1.2,1.7,2.3,3.8,2.3
			c2.1,0,3.8-1,3.8-2.3v-12.1h-7.6v12.3"/>
		<ellipse fill="#E5E5E5" stroke="#808080" stroke-width="0.5" stroke-miterlimit="10" cx="243.1" cy="540.7" rx="3.8" ry="2.3"/>
	</g>
	<g>
		<path fill="#808080" stroke="#808080" stroke-width="0.5" stroke-miterlimit="10" d="M530.5,390.2c0,4.8,6.6,8.7,14.7,8.7
			s14.7-3.9,14.7-8.7V386h-29.4V390.2z"/>
		<ellipse fill="#808080" stroke="#808080" stroke-width="0.5" stroke-miterlimit="10" cx="545.2" cy="386" rx="14.7" ry="8.7"/>
		<path fill="#E5E5E5" stroke="#808080" stroke-width="0.5" stroke-miterlimit="10" d="M541.4,383.6c0,1.2,1.7,2.3,3.8,2.3
			c2.1,0,3.8-1,3.8-2.3v-12.1h-7.6v12.3"/>
		<ellipse fill="#E5E5E5" stroke="#808080" stroke-width="0.5" stroke-miterlimit="10" cx="545.2" cy="371.5" rx="3.8" ry="2.3"/>
	</g>
	<g>
		<path fill="#808080" stroke="#808080" stroke-width="0.5" stroke-miterlimit="10" d="M14.2,437.3c0,4.8,6.6,8.7,14.7,8.7
			s14.7-3.9,14.7-8.7v-4.2H14.2V437.3z"/>
		<ellipse fill="#808080" stroke="#808080" stroke-width="0.5" stroke-miterlimit="10" cx="28.9" cy="433.1" rx="14.7" ry="8.7"/>
		<path fill="#E5E5E5" stroke="#808080" stroke-width="0.5" stroke-miterlimit="10" d="M25.1,430.7c0,1.2,1.7,2.3,3.8,2.3
			s3.8-1,3.8-2.3v-12.1h-7.6v12.3"/>
		<ellipse fill="#E5E5E5" stroke="#808080" stroke-width="0.5" stroke-miterlimit="10" cx="28.9" cy="418.6" rx="3.8" ry="2.3"/>
	</g>
	<polygon fill="#CBCBCB" points="561.7,374.4 561.7,194 250,374.5 252.8,554.6 	"/>
	<polygon fill="#E5E5E5" points="534.9,148.5 561.7,194 250,374.5 225.7,328.9 	"/>
	<polygon fill="#F1F1F1" points="353,43.6 405.6,74.2 96.9,254.6 43.7,223.9 	"/>
	<polygon fill="#B2B2B2" points="43.7,223.9 18,268.8 18,418.9 252.8,554.6 250,374.5 225.7,328.9 	"/>
	<line fill="none" stroke="#989898" stroke-width="1.5" stroke-miterlimit="10" x1="250.9" y1="433.9" x2="560.8" y2="254.3"/>
	<line fill="none" stroke="#808080" stroke-width="0.5" stroke-miterlimit="10" x1="277.1" y1="418.6" x2="277.1" y2="539.2"/>
	<line fill="none" stroke="#808080" stroke-width="0.5" stroke-miterlimit="10" x1="536.6" y1="269.1" x2="536.6" y2="389.7"/>
	<g>
		<polygon fill="#CBCBCB" points="256.4,315.3 300.2,289.6 321.8,328.3 278.7,353.4 		"/>
		<path fill="#989898" d="M299.6,291.7l20.2,36.1l-40.5,23.5l-20.8-35.4L299.6,291.7 M300.8,287.5l-46.4,27.3l23.8,40.6l45.7-26.5
			L300.8,287.5L300.8,287.5z"/>
	</g>
	<g>
		<linearGradient id="SVGID_1_" gradientUnits="userSpaceOnUse" x1="256.641" y1="304.9558" x2="329.6766" y2="341.8248">
			<stop  offset="0" style="stop-color:#FBE8F2"/>
			<stop  offset="1" style="stop-color:#27AAE2"/>
		</linearGradient>
		<polygon fill="url(#SVGID_1_)" points="263.9,316.8 297.7,296.9 314.4,326.7 281,346 		"/>
		<path fill="#808080" d="M297,299.7l14.7,26.2l-29.9,17.4l-15.1-25.8L297,299.7 M298.5,294.2l-37.3,21.9l19.2,32.6l36.7-21.3
			L298.5,294.2L298.5,294.2z"/>
	</g>
	<polygon fill="#EACD1F" stroke="#808080" stroke-width="0.5" stroke-miterlimit="10" points="325.7,451.1 305,463.1 305,432.9 
		325.7,421 	"/>
	<ellipse fill="#EACD1F" stroke="#808080" stroke-width="0.5" stroke-miterlimit="10" cx="313.4" cy="443.3" rx="6.4" ry="10.8"/>
	<ellipse fill="#FF1D25" stroke="#808080" stroke-width="0.5" stroke-miterlimit="10" cx="317.7" cy="442" rx="6.4" ry="10.8"/>
	<polygon fill="#FF1D25" stroke="#808080" stroke-width="0.5" stroke-miterlimit="10" points="312.2,444.3 315.4,444.3 323.6,437.4 
		324.2,440.3 316,447.5 313,447.5 	"/>
	
		<ellipse transform="matrix(0.7908 -0.6121 0.6121 0.7908 -99.5902 277.3817)" fill="#666666" stroke="#1A1A1A" stroke-width="0.5" stroke-miterlimit="10" cx="356" cy="284.4" rx="5.8" ry="9.8"/>
	
		<ellipse transform="matrix(0.7908 -0.6121 0.6121 0.7908 -98.7193 277.9557)" fill="#EACD1F" stroke="#808080" stroke-width="0.5" stroke-miterlimit="10" cx="357.2" cy="283.4" rx="4.6" ry="7.7"/>
	<path fill="#666666" stroke="#1A1A1A" stroke-width="0.25" stroke-miterlimit="10" d="M362.6,272.4l-8.3,6.2
		c-1.5,1.2-1.1,4.1,0.8,6.7c2,2.5,4.7,3.6,6.2,2.5l11.6-2"/>
	
		<ellipse transform="matrix(0.7908 -0.6121 0.6121 0.7908 -93.8944 283.5482)" fill="#666666" stroke="#1A1A1A" stroke-width="0.25" stroke-miterlimit="10" cx="367.8" cy="279.1" rx="5" ry="8.5"/>
	<polygon fill="#CBCBCB" points="405.6,74.2 405.6,77.9 99.5,255.8 96.9,254.6 	"/>
	<polygon fill="#333333" stroke="#808080" stroke-width="0.5" stroke-miterlimit="10" points="379.4,119.4 379.4,92.9 99.5,255.8 
		120.9,268.5 	"/>
	<polygon fill="#666666" points="379.4,119.4 469.4,171.7 211.5,321 120.9,268.5 	"/>
	<polygon fill="#B2B2B2" points="534.1,119.5 508.3,104.4 508.3,111.7 431.5,67.1 431.5,59.4 353,14.3 340,21.5 340,50.3 353,43.6 
		405.6,74.2 405.6,77.9 379.4,92.9 379.4,119.4 431.1,149.4 431.5,81.7 507.4,123.9 507.4,149.7 520.8,141.7 534.9,148.5 
		548.4,171.4 547.2,138.7 	"/>
	<polygon fill="#666666" points="548.4,171.4 549.9,170.5 549.9,138.1 536.2,118.3 510,103.4 508.3,104.4 534.1,119.5 547.2,138.7 	
		"/>
	<polygon fill="#666666" points="508.3,110 432.9,66.2 433,58 354.9,13.2 353,14.3 431.5,59.4 431.5,67.1 508.3,111.7 	"/>
	<polygon fill="#666666" points="431.5,81.7 433.1,82.7 433.1,148.3 431.1,149.4 	"/>
	<polygon fill="#CBCBCB" points="190.8,308.9 504.7,122.4 499.7,119.7 185.8,305.9 	"/>
	<line fill="none" stroke="#00A89C" stroke-miterlimit="10" x1="195.1" y1="311.2" x2="507.4" y2="123.9"/>
	<line fill="none" stroke="#00A89C" stroke-miterlimit="10" x1="203" y1="316" x2="507.4" y2="133.4"/>
	<ellipse fill="none" stroke="#00A89C" stroke-miterlimit="10" cx="317.5" cy="242.8" rx="2.7" ry="4.6"/>
	<ellipse fill="none" stroke="#00A89C" stroke-miterlimit="10" cx="339.7" cy="229" rx="2.7" ry="4.6"/>
	
		<line fill="none" stroke="#989898" stroke-width="5" stroke-linecap="round" stroke-linejoin="round" stroke-miterlimit="10" x1="429.8" y1="194.4" x2="413.3" y2="183.5"/>
	<polygon fill="#F1F1F1" points="225.7,328.9 211.5,321 520.8,141.7 534.9,148.5 	"/>
	<polygon fill="#CBCBCB" points="337.4,132 337.4,146.3 364.3,132 364.3,116.1 	"/>
	
		<line fill="none" stroke="#989898" stroke-width="5" stroke-linecap="round" stroke-linejoin="round" stroke-miterlimit="10" x1="398.8" y1="174" x2="343" y2="140.5"/>
	<polygon fill="#666666" points="364.3,116.1 360.6,113.8 332.8,129.5 333.4,143.6 337.4,146.3 337.4,132 	"/>
	
		<line fill="none" stroke="#989898" stroke-width="5" stroke-linecap="round" stroke-linejoin="round" stroke-miterlimit="10" x1="127.9" y1="259" x2="323.1" y2="145.8"/>
	
		<line fill="none" stroke="#4D4D4D" stroke-width="5" stroke-linecap="round" stroke-linejoin="round" stroke-miterlimit="10" x1="127.9" y1="269.7" x2="323.1" y2="156.5"/>
	<polygon fill="#CBCBCB" points="146.8,36.5 286.1,128.4 277.6,134.3 271.8,141.6 149.1,60.9 	"/>
	
		<line fill="none" stroke="#B2B2B2" stroke-width="1.5" stroke-linecap="round" stroke-miterlimit="10" x1="274.7" y1="138" x2="148.6" y2="55.9"/>
	<polygon fill="#CBCBCB" points="96.5,224.1 120.9,59.1 129.9,64.3 138.9,66.4 117.7,211.7 	"/>
	<path fill="#B2B2B2" d="M142.4,36.5L119,51.8c0,0-4,3.7,1.9,7.3c5.9,3.6,9,5.2,9,5.2l9,2.2l10.3-4l2.7-9.8V39
		C152,39,150.6,31.2,142.4,36.5z"/>
	<path fill="none" stroke="#B2B2B2" stroke-width="1.5" stroke-linecap="round" stroke-miterlimit="10" d="M122.5,51.2
		c0,0-7.1,4.9-1.6,7.9c5.5,3,9,5.2,9,5.2l4.5,1.1l-21,148.9"/>
	
		<ellipse transform="matrix(0.8119 -0.5838 0.5838 0.8119 -105.9891 103.9319)" fill="#B2B2B2" cx="108.3" cy="216.4" rx="12.9" ry="10.8"/>
	<path fill="none" stroke="#4D4D4D" stroke-width="3" stroke-linecap="round" stroke-linejoin="round" stroke-miterlimit="10" d="
		M106.7,209.1c0,0-2.1-4.3-7.9,0c-5.8,4.3-4.6,10.3-8.3,19.9c-2.2,5.9-5.7,10.4-8.1,13.1c-2.8,3.2-4.8,7-5.6,11.2
		c-0.9,5.1,0,10.9,7.9,12.2c14.9,2.3,17.2-8.8,24.1-6.4c6.9,2.3,6.3,5.3,6.3,5.3"/>
	<path fill="#B2B2B2" d="M265.3,135.3c-3.5,10.5,8.2,23.8,25.9,29.7c17.8,5.8,35,2,38.5-8.5l2.8-8.6l-64.4-21.2L265.3,135.3z"/>
	<path fill="none" stroke="#4D4D4D" stroke-linecap="round" stroke-linejoin="round" stroke-miterlimit="10" d="M331.1,152.1
		c-3.5,10.5-20.7,14.3-38.5,8.5c-17.8-5.8-29.4-19.1-25.9-29.7c0,0-3.1-6-7,1.3c-3.9,7.3,3.2,2.7,3.2,2.7"/>
	
		<ellipse transform="matrix(0.312 -0.9501 0.9501 0.312 76.1863 379.7482)" fill="#CBCBCB" cx="300.3" cy="137.3" rx="20.1" ry="33.9"/>
	
		<ellipse transform="matrix(0.312 -0.9501 0.9501 0.312 66.1229 348.2792)" fill="none" stroke="#B2B2B2" stroke-linecap="round" stroke-miterlimit="10" cx="273.5" cy="128.5" rx="1.8" ry="3.6"/>
	
		<ellipse transform="matrix(0.312 -0.9501 0.9501 0.312 71.3822 380.7444)" fill="none" stroke="#B2B2B2" stroke-linecap="round" stroke-miterlimit="10" cx="298.6" cy="141.1" rx="1.8" ry="3.6"/>
	
		<ellipse transform="matrix(0.312 -0.9501 0.9501 0.312 93.675 402.0891)" fill="none" stroke="#B2B2B2" stroke-linecap="round" stroke-miterlimit="10" cx="324.5" cy="136.4" rx="1.8" ry="3.6"/>
	
		<ellipse transform="matrix(0.312 -0.9501 0.9501 0.312 77.4828 378.6654)" fill="none" stroke="#B2B2B2" stroke-linecap="round" stroke-miterlimit="10" cx="300.2" cy="135.8" rx="10.7" ry="20.9"/>
</g>
<g id="_x38__REFLOW_OVEN">
</g>
<g id="_x39__CONVEYOR_0.5MT">
</g>
<g id="_x31_0_PCB_UNLOADER">
</g>
</svg>
