<?xml version="1.0" encoding="utf-8"?>
<!-- Generator: Adobe Illustrator 27.4.0, SVG Export Plug-In . SVG Version: 6.00 Build 0)  -->
<svg version="1.1" id="Livello_1" xmlns="http://www.w3.org/2000/svg" xmlns:xlink="http://www.w3.org/1999/xlink" x="0px" y="0px"
	 viewBox="0 0 581.8 577.8" style="enable-background:new 0 0 581.8 577.8;" xml:space="preserve">
<style type="text/css">
	.st0{fill:none;stroke:#0090D2;stroke-width:2;stroke-miterlimit:10;}
	.st1{fill:none;stroke:#0090D2;stroke-width:2;stroke-miterlimit:10.0002;}
	.st2{fill:none;stroke:#0090D2;stroke-width:2;stroke-linecap:round;stroke-linejoin:round;stroke-miterlimit:10;}
	.st3{fill:none;stroke:#0090D2;stroke-width:2;stroke-linecap:round;stroke-miterlimit:10;}
	.st4{fill:none;stroke:#0090D2;stroke-width:2;stroke-linecap:round;stroke-miterlimit:10.0002;}
	.st5{opacity:0.1;fill:#0090D2;}
</style>
<g id="_x31__PCB_LOADER">
</g>
<g id="_x32__SCREEN_PRINTER">
</g>
<g id="_x33__CONVEYOR_0.5MT">
</g>
<g id="_x34_-5-6_PICK_AND_PLACE_1">
</g>
<g id="_x37__CONVEYOR_1mt">
	<g>
		<path class="st0" d="M228.4,559.4c0,4.8,6.6,8.7,14.7,8.7c8.1,0,14.7-3.9,14.7-8.7v-4.2h-29.4V559.4z"/>
		<ellipse class="st0" cx="243.1" cy="555.2" rx="14.7" ry="8.7"/>
		<path class="st0" d="M239.3,552.8c0,1.2,1.7,2.3,3.8,2.3s3.8-1,3.8-2.3v-12.1h-7.6V553"/>
		<ellipse class="st0" cx="243.1" cy="540.7" rx="3.8" ry="2.3"/>
	</g>
	<g>
		<path class="st0" d="M530.5,390.2c0,4.8,6.6,8.7,14.7,8.7s14.7-3.9,14.7-8.7V386h-29.4V390.2z"/>
		<ellipse class="st0" cx="545.2" cy="386" rx="14.7" ry="8.7"/>
		<path class="st0" d="M541.4,383.6c0,1.2,1.7,2.3,3.8,2.3s3.8-1,3.8-2.3v-12.1h-7.6v12.3"/>
		<ellipse class="st0" cx="545.2" cy="371.5" rx="3.8" ry="2.3"/>
	</g>
	<g>
		<path class="st0" d="M14.2,437.3c0,4.8,6.6,8.7,14.7,8.7s14.7-3.9,14.7-8.7v-4.2H14.2V437.3z"/>
		<ellipse class="st0" cx="28.9" cy="433.1" rx="14.7" ry="8.7"/>
		<path class="st0" d="M25.1,430.7c0,1.2,1.7,2.3,3.8,2.3s3.8-1,3.8-2.3v-12.1h-7.6v12.3"/>
		<ellipse class="st0" cx="28.9" cy="418.6" rx="3.8" ry="2.3"/>
	</g>
	<polygon class="st0" points="561.7,374.4 561.7,194 250,374.5 252.8,554.6 	"/>
	<polygon class="st0" points="534.9,148.5 561.7,194 250,374.5 225.7,328.9 	"/>
	<polygon class="st0" points="353,43.6 405.6,74.2 96.9,254.6 43.7,223.9 	"/>
	<polygon class="st0" points="43.7,223.9 18,268.8 18,418.9 252.8,554.6 250,374.5 225.7,328.9 	"/>
	<line class="st0" x1="250.9" y1="433.9" x2="560.8" y2="254.3"/>
	<line class="st0" x1="277.1" y1="418.6" x2="277.1" y2="539.2"/>
	<line class="st0" x1="536.6" y1="269.1" x2="536.6" y2="389.7"/>
	<g>
		<polygon class="st0" points="256.4,315.3 300.2,289.6 321.8,328.3 278.7,353.4 		"/>
		<path class="st0" d="M299.6,291.7l20.2,36.1l-40.5,23.5l-20.8-35.4L299.6,291.7 M300.8,287.5l-46.4,27.3l23.8,40.6l45.7-26.5
			L300.8,287.5L300.8,287.5z"/>
	</g>
	<g>
		<polygon class="st0" points="263.9,316.8 297.7,296.9 314.4,326.7 281,346 		"/>
		<path class="st0" d="M297,299.7l14.7,26.2l-29.9,17.4l-15.1-25.8L297,299.7 M298.5,294.2l-37.3,21.9l19.2,32.6l36.7-21.3
			L298.5,294.2L298.5,294.2z"/>
	</g>
	<polygon class="st0" points="325.7,451.1 305,463.1 305,432.9 325.7,421 	"/>
	<ellipse class="st0" cx="313.4" cy="443.3" rx="6.4" ry="10.8"/>
	<ellipse class="st0" cx="317.7" cy="442" rx="6.4" ry="10.8"/>
	<polygon class="st0" points="312.2,444.3 315.4,444.3 323.6,437.4 324.2,440.3 316,447.5 313,447.5 	"/>
	<ellipse transform="matrix(0.7908 -0.6121 0.6121 0.7908 -99.582 277.4092)" class="st1" cx="356" cy="284.4" rx="5.8" ry="9.8"/>
	
		<ellipse transform="matrix(0.7908 -0.6121 0.6121 0.7908 -98.747 277.9494)" class="st1" cx="357.2" cy="283.4" rx="4.6" ry="7.7"/>
	<path class="st0" d="M362.6,272.4l-8.3,6.2c-1.5,1.2-1.1,4.1,0.8,6.7c2,2.5,4.7,3.6,6.2,2.5l11.6-2"/>
	<ellipse transform="matrix(0.7908 -0.6121 0.6121 0.7908 -93.9048 283.5237)" class="st1" cx="367.8" cy="279.1" rx="5" ry="8.5"/>
	<polygon class="st0" points="405.6,74.2 405.6,77.9 99.5,255.8 96.9,254.6 	"/>
	<polygon class="st0" points="379.4,119.4 379.4,92.9 99.5,255.8 120.9,268.5 	"/>
	<polygon class="st0" points="379.4,119.4 469.4,171.7 211.5,321 120.9,268.5 	"/>
	<polygon class="st0" points="534.1,119.5 508.3,104.4 508.3,111.7 431.5,67.1 431.5,59.4 353,14.3 340,21.5 340,50.3 353,43.6 
		405.6,74.2 405.6,77.9 379.4,92.9 379.4,119.4 431.1,149.4 431.5,81.7 507.4,123.9 507.4,149.7 520.8,141.7 534.9,148.5 
		548.4,171.4 547.2,138.7 	"/>
	<polygon class="st0" points="548.4,171.4 549.9,170.5 549.9,138.1 536.2,118.3 510,103.4 508.3,104.4 534.1,119.5 547.2,138.7 	"/>
	<polygon class="st0" points="508.3,110 432.9,66.2 433,58 354.9,13.2 353,14.3 431.5,59.4 431.5,67.1 508.3,111.7 	"/>
	<polygon class="st0" points="431.5,81.7 433.1,82.7 433.1,148.3 431.1,149.4 	"/>
	<polygon class="st0" points="190.8,308.9 504.7,122.4 499.7,119.7 185.8,305.9 	"/>
	<line class="st0" x1="195.1" y1="311.2" x2="507.4" y2="123.9"/>
	<line class="st0" x1="203" y1="316" x2="507.4" y2="133.4"/>
	<ellipse class="st0" cx="317.5" cy="242.8" rx="2.7" ry="4.6"/>
	<ellipse class="st0" cx="339.7" cy="229" rx="2.7" ry="4.6"/>
	<line class="st2" x1="429.8" y1="194.4" x2="413.3" y2="183.5"/>
	<polygon class="st0" points="225.7,328.9 211.5,321 520.8,141.7 534.9,148.5 	"/>
	<polygon class="st0" points="337.4,132 337.4,146.3 364.3,132 364.3,116.1 	"/>
	<line class="st2" x1="398.8" y1="174" x2="343" y2="140.5"/>
	<polygon class="st0" points="364.3,116.1 360.6,113.8 332.8,129.5 333.4,143.6 337.4,146.3 337.4,132 	"/>
	<line class="st2" x1="127.9" y1="259" x2="323.1" y2="145.8"/>
	<line class="st2" x1="127.9" y1="269.7" x2="323.1" y2="156.5"/>
	<polygon class="st0" points="146.8,36.5 286.1,128.4 277.6,134.3 271.8,141.6 149.1,60.9 	"/>
	<line class="st3" x1="274.7" y1="138" x2="148.6" y2="55.9"/>
	<polygon class="st0" points="96.5,224.1 120.9,59.1 129.9,64.3 138.9,66.4 117.7,211.7 	"/>
	<path class="st0" d="M142.4,36.5L119,51.8c0,0-4,3.7,1.9,7.3s9,5.2,9,5.2l9,2.2l10.3-4l2.7-9.8V39C152,39,150.6,31.2,142.4,36.5z"
		/>
	<path class="st3" d="M122.5,51.2c0,0-7.1,4.9-1.6,7.9s9,5.2,9,5.2l4.5,1.1l-21,148.9"/>
	
		<ellipse transform="matrix(0.8119 -0.5838 0.5838 0.8119 -105.9684 103.9157)" class="st0" cx="108.3" cy="216.4" rx="12.9" ry="10.8"/>
	<path class="st2" d="M106.7,209.1c0,0-2.1-4.3-7.9,0s-4.6,10.3-8.3,19.9c-2.2,5.9-5.7,10.4-8.1,13.1c-2.8,3.2-4.8,7-5.6,11.2
		c-0.9,5.1,0,10.9,7.9,12.2c14.9,2.3,17.2-8.8,24.1-6.4c6.9,2.3,6.3,5.3,6.3,5.3"/>
	<path class="st0" d="M265.3,135.3c-3.5,10.5,8.2,23.8,25.9,29.7c17.8,5.8,35,2,38.5-8.5l2.8-8.6l-64.4-21.2L265.3,135.3z"/>
	<path class="st2" d="M331.1,152.1c-3.5,10.5-20.7,14.3-38.5,8.5s-29.4-19.1-25.9-29.7c0,0-3.1-6-7,1.3s3.2,2.7,3.2,2.7"/>
	
		<ellipse transform="matrix(0.312 -0.9501 0.9501 0.312 76.2089 379.7804)" class="st0" cx="300.3" cy="137.3" rx="20.1" ry="33.9"/>
	<ellipse transform="matrix(0.312 -0.9501 0.9501 0.312 66.0952 348.3102)" class="st4" cx="273.5" cy="128.5" rx="1.8" ry="3.6"/>
	<ellipse transform="matrix(0.312 -0.9501 0.9501 0.312 71.4153 380.7547)" class="st4" cx="298.6" cy="141.1" rx="1.8" ry="3.6"/>
	<ellipse transform="matrix(0.312 -0.9501 0.9501 0.312 93.7335 402.1158)" class="st4" cx="324.5" cy="136.3" rx="1.8" ry="3.6"/>
	<ellipse transform="matrix(0.312 -0.9501 0.9501 0.312 77.4821 378.627)" class="st4" cx="300.2" cy="135.8" rx="10.7" ry="20.9"/>
</g>
<g id="_x38__REFLOW_OVEN">
</g>
<g id="_x39__CONVEYOR_0.5MT">
</g>
<g id="_x31_0_PCB_UNLOADER">
</g>
<path class="st5" d="M561.7,194l-26.8-45.5l13.5,22.9l1.5-0.9v-32.4l-13.7-19.8L510,103.4l-1.7,1v5.6l-75.4-43.8L433,58l-78.1-44.8
	l-1.9,1.1l-13,7.2v28.8l13-6.7l-103.8,60.5l-97.3-64.2V39c0.1,0-1.3-7.8-9.5-2.5L119,51.8c0,0-3.5,3.3,0.9,6.6
	c0.3,0.2,0.6,0.5,1,0.7l-19.4,131.1l-57.8,33.7L18,268.8v150.1l7.1,4.1v1.7c-6.3,1-10.9,4.4-10.9,8.4l0,0v4.2
	c0,4.8,6.6,8.7,14.7,8.7c8.1,0,14.7-3.9,14.7-8.7v-3.6l195.7,113.1v0c-6.3,1-10.9,4.4-10.9,8.4v4.2c0,4.8,6.6,8.7,14.7,8.7
	c8.1,0,14.7-3.9,14.7-8.7v-4.2c0,0,0,0,0,0c0-1.1-0.3-2.1-0.9-3L531,392.3c1.6,3.8,7.4,6.6,14.2,6.6c8.1,0,14.7-3.9,14.7-8.7V386
	c0-2.9-2.4-5.4-6-7l7.8-4.6V194z M431.5,81.7l75.9,42.2v25.6l-38.2,22.1l-23.9-13.9l59.4-35.3l-5-2.7l-59.3,35.2l-61-35.5l51.7,30
	l2-1.1V82.7L431.5,81.7z M105,259.1l12.1,7.2l-12.4-7.1C104.9,259.1,105,259.1,105,259.1z M149.2,62.5l0.4-1.3l81.4,53.5
	l-108.3,63.1l16.3-111.4l0,0L149.2,62.5z"/>
<g id="_x31_0_PCB_UNLOADER_00000109025220873228804540000018106877012479310495_">
</g>
</svg>
