<?xml version="1.0" encoding="utf-8"?>
<!-- Generator: Adobe Illustrator 27.4.0, SVG Export Plug-In . SVG Version: 6.00 Build 0)  -->
<svg version="1.1" id="Livello_1" xmlns="http://www.w3.org/2000/svg" xmlns:xlink="http://www.w3.org/1999/xlink" x="0px" y="0px"
	 viewBox="0 0 1264.4 986.6" style="enable-background:new 0 0 1264.4 986.6;" xml:space="preserve">
<style type="text/css">
	.st0{fill:none;stroke:#0090D2;stroke-width:2;stroke-miterlimit:10;}
	.st1{fill:none;stroke:#0090D2;stroke-width:2;stroke-linecap:round;stroke-miterlimit:10;}
	.st2{opacity:0.1;fill:#0090D2;}
</style>
<g id="_x31__PCB_LOADER">
</g>
<g id="_x32__SCREEN_PRINTER">
</g>
<g id="_x33__CONVEYOR_0.5MT">
</g>
<g id="_x34_-5-6_PICK_AND_PLACE_1">
</g>
<g id="_x37__CONVEYOR_1mt">
</g>
<g id="_x38__REFLOW_OVEN">
	<g>
		<path class="st0" d="M248.3,970.2c0,4.8,6.6,8.7,14.7,8.7c8.1,0,14.7-3.9,14.7-8.7V966h-29.4L248.3,970.2L248.3,970.2z"/>
		<ellipse class="st0" cx="263" cy="966" rx="14.7" ry="8.7"/>
		<path class="st0" d="M259.2,963.6c0,1.2,1.7,2.3,3.8,2.3c2.1,0,3.8-1,3.8-2.3v-12.1h-7.6v12.3"/>
		<ellipse class="st0" cx="263" cy="951.5" rx="3.8" ry="2.3"/>
	</g>
	<g>
		<path class="st0" d="M1067.9,503.8c0,4.8,6.6,8.7,14.7,8.7s14.7-3.9,14.7-8.7v-4.2h-29.4L1067.9,503.8L1067.9,503.8z"/>
		<ellipse class="st0" cx="1082.7" cy="499.5" rx="14.7" ry="8.7"/>
		<path class="st0" d="M1078.8,497.1c0,1.2,1.7,2.3,3.8,2.3c2.1,0,3.8-1,3.8-2.3V485h-7.6v12.3"/>
		<ellipse class="st0" cx="1082.7" cy="485" rx="3.8" ry="2.3"/>
	</g>
	<g>
		<path class="st0" d="M29.1,841.6c0,4.8,6.6,8.7,14.7,8.7s14.7-3.9,14.7-8.7v-4.2H29.1V841.6z"/>
		<ellipse class="st0" cx="43.8" cy="837.4" rx="14.7" ry="8.7"/>
		<path class="st0" d="M40,835c0,1.2,1.7,2.3,3.8,2.3s3.8-1,3.8-2.3v-12.1H40v12.3"/>
		<ellipse class="st0" cx="43.8" cy="822.8" rx="3.8" ry="2.3"/>
	</g>
	<polygon class="st0" points="95.8,563.3 95.8,455.5 157.5,419.9 320.9,514.4 366.4,614.5 366.2,720.2 	"/>
	<polyline class="st0" points="198.7,787.7 289,839.8 289.5,765.4 237,735.1 198.7,712.7 	"/>
	<polyline class="st0" points="198.7,787.7 289,839.8 288.7,884.9 270.5,874 270.5,964.1 265.1,959.8 30.3,824.1 30.3,736.1 
		29.9,735.1 16.8,727.4 16.8,682.7 109.1,736 	"/>
	<polygon class="st0" points="16.8,607.2 95.8,563.3 184.3,614.7 107.1,659.6 	"/>
	<polygon class="st0" points="198.7,712.7 277.7,668.8 366.2,720.2 289,765.1 	"/>
	<polygon class="st0" points="898.6,92.8 977.7,49 1066.2,100.3 988.9,145.2 	"/>
	<polygon class="st0" points="1087.4,195.6 1159.6,154.5 1248,205.8 1087.4,298.8 	"/>
	<polyline class="st0" points="277.7,668.8 252.2,594.2 158.5,539.4 184.3,614.7 	"/>
	<polygon class="st0" points="149.5,551.7 158.5,539.4 252.2,594.2 245.2,607.2 	"/>
	<polygon class="st0" points="289,839.8 366.4,795.1 366.2,720.2 289,765.1 	"/>
	<polygon class="st0" points="288.7,884.9 1137.4,390.6 1136.8,360.2 1095,384.7 1095,371 715.9,594.3 724.9,600.5 296.7,850.3 
		289,846.9 	"/>
	<polyline class="st0" points="1040.7,95 1087.4,195.6 366.4,614.5 320.9,514.4 1040.7,95 	"/>
	<polygon class="st0" points="1040.7,95 877,0 157.5,419.9 320.9,514.4 	"/>
	<polygon class="st0" points="366.4,795.1 1087.4,368 1087.4,195.6 366.4,614.5 	"/>
	<polygon class="st0" points="1087.4,368 1095,371 715.9,594.3 724.9,600.5 296.7,850.3 289,846.9 289,839.8 	"/>
	<polygon class="st0" points="1087.4,368 1095,371 1095,384.7 1245.7,296.5 1248,205.8 1087.4,298.8 	"/>
	<polygon class="st0" points="1066.2,100.3 1159.6,154.5 1087.4,195.6 1048.1,110.9 	"/>
	<polygon class="st0" points="270.5,964.1 1095,485.4 1095,414.4 288.7,884.9 270.5,874 	"/>
	<polygon class="st0" points="16.8,607.2 16.8,682.7 105.8,734.1 107.1,659.6 	"/>
	<polygon class="st0" points="107.1,659.6 184.3,614.7 184.3,625.6 234.1,655.4 105.8,734.1 	"/>
	<polygon class="st0" points="184.3,625.6 266.7,674.9 277.7,668.8 184.3,614.7 	"/>
	<polygon class="st0" points="266.7,674.9 234.1,655.4 105.8,734.1 198.7,787.7 198.7,712.7 	"/>
	<polygon class="st0" points="146.1,757.4 146.1,736.7 149.5,739 149.5,759.3 	"/>
	<polygon class="st0" points="256.6,668.8 146.1,736.7 149.5,739 260.3,671.1 	"/>
	<polygon class="st0" points="149.5,759.3 198.7,730.4 198.7,712.7 266.7,674.9 260.3,671.1 149.5,739 	"/>
	<line class="st0" x1="149.5" y1="744.7" x2="198.7" y2="717"/>
	<polyline class="st0" points="516.7,210.3 680.8,304.8 730.3,403.1 730.3,579 	"/>
	<polygon class="st0" points="366.4,741.4 372.6,806 435.4,769.4 427.3,717 	"/>
	<polygon class="st0" points="314.6,689.2 320.9,813.6 474.9,723.8 474.9,595.8 	"/>
	<polygon class="st0" points="319.8,693.3 325.5,801.8 469.9,719.2 469.9,607.5 	"/>
	<polygon class="st0" points="327.7,832.2 479.7,743.5 516.7,795.1 366.2,881.9 	"/>
	<path class="st0" d="M327.7,832.2L327.7,832.2l152.1-88.7l0,0c0-4.2-4.5-6.8-8.2-4.7l-135.8,79.3
		C330.8,821,327.7,826.4,327.7,832.2z"/>
	<path class="st0" d="M366.2,881.9v-0.7c0-6.3,3.4-12.1,8.9-15.2l133-75.8c3.9-2.2,8.7,0.6,8.7,5l0,0L366.2,881.9z"/>
	<polygon class="st0" points="377,864.8 346,826.4 453.3,763.2 482.3,804.8 	"/>
	<g>
		<g>
			<polygon class="st0" points="352.4,827.6 360.7,822.9 363.5,826.7 355.4,831.1 			"/>
			<polygon class="st0" points="355.2,827.9 355.8,828.7 357.2,827.9 356.2,827 			"/>
		</g>
		<g>
			<polygon class="st0" points="361.6,822.1 369.9,817.4 372.7,821.2 364.6,825.7 			"/>
			<polygon class="st0" points="364.4,822.5 365,823.3 366.4,822.5 365.4,821.5 			"/>
		</g>
		<g>
			<polygon class="st0" points="370.8,816.6 379.1,811.9 381.9,815.8 373.8,820.2 			"/>
			<polygon class="st0" points="373.7,817 374.2,817.8 375.6,817 374.6,816.1 			"/>
		</g>
		<g>
			<polygon class="st0" points="380,811.2 388.3,806.5 391.1,810.3 383,814.7 			"/>
			<polygon class="st0" points="382.9,811.5 383.4,812.3 384.8,811.5 383.8,810.6 			"/>
		</g>
		<g>
			<polygon class="st0" points="389.2,805.7 397.5,801 400.3,804.8 392.2,809.3 			"/>
			<polygon class="st0" points="392.1,806.1 392.6,806.9 394,806.1 393.1,805.1 			"/>
		</g>
		<g>
			<polygon class="st0" points="398.4,800.2 406.7,795.5 409.5,799.4 401.4,803.8 			"/>
			<polygon class="st0" points="401.3,800.6 401.9,801.4 403.2,800.6 402.3,799.7 			"/>
		</g>
		<g>
			<polygon class="st0" points="407.6,794.8 415.9,790.1 418.7,793.9 410.6,798.4 			"/>
			<polygon class="st0" points="410.5,795.1 411.1,795.9 412.4,795.1 411.5,794.2 			"/>
		</g>
		<g>
			<polygon class="st0" points="416.8,789.3 425.1,784.6 427.9,788.4 419.8,792.9 			"/>
			<polygon class="st0" points="419.7,789.7 420.3,790.5 421.7,789.7 420.7,788.8 			"/>
		</g>
		<g>
			<polygon class="st0" points="426,783.8 434.3,779.2 437.2,783 429,787.4 			"/>
			<polygon class="st0" points="428.9,784.2 429.5,785 430.9,784.2 429.9,783.3 			"/>
		</g>
		<g>
			<polygon class="st0" points="435.2,778.4 443.5,773.7 446.4,777.5 438.2,782 			"/>
			<polygon class="st0" points="438.1,778.7 438.7,779.5 440.1,778.7 439.1,777.8 			"/>
		</g>
		<g>
			<polygon class="st0" points="444.4,772.9 452.7,768.2 455.6,772 447.4,776.5 			"/>
			<polygon class="st0" points="447.3,773.3 447.9,774.1 449.3,773.3 448.3,772.4 			"/>
		</g>
	</g>
	<g>
		<g>
			<polygon class="st0" points="356.5,833 364.8,828.3 367.6,832.1 359.5,836.6 			"/>
			<polygon class="st0" points="359.4,833.4 359.9,834.2 361.3,833.4 360.3,832.5 			"/>
		</g>
		<g>
			<polygon class="st0" points="365.7,827.6 374,822.9 376.8,826.7 368.7,831.1 			"/>
			<polygon class="st0" points="368.6,827.9 369.1,828.7 370.5,827.9 369.5,827 			"/>
		</g>
		<g>
			<polygon class="st0" points="374.9,822.1 383.2,817.4 386,821.2 377.9,825.7 			"/>
			<polygon class="st0" points="377.8,822.5 378.3,823.3 379.7,822.5 378.7,821.5 			"/>
		</g>
		<g>
			<polygon class="st0" points="384.1,816.6 392.4,811.9 395.2,815.8 387.1,820.2 			"/>
			<polygon class="st0" points="387,817 387.6,817.8 388.9,817 388,816.1 			"/>
		</g>
		<g>
			<polygon class="st0" points="393.3,811.2 401.6,806.5 404.4,810.3 396.3,814.7 			"/>
			<polygon class="st0" points="396.2,811.5 396.8,812.3 398.1,811.5 397.2,810.6 			"/>
		</g>
		<g>
			<polygon class="st0" points="402.5,805.7 410.8,801 413.6,804.8 405.5,809.3 			"/>
			<polygon class="st0" points="405.4,806.1 406,806.9 407.4,806.1 406.4,805.1 			"/>
		</g>
		<g>
			<polygon class="st0" points="411.7,800.2 420,795.5 422.8,799.4 414.7,803.8 			"/>
			<polygon class="st0" points="414.6,800.6 415.2,801.4 416.6,800.6 415.6,799.7 			"/>
		</g>
		<g>
			<polygon class="st0" points="420.9,794.8 429.2,790.1 432.1,793.9 423.9,798.4 			"/>
			<polygon class="st0" points="423.8,795.1 424.4,795.9 425.8,795.1 424.8,794.2 			"/>
		</g>
		<g>
			<polygon class="st0" points="430.1,789.3 438.4,784.6 441.3,788.4 433.1,792.9 			"/>
			<polygon class="st0" points="433,789.7 433.6,790.5 435,789.7 434,788.8 			"/>
		</g>
		<g>
			<polygon class="st0" points="439.3,783.8 447.6,779.2 450.5,783 442.3,787.4 			"/>
			<polygon class="st0" points="442.2,784.2 442.8,785 444.2,784.2 443.2,783.3 			"/>
		</g>
		<g>
			<polygon class="st0" points="448.5,778.4 456.8,773.7 459.7,777.5 451.5,782 			"/>
			<polygon class="st0" points="451.4,778.7 452,779.5 453.4,778.7 452.4,777.8 			"/>
		</g>
	</g>
	<g>
		<g>
			<polygon class="st0" points="360.6,838.5 368.9,833.8 371.7,837.6 363.6,842.1 			"/>
			<polygon class="st0" points="363.5,838.9 364,839.7 365.4,838.9 364.4,837.9 			"/>
		</g>
		<g>
			<polygon class="st0" points="369.8,833 378.1,828.3 380.9,832.1 372.8,836.6 			"/>
			<polygon class="st0" points="372.7,833.4 373.2,834.2 374.6,833.4 373.6,832.5 			"/>
		</g>
		<g>
			<polygon class="st0" points="379,827.6 387.3,822.9 390.1,826.7 382,831.1 			"/>
			<polygon class="st0" points="381.9,827.9 382.5,828.7 383.8,827.9 382.9,827 			"/>
		</g>
		<g>
			<polygon class="st0" points="388.2,822.1 396.5,817.4 399.3,821.2 391.2,825.7 			"/>
			<polygon class="st0" points="391.1,822.5 391.7,823.3 393,822.5 392.1,821.5 			"/>
		</g>
		<g>
			<polygon class="st0" points="397.4,816.6 405.7,811.9 408.5,815.8 400.4,820.2 			"/>
			<polygon class="st0" points="400.3,817 400.9,817.8 402.3,817 401.3,816.1 			"/>
		</g>
		<g>
			<polygon class="st0" points="406.6,811.2 414.9,806.5 417.8,810.3 409.6,814.7 			"/>
			<polygon class="st0" points="409.5,811.5 410.1,812.3 411.5,811.5 410.5,810.6 			"/>
		</g>
		<g>
			<polygon class="st0" points="415.8,805.7 424.1,801 427,804.8 418.8,809.3 			"/>
			<polygon class="st0" points="418.7,806.1 419.3,806.9 420.7,806.1 419.7,805.1 			"/>
		</g>
		<g>
			<polygon class="st0" points="425,800.2 433.3,795.5 436.2,799.4 428,803.8 			"/>
			<polygon class="st0" points="427.9,800.6 428.5,801.4 429.9,800.6 428.9,799.7 			"/>
		</g>
		<g>
			<polygon class="st0" points="434.2,794.8 442.5,790.1 445.4,793.9 437.2,798.4 			"/>
			<polygon class="st0" points="437.1,795.1 437.7,795.9 439.1,795.1 438.1,794.2 			"/>
		</g>
		<g>
			<polygon class="st0" points="443.4,789.3 451.7,784.6 454.6,788.4 446.4,792.9 			"/>
			<polygon class="st0" points="446.3,789.7 446.9,790.5 448.3,789.7 447.3,788.8 			"/>
		</g>
		<g>
			<polygon class="st0" points="452.7,783.8 460.9,779.2 467.9,788.4 459.8,792.9 			"/>
			<polygon class="st0" points="455.5,784.2 456.1,785 457.5,784.2 456.5,783.3 			"/>
		</g>
	</g>
	<g>
		<g>
			<polygon class="st0" points="364.7,844 373,839.3 375.8,843.1 367.7,847.5 			"/>
			<polygon class="st0" points="367.6,844.3 368.1,845.1 369.5,844.3 368.6,843.4 			"/>
		</g>
		<g>
			<polygon class="st0" points="373.9,838.5 382.2,833.8 385,837.6 376.9,842.1 			"/>
			<polygon class="st0" points="376.8,838.9 377.4,839.7 378.7,838.9 377.8,837.9 			"/>
		</g>
		<g>
			<polygon class="st0" points="383.1,833 391.4,828.3 394.2,832.1 386.1,836.6 			"/>
			<polygon class="st0" points="386,833.4 386.6,834.2 387.9,833.4 387,832.5 			"/>
		</g>
		<g>
			<polygon class="st0" points="392.3,827.6 400.6,822.9 403.4,826.7 395.3,831.1 			"/>
			<polygon class="st0" points="395.2,827.9 395.8,828.7 397.2,827.9 396.2,827 			"/>
		</g>
		<g>
			<polygon class="st0" points="401.5,822.1 409.8,817.4 412.7,821.2 404.5,825.7 			"/>
			<polygon class="st0" points="404.4,822.5 405,823.3 406.4,822.5 405.4,821.5 			"/>
		</g>
		<g>
			<polygon class="st0" points="410.7,816.6 419,811.9 421.9,815.8 413.7,820.2 			"/>
			<polygon class="st0" points="413.6,817 414.2,817.8 415.6,817 414.6,816.1 			"/>
		</g>
		<g>
			<polygon class="st0" points="419.9,811.2 428.2,806.5 431.1,810.3 422.9,814.7 			"/>
			<polygon class="st0" points="422.8,811.5 423.4,812.3 424.8,811.5 423.8,810.6 			"/>
		</g>
		<g>
			<polygon class="st0" points="429.1,805.7 437.4,801 440.3,804.8 432.1,809.3 			"/>
			<polygon class="st0" points="432,806.1 432.6,806.9 434,806.1 433,805.1 			"/>
		</g>
		<g>
			<polygon class="st0" points="438.3,800.2 446.6,795.5 449.5,799.4 441.3,803.8 			"/>
			<polygon class="st0" points="441.2,800.6 441.8,801.4 443.2,800.6 442.2,799.7 			"/>
		</g>
		<g>
			<polygon class="st0" points="447.6,794.8 455.8,790.1 458.7,793.9 450.6,798.4 			"/>
			<polygon class="st0" points="450.4,795.1 451,795.9 452.4,795.1 451.4,794.2 			"/>
		</g>
	</g>
	<g>
		<g>
			<polygon class="st0" points="368.8,849.4 377.1,844.7 379.9,848.5 371.8,853 			"/>
			<polygon class="st0" points="371.7,849.8 372.3,850.6 373.6,849.8 372.7,848.9 			"/>
		</g>
		<g>
			<polygon class="st0" points="378,844 386.3,839.3 389.1,843.1 381,847.5 			"/>
			<polygon class="st0" points="380.9,844.3 381.5,845.1 382.9,844.3 381.9,843.4 			"/>
		</g>
		<g>
			<polygon class="st0" points="387.2,838.5 395.5,833.8 398.3,837.6 390.2,842.1 			"/>
			<polygon class="st0" points="390.1,838.9 390.7,839.7 392.1,838.9 391.1,837.9 			"/>
		</g>
		<g>
			<polygon class="st0" points="396.4,833 404.7,828.3 407.6,832.1 399.4,836.6 			"/>
			<polygon class="st0" points="399.3,833.4 399.9,834.2 401.3,833.4 400.3,832.5 			"/>
		</g>
		<g>
			<polygon class="st0" points="405.6,827.6 413.9,822.9 416.8,826.7 408.6,831.1 			"/>
			<polygon class="st0" points="408.5,827.9 409.1,828.7 410.5,827.9 409.5,827 			"/>
		</g>
		<g>
			<polygon class="st0" points="414.8,822.1 423.1,817.4 426,821.2 417.8,825.7 			"/>
			<polygon class="st0" points="417.7,822.5 418.3,823.3 419.7,822.5 418.7,821.5 			"/>
		</g>
		<g>
			<polygon class="st0" points="424,816.6 432.3,811.9 435.2,815.8 427,820.2 			"/>
			<polygon class="st0" points="426.9,817 427.5,817.8 428.9,817 427.9,816.1 			"/>
		</g>
		<g>
			<polygon class="st0" points="433.3,811.2 441.5,806.5 444.4,810.3 436.3,814.7 			"/>
			<polygon class="st0" points="436.1,811.5 436.7,812.3 438.1,811.5 437.1,810.6 			"/>
		</g>
		<g>
			<polygon class="st0" points="442.5,805.7 450.7,801 453.6,804.8 445.5,809.3 			"/>
			<polygon class="st0" points="445.3,806.1 445.9,806.9 447.3,806.1 446.3,805.1 			"/>
		</g>
		<g>
			<polygon class="st0" points="451.7,800.2 459.9,795.5 462.8,799.4 454.7,803.8 			"/>
			<polygon class="st0" points="454.5,800.6 455.1,801.4 456.5,800.6 455.5,799.7 			"/>
		</g>
		<g>
			<polygon class="st0" points="460.9,794.8 469.1,790.1 472,793.9 463.9,798.4 			"/>
			<polygon class="st0" points="463.7,795.1 464.3,795.9 465.7,795.1 464.7,794.2 			"/>
		</g>
	</g>
	<g>
		<g>
			<polygon class="st0" points="372.9,854.9 381.2,850.2 384,854 375.9,858.5 			"/>
			<polygon class="st0" points="375.8,855.3 376.4,856.1 377.8,855.3 376.8,854.3 			"/>
		</g>
		<g>
			<polygon class="st0" points="382.1,849.4 390.4,844.7 393.2,848.5 385.1,853 			"/>
			<polygon class="st0" points="385,849.8 385.6,850.6 387,849.8 386,848.9 			"/>
		</g>
		<g>
			<polygon class="st0" points="391.3,844 399.6,839.3 402.5,843.1 394.3,847.5 			"/>
			<polygon class="st0" points="394.2,844.3 394.8,845.1 396.2,844.3 395.2,843.4 			"/>
		</g>
		<g>
			<polygon class="st0" points="400.5,838.5 408.8,833.8 411.7,837.6 403.5,842.1 			"/>
			<polygon class="st0" points="403.4,838.9 404,839.7 405.4,838.9 404.4,837.9 			"/>
		</g>
		<g>
			<polygon class="st0" points="409.7,833 435.9,817.4 438.8,821.2 412.7,836.6 			"/>
			<polygon class="st0" points="412.6,833.4 413.2,834.2 414.6,833.4 413.6,832.5 			"/>
		</g>
		<g>
			<polygon class="st0" points="437.4,816.6 445.6,811.9 448.5,815.8 440.4,820.2 			"/>
			<polygon class="st0" points="440.2,817 440.8,817.8 442.2,817 441.2,816.1 			"/>
		</g>
		<g>
			<polygon class="st0" points="446.6,811.2 454.8,806.5 457.7,810.3 449.6,814.7 			"/>
			<polygon class="st0" points="449.4,811.5 450,812.3 451.4,811.5 450.4,810.6 			"/>
		</g>
		<g>
			<polygon class="st0" points="455.8,805.7 464,801 466.9,804.8 458.8,809.3 			"/>
			<polygon class="st0" points="458.6,806.1 459.2,806.9 460.6,806.1 459.6,805.1 			"/>
		</g>
		<g>
			<polygon class="st0" points="465,800.2 473.2,795.5 476.1,799.4 468,803.8 			"/>
			<polygon class="st0" points="467.8,800.6 468.4,801.4 469.8,800.6 468.8,799.7 			"/>
		</g>
	</g>
	<path class="st1" d="M444.4,754.7c0,0,3.3-12.4,8.2-10.7c5,1.7,9.3,3.1,11.1,10.7c1.8,7.6,13.2,22.6,13.8,23.1"/>
	<path class="st0" d="M481,775.6c0,0-8.5,0.5-7.5,6.3s11.6,21.2,11.6,21.2l15.6-8.9c0,0-8.5-12.6-10.2-14.2
		C488.8,778.4,484.3,774.9,481,775.6z"/>
	<path class="st0" d="M477.5,778.7c0,0,4.7,0.4,6.4,3.3c1.8,2.9,3.2,6.2,3.2,6.2l1.5-0.8l-3.4-7.4c0,0-1.6-2.9-6.1-3.5"/>
	<polygon class="st0" points="625.2,922.7 632.4,918.5 632.4,907.9 625.2,913 	"/>
	<polygon class="st0" points="786.4,705.2 786.4,775.5 735.2,745.5 735.2,756 830.9,810.2 830.9,800.5 796.2,780.3 796.2,711.5 	"/>
	<polygon class="st0" points="741.7,741.7 735.2,745.5 786.4,775.5 786.4,765.7 	"/>
	<polygon class="st0" points="830.9,810.2 838.1,805.9 838.1,795.3 830.9,800.5 	"/>
	<polygon class="st0" points="796.2,711.5 796.2,780.3 803.2,775.5 801.9,714.2 	"/>
	<polygon class="st0" points="838.1,795.3 803.2,775.5 796.2,780.3 830.9,800.5 	"/>
	<polygon class="st0" points="580.7,818.2 580.7,888.5 529.5,858.5 529.5,868.9 625.2,923.1 625.2,913.5 590.4,893.3 590.4,824.5 	
		"/>
	<polygon class="st0" points="535.9,854.7 529.5,858.5 580.7,888.5 580.7,878.6 	"/>
	<polygon class="st0" points="590.4,824.5 590.4,893.3 597.5,888.5 596.2,827.2 	"/>
	<polygon class="st0" points="632.4,908.3 597.5,888.5 590.4,893.3 625.2,913.5 	"/>
	<polygon class="st0" points="898.4,730.2 735.1,635.4 509.9,766.8 673.3,861.3 	"/>
	<polygon class="st0" points="673.2,871.7 509.9,778.7 509.9,766.8 673.3,861.3 	"/>
	<polygon class="st0" points="898.4,730.2 673.3,861.3 673.2,871.7 898.4,740.3 	"/>
	<polygon class="st0" points="571.9,766.4 610.1,746.2 668.9,780 626.4,801.2 	"/>
	<polygon class="st0" points="568.9,747.9 611.6,741.4 619.3,790 576.2,795.6 	"/>
	<path class="st0" d="M690.7,810.6v-16.4c0,0,2.6-11.8,6.1-13.9s28.2-15.2,28.2-15.2l13.3,3.1L710,784.6c0,0-5.3,7.6-3.8,11.3
		s1.5,21,1.5,21L690.7,810.6z"/>
	<path class="st0" d="M740,794.2l-1.6-26L710,784.6c0,0-4.8,5.1-3.8,11.3c1,6.3,1.5,21,1.5,21L740,794.2z"/>
	<polygon class="st0" points="778.1,750.1 778.1,694.2 723.1,661.9 723.1,718.1 	"/>
	<polygon class="st0" points="830,720.4 830,663.5 778.1,694.2 778.1,750.1 	"/>
	<polygon class="st0" points="723.1,661.9 773,631.9 830,663.5 778.1,694.2 	"/>
	<polygon class="st0" points="802.1,720 813.1,714.4 813.1,673.5 799.7,681.5 	"/>
	<polygon class="st0" points="787.9,659.9 813.1,673.5 799.7,681.5 776.8,670.1 	"/>
	<polygon class="st0" points="690.2,771.5 690.2,715.7 635.1,683.3 635.1,739.5 	"/>
	<polygon class="st0" points="742.1,741.8 742.1,684.9 690.2,715.7 690.2,771.5 	"/>
	<polygon class="st0" points="635.1,683.3 685,653.3 742.1,684.9 690.2,715.7 	"/>
	<polygon class="st0" points="714.1,741.4 725.1,735.8 725.1,695 711.7,702.9 	"/>
	<polygon class="st0" points="700,681.3 725.1,695 711.7,702.9 688.9,691.5 	"/>
</g>
<g id="_x39__CONVEYOR_0.5MT">
</g>
<g id="_x31_0_PCB_UNLOADER">
</g>
<path class="st2" d="M1248,205.8l-88.4-51.3l-93.4-54.2l-18.1,10.6l39.3,84.7l-39.3-84.8l18.1-10.5L977.7,49l-8.3,4.6L877,0
	L157.5,419.9l-61.7,35.6v107.8l88.5,51.3l0,0.1l-88.5-51.4l-79,43.9v75.5v44.7l13.1,7.7l0.4,1v88l8.8,5.1c-5.8,1.2-10,4.4-10,8.2
	l0,0v4.2c0,4.8,6.6,8.7,14.7,8.7c8.1,0,14.7-3.9,14.7-8.7v-1.2l200.7,116v1.2c-6.3,1-10.9,4.4-10.9,8.4c0,0,0,0,0,0v4.2h0
	c0,4.8,6.6,8.7,14.7,8.7s14.7-3.9,14.7-8.7V966c0-1.7-0.9-3.4-2.4-4.7l274.9-159.6l30.5,17.3v59.6l-44.8-23.9l-6.4,3.8v10.4
	l95.7,54.2v-0.4l7.2-4.2v-10.6l-0.3,0.2l-34.6-19.6l-1.3-60.6l77,43.8l131.2-76.5l26.5,15l7.2-4.3v-10.6l-17.2-9.8l77.5-45.2v-10.1
	L830,690.5v-27l-21.4-11.8l259.3-150.5v2.7h0c0,4.8,6.6,8.7,14.7,8.7s14.7-3.9,14.7-8.7v-3.3c0.1-0.3,0.1-0.7,0.1-1
	c0-4-4.7-7.4-11-8.4v-0.7l8.6-5v-70.1l42.4-24.7l-0.6-30.4l108.9-63.7L1248,205.8z M198.7,712.7l68-37.8l-7.6-4.5l0,0l7.6,4.6
	l11-6.1l0,0L198.7,712.7l90.3,52.4v0l-52-30L198.7,712.7z M366.4,659L366.4,659v-44.5V659z M366.4,787.1L366.4,787.1l0,7l0,0
	L366.4,787.1z M256.6,668.8L256.6,668.8l-22.5-13.4l-49.8-29.8L256.6,668.8z M289,839.8v7.1l-0.3,38L289,839.8z"/>
<g id="_x31_0_PCB_UNLOADER_00000026161169694309873400000005942173414159263905_">
</g>
</svg>
