<?xml version="1.0" encoding="utf-8"?>
<!-- Generator: Adobe Illustrator 27.4.0, SVG Export Plug-In . SVG Version: 6.00 Build 0)  -->
<svg version="1.1" id="Livello_1" xmlns="http://www.w3.org/2000/svg" xmlns:xlink="http://www.w3.org/1999/xlink" x="0px" y="0px"
	 viewBox="0 0 460.4 477.7" style="enable-background:new 0 0 460.4 477.7;" xml:space="preserve">
<style type="text/css">
	.st0{fill:none;stroke:#0090D2;stroke-width:2;stroke-miterlimit:10;}
	.st1{fill:none;stroke:#0090D2;stroke-width:2;stroke-linecap:round;stroke-linejoin:round;stroke-miterlimit:10;}
	.st2{opacity:0.1;fill:#0090D2;}
</style>
<g id="_x31__PCB_LOADER">
</g>
<g id="_x32__SCREEN_PRINTER">
</g>
<g id="_x33__CONVEYOR_0.5MT">
</g>
<g id="_x34_-5-6_PICK_AND_PLACE_1">
</g>
<g id="_x37__CONVEYOR_1mt">
</g>
<g id="_x38__REFLOW_OVEN">
</g>
<g id="_x39__CONVEYOR_0.5MT">
	<g>
		<path class="st0" d="M242.1,457.4c0,4.8,6.6,8.7,14.7,8.7s14.7-3.9,14.7-8.7v-4.2h-29.4L242.1,457.4L242.1,457.4z"/>
		<ellipse class="st0" cx="256.8" cy="453.2" rx="14.7" ry="8.7"/>
		<path class="st0" d="M253,450.8c0,1.2,1.7,2.3,3.8,2.3c2.1,0,3.8-1,3.8-2.3v-12.1H253V451"/>
		<ellipse class="st0" cx="256.8" cy="438.7" rx="3.8" ry="2.3"/>
	</g>
	<g>
		<path class="st0" d="M26.1,331.5c0,4.8,6.6,8.7,14.7,8.7s14.7-3.9,14.7-8.7v-4.2H26.1V331.5z"/>
		<ellipse class="st0" cx="40.8" cy="327.3" rx="14.7" ry="8.7"/>
		<path class="st0" d="M37,324.9c0,1.2,1.7,2.3,3.8,2.3s3.8-1,3.8-2.3v-12.1H37V325"/>
		<ellipse class="st0" cx="40.8" cy="312.8" rx="3.8" ry="2.3"/>
	</g>
	<g>
		<path class="st0" d="M414.5,356.9c0,4.8,6.6,8.7,14.7,8.7s14.7-3.9,14.7-8.7v-4.2h-29.4L414.5,356.9L414.5,356.9z"/>
		<ellipse class="st0" cx="429.3" cy="352.6" rx="14.7" ry="8.7"/>
		<path class="st0" d="M425.4,350.2c0,1.2,1.7,2.3,3.8,2.3c2.1,0,3.8-1,3.8-2.3v-12.1h-7.6v12.3"/>
		<ellipse class="st0" cx="429.3" cy="338.1" rx="3.8" ry="2.3"/>
	</g>
	<polygon class="st0" points="441.7,342.7 441.7,162.2 260.5,267.4 263.3,447.5 	"/>
	<polygon class="st0" points="414.9,116.8 441.7,162.2 260.5,267.4 236.2,221.8 	"/>
	<polygon class="st0" points="233.1,11.8 414.9,116.8 236.2,221.8 54.3,116.8 	"/>
	<polygon class="st0" points="54.3,116.8 28.5,161.6 28.5,311.8 263.3,447.5 260.5,267.4 236.2,221.8 	"/>
	<line class="st0" x1="261.4" y1="326.8" x2="440.8" y2="222.5"/>
	<line class="st0" x1="287.6" y1="311.5" x2="287.6" y2="432.1"/>
	<line class="st0" x1="416.7" y1="237.3" x2="416.7" y2="357.9"/>
	<g>
		<polygon class="st0" points="266.9,208.2 310.7,182.5 332.4,221.2 289.3,246.2 		"/>
		<path class="st0" d="M310.2,184.6l20.2,36.1l-40.5,23.5L269,208.8L310.2,184.6 M311.3,180.4l-46.4,27.3l23.8,40.6l45.7-26.5
			L311.3,180.4L311.3,180.4z"/>
	</g>
	<g>
		<polygon class="st0" points="274.4,209.7 308.3,189.8 324.9,219.6 291.6,238.9 		"/>
		<path class="st0" d="M307.5,192.6l14.7,26.2l-29.9,17.4l-15.1-25.8L307.5,192.6 M309,187.1L271.7,209l19.2,32.6l36.7-21.3
			L309,187.1L309,187.1z"/>
	</g>
	<path class="st0" d="M366.1,103.6l-89.6-51.7c-2.2-1.3-4.9-1.3-7.2,0l-138.5,80.8c-4.7,2.7-4.7,9.5,0,12.3l88.7,52.2
		c2.2,1.3,5,1.3,7.2,0l139.4-81.3C370.9,113.2,370.8,106.3,366.1,103.6z"/>
	<path class="st0" d="M117.8,105.8l12.3,7.3c1.2,0.7,2.8,0.7,4,0l91.3-52c2.7-1.6,2.7-5.5-0.1-7l-13.6-7.3c-1.2-0.7-2.7-0.6-3.9,0.1
		l-89.9,52C115.1,100.4,115.1,104.2,117.8,105.8z"/>
	<g>
		<path class="st0" d="M365.5,182c-1.7,0-3.4-1.2-4.4-3c-1.3-2.5-0.8-5.3,1.1-6.3c0.4-0.2,0.9-0.3,1.4-0.3c1.7,0,3.4,1.2,4.4,3
			c0.7,1.3,0.9,2.6,0.6,3.9c-0.2,1.1-0.8,2-1.7,2.5C366.5,181.8,366,182,365.5,182z"/>
		<path class="st0" d="M363.6,173.7c0.9,0,2.2,0.7,3.1,2.2c1,1.9,0.6,3.8-0.5,4.3c-0.2,0.1-0.5,0.2-0.7,0.2c-0.9,0-2.2-0.7-3.1-2.2
			c-1-1.9-0.6-3.8,0.5-4.3C363.1,173.8,363.3,173.7,363.6,173.7 M363.6,170.7c-0.7,0-1.5,0.2-2.1,0.5c-2.6,1.4-3.4,5.1-1.7,8.4
			c1.3,2.4,3.5,3.8,5.7,3.8c0.7,0,1.5-0.2,2.1-0.5c2.6-1.4,3.4-5.1,1.7-8.4C368.1,172.2,365.8,170.7,363.6,170.7L363.6,170.7z"/>
	</g>
	<line class="st0" x1="225" y1="215.4" x2="403" y2="109.9"/>
	<polyline class="st1" points="292.9,165.9 292.9,150.3 330.9,127.4 330.9,142.7 	"/>
	<polygon class="st0" points="336.2,344 315.6,356 315.6,325.8 336.2,313.8 	"/>
	<ellipse class="st0" cx="323.9" cy="336.2" rx="6.4" ry="10.8"/>
	<ellipse class="st0" cx="328.3" cy="334.9" rx="6.4" ry="10.8"/>
	<polygon class="st0" points="322.8,337.1 325.9,337.1 334.1,330.3 334.7,333.1 326.6,340.4 323.6,340.4 	"/>
</g>
<g id="_x31_0_PCB_UNLOADER">
</g>
<path class="st2" d="M444,352.6c0-3.1-2.7-5.8-6.7-7.3l4.4-2.6V162.2l-26.8-45.4l-181.8-105l-178.8,105l-25.8,44.8v150.2l8.5,4.9
	v2.2c-6.3,1-10.9,4.4-10.9,8.4v4.2c0,4.8,6.6,8.7,14.7,8.7c8.1,0,14.7-3.9,14.7-8.7v-4.1L253,441.5v3.3c-6.3,1-10.9,4.4-10.9,8.4
	c0,0,0,0,0,0v4.2c0,4.8,6.6,8.7,14.7,8.7c8.1,0,14.7-3.9,14.7-8.7v-4.2h0c0-2.9-2.4-5.4-6-7l149.3-87.7c1.3,4,7.3,7.1,14.4,7.1
	c8.1,0,14.7-3.9,14.7-8.7v-3.3C444,353.3,444,352.9,444,352.6z"/>
<g id="_x31_0_PCB_UNLOADER_00000005233692229422058960000002156890040199787413_">
</g>
</svg>
