<?xml version="1.0" encoding="utf-8"?>
<!-- Generator: Adobe Illustrator 27.4.0, SVG Export Plug-In . SVG Version: 6.00 Build 0)  -->
<svg version="1.2" baseProfile="tiny" id="Livello_1"
	 xmlns="http://www.w3.org/2000/svg" xmlns:xlink="http://www.w3.org/1999/xlink" x="0px" y="0px" viewBox="0 0 56.8 56.8"
	 overflow="visible" xml:space="preserve">
<g>
	<path fill="#323E48" d="M45.8,19.1l-1-1c-0.2-0.2-0.4-0.2-0.6-0.2c-0.2,0-0.4,0.2-0.5,0.4l-2.8,5.3l-5.4-0.4L35,17.9l5.3-2.9
		c0.2-0.1,0.4-0.3,0.4-0.6c0-0.2,0-0.5-0.2-0.6l-1-1c-0.2-0.2-0.4-0.2-0.6-0.2l-8.5,1.2c-0.4,0.1-0.6,0.4-0.6,0.7V23L17.2,35.5
		c-0.1,0-0.2,0-0.3,0c-3.3,0-6.1,2.7-6.1,6.1s2.7,6.1,6.1,6.1s6.1-2.7,6.1-6.1c0-0.1,0-0.1,0-0.2l12.5-12.4l8.7-0.1
		c0.4,0,0.7-0.3,0.7-0.7l1-8.5C46,19.5,46,19.2,45.8,19.1z M43.6,27.3l-8.4,0.1c-0.2,0-0.4,0.1-0.5,0.2l-13,12.9
		c-0.2,0.2-0.2,0.4-0.2,0.6l0,0.2c0,0.1,0,0.1,0,0.2c0,2.5-2.1,4.6-4.6,4.6s-4.6-2.1-4.6-4.6s2.1-4.6,4.6-4.6c0.1,0,0.2,0,0.3,0
		l0.2,0c0.2,0,0.4-0.1,0.6-0.2l13-13c0.1-0.1,0.2-0.3,0.2-0.5v-8.1l7.4-1l0,0l-4.8,2.6c-0.3,0.1-0.4,0.4-0.4,0.7L34,24
		c0,0.4,0.3,0.7,0.7,0.7l6.5,0.5c0.3,0,0.6-0.1,0.7-0.4l2.6-4.9l0,0L43.6,27.3z"/>
	<path fill="#323E48" d="M18.6,38.2c-0.1-0.1-0.3-0.2-0.5-0.2h-2.2c-0.2,0-0.4,0.1-0.5,0.2l-1.6,1.6c-0.1,0.1-0.2,0.3-0.2,0.5v2.2
		c0,0.2,0.1,0.4,0.2,0.5l1.6,1.6c0.1,0.1,0.3,0.2,0.5,0.2h2.2c0.2,0,0.4-0.1,0.5-0.2l1.6-1.6c0.1-0.1,0.2-0.3,0.2-0.5v-2.2
		c0-0.2-0.1-0.4-0.2-0.5L18.6,38.2z M18.9,42.3l-1.1,1.1h-1.6L15,42.3v-1.6l1.1-1.1h1.6l1.1,1.1V42.3z"/>
</g>
</svg>
