<?xml version="1.0" encoding="utf-8"?>
<!-- Generator: Adobe Illustrator 27.4.0, SVG Export Plug-In . SVG Version: 6.00 Build 0)  -->
<svg version="1.2" baseProfile="tiny" id="Livello_1"
	 xmlns="http://www.w3.org/2000/svg" xmlns:xlink="http://www.w3.org/1999/xlink" x="0px" y="0px" viewBox="0 0 56.8 56.8"
	 overflow="visible" xml:space="preserve">
<g>
	<path fill="#323E48" d="M6.9,22.7h7.9v0.5c0,0.2,0.1,0.4,0.2,0.5l1.8,1.8c0.1,0.1,0.3,0.2,0.5,0.2h2.5c0.2,0,0.4-0.1,0.5-0.2
		l1.8-1.8c0.1-0.1,0.2-0.3,0.2-0.5v-0.5h16.2c1.1,0,2.1-0.3,3-0.9l8.9-5.9c0.3-0.2,0.4-0.7,0.2-1c-0.2-0.3-0.7-0.4-1-0.2l-8.9,5.9
		c-0.7,0.4-1.4,0.7-2.2,0.7H22.3v-0.5c0-0.2-0.1-0.4-0.2-0.5l-1.8-1.8c-0.1-0.1-0.3-0.2-0.5-0.2h-2.5c-0.2,0-0.4,0.1-0.5,0.2
		l-1.8,1.8c-0.1,0.1-0.2,0.3-0.2,0.5v0.5H6.9c-0.4,0-0.8,0.3-0.8,0.8S6.4,22.7,6.9,22.7z M16.2,21.1l1.3-1.3h1.9l1.3,1.3v1.9
		l-1.3,1.3h-1.9l-1.3-1.3V21.1z"/>
	<path fill="#323E48" d="M6.9,30.8h28v0.5c0,0.2,0.1,0.4,0.2,0.5l1.8,1.8c0.1,0.1,0.3,0.2,0.5,0.2h2.5c0.2,0,0.4-0.1,0.5-0.2
		l1.8-1.8c0.1-0.1,0.2-0.3,0.2-0.5v-0.5H50c0.4,0,0.8-0.3,0.8-0.8s-0.3-0.8-0.8-0.8h-7.6v-0.5c0-0.2-0.1-0.4-0.2-0.5l-1.8-1.8
		c-0.1-0.1-0.3-0.2-0.5-0.2h-2.5c-0.2,0-0.4,0.1-0.5,0.2l-1.8,1.8c-0.1,0.1-0.2,0.3-0.2,0.5v0.5h-28c-0.4,0-0.8,0.3-0.8,0.8
		S6.4,30.8,6.9,30.8z M36.4,29.2l1.3-1.3h1.9l1.3,1.3V31l-1.3,1.3h-1.9L36.4,31V29.2z"/>
	<path fill="#323E48" d="M50,37.5H29.7V37c0-0.2-0.1-0.4-0.2-0.5l-1.8-1.8c-0.1-0.1-0.3-0.2-0.5-0.2h-2.5c-0.2,0-0.4,0.1-0.5,0.2
		l-1.8,1.8c-0.1,0.1-0.2,0.3-0.2,0.5v0.5H6.9c-0.4,0-0.8,0.3-0.8,0.8S6.4,39,6.9,39h15.4v0.5c0,0.2,0.1,0.4,0.2,0.5l1.8,1.8
		c0.1,0.1,0.3,0.2,0.5,0.2h2.5c0.2,0,0.4-0.1,0.5-0.2l1.8-1.8c0.1-0.1,0.2-0.3,0.2-0.5V39H50c0.4,0,0.8-0.3,0.8-0.8
		S50.4,37.5,50,37.5z M28.2,39.1l-1.3,1.3H25l-1.3-1.3v-1.9l1.3-1.3h1.9l1.3,1.3V39.1z"/>
</g>
</svg>
