<?xml version="1.0" encoding="utf-8"?>
<!-- Generator: Adobe Illustrator 27.4.0, SVG Export Plug-In . SVG Version: 6.00 Build 0)  -->
<svg version="1.2" baseProfile="tiny" id="Livello_1"
	 xmlns="http://www.w3.org/2000/svg" xmlns:xlink="http://www.w3.org/1999/xlink" x="0px" y="0px" viewBox="0 0 56.8 56.8"
	 overflow="visible" xml:space="preserve">
<g>
	<path fill="#323E48" d="M15.1,47.7H9.8c-0.6,0-1.1-0.3-1.4-0.8c-0.3-0.5-0.3-1.1,0-1.6L26.2,9.7C26.5,9.3,27,9,27.5,9
		c0.5,0,1,0.3,1.3,0.7l20.7,32.1c0.2,0.4,0.7,0.5,1,0.3c0.4-0.2,0.5-0.7,0.3-1c0,0,0,0,0,0L30.1,9c-0.9-1.4-2.7-1.9-4.1-1
		c-0.4,0.2-0.7,0.6-1,1L7.2,44.6c-0.9,1.4-0.4,3.3,1,4.1c0.5,0.3,1,0.5,1.6,0.5h5.4c0.4,0,0.7-0.4,0.7-0.8
		C15.8,48,15.5,47.7,15.1,47.7z"/>
	<path fill="#323E48" d="M28.2,41.5c0,0,0.1,0,0.1,0c0.6,0,1.1-0.2,1.5-0.6c0.8-0.9,0.8-2.2,0-3.1h0c-0.4-0.4-1-0.6-1.5-0.6
		c-0.6,0-1.1,0.2-1.5,0.6c-0.4,0.4-0.6,1-0.6,1.5C26.2,40.5,27.1,41.5,28.2,41.5z"/>
	<path fill="#323E48" d="M27,34.9c0.1,0.1,0.1,0.1,0.2,0.1h2.4c0.1,0,0.2,0,0.2-0.1c0.1-0.1,0.1-0.1,0.1-0.2l0.4-11.9
		c0-0.1,0-0.2-0.1-0.2c-0.1-0.1-0.1-0.1-0.2-0.1l-3.2,0c-0.1,0-0.2,0-0.2,0.1c-0.1,0.1-0.1,0.1-0.1,0.2l0.3,11.9
		C26.9,34.8,27,34.9,27,34.9z"/>
	<path fill="#323E48" d="M51.9,43.7c-0.3-0.3-0.8-0.3-1.1,0L47.6,47c-0.5,0.5-1.1,0.7-1.7,0.7H18.1c-0.4,0-0.8,0.3-0.8,0.7
		s0.3,0.8,0.7,0.8c0.1,0,0.1,0,0.2,0h27.8c1.1,0,2.1-0.4,2.8-1.2l3.3-3.3C52.2,44.4,52.2,44,51.9,43.7z"/>
</g>
</svg>
