<?xml version="1.0" encoding="utf-8"?>
<!-- Generator: Adobe Illustrator 27.4.0, SVG Export Plug-In . SVG Version: 6.00 Build 0)  -->
<svg version="1.2" baseProfile="tiny" id="Livello_1"
	 xmlns="http://www.w3.org/2000/svg" xmlns:xlink="http://www.w3.org/1999/xlink" x="0px" y="0px" viewBox="0 0 56.8 56.8"
	 overflow="visible" xml:space="preserve">
<g>
	<path fill="#323E48" d="M24.9,34.9l-2.8,2.9c-0.8-0.4-1.7-0.4-2.5,0L13,31.2c0.4-1.3-0.3-2.7-1.6-3.2c-1.3-0.4-2.7,0.3-3.2,1.6
		c-0.2,0.5-0.2,1.1,0,1.6l-4,3.6c-0.3,0.3-0.3,0.7-0.1,1c0.3,0.3,0.7,0.3,1,0l3.9-3.5c0.9,0.7,2.2,0.7,3.1,0l6.5,6.5
		c-0.7,1.2-0.3,2.7,0.9,3.4c1.2,0.7,2.7,0.3,3.4-0.9c0.5-0.8,0.6-1.8,0.1-2.6l2.8-2.9L24.9,34.9z M10.6,31.6c-0.6,0-1.1-0.5-1.1-1.1
		c0,0,0,0,0,0c0-0.6,0.5-1.1,1.1-1.1s1.1,0.5,1.1,1.1S11.2,31.6,10.6,31.6z M22,40c0,0.6-0.5,1.1-1.1,1.2l0,0
		c-0.6,0-1.1-0.5-1.1-1.1c0-0.6,0.5-1.1,1.1-1.1C21.5,38.9,22,39.4,22,40C22,40,22,40,22,40z"/>
	<path fill="#323E48" d="M52.7,20.6C52.7,20.6,52.7,20.6,52.7,20.6c-0.2-0.3-0.6-0.4-1-0.2c0,0,0,0,0,0L46,24.5
		c-0.4-0.3-1-0.5-1.5-0.5h-0.1c-1,0-1.9,0.6-2.3,1.6h-5.7c-0.5-1.3-1.9-1.9-3.2-1.4c-1,0.4-1.6,1.3-1.6,2.4c0,0.4,0.1,0.7,0.3,1.1
		L27.7,32l1,1l4.2-4.4c1.2,0.7,2.7,0.3,3.5-0.8c0.2-0.3,0.3-0.5,0.3-0.8h5.5c0.3,1.4,1.6,2.2,2.9,2c0.5-0.1,1-0.4,1.3-0.7
		c0.7-0.7,0.9-1.7,0.5-2.7l5.7-4.1C52.8,21.3,52.9,20.9,52.7,20.6z M34.2,27.6C34.2,27.6,34.1,27.6,34.2,27.6
		c-0.6,0-1.1-0.5-1.1-1.1c0-0.6,0.5-1.1,1.1-1.1c0.6,0,1.1,0.5,1.1,1.1C35.3,27.1,34.8,27.6,34.2,27.6z M44.6,27.6
		c-0.6,0.1-1.2-0.4-1.2-1c-0.1-0.6,0.4-1.2,1-1.2c0.1,0,0.1,0,0.2,0c0.6,0,1.1,0.5,1.1,1.1C45.7,27.1,45.2,27.6,44.6,27.6z"/>
	<path fill="#323E48" d="M20.7,29.2c0.3,0.2,0.7,0.2,1-0.1c0.2-0.3,0.2-0.6,0-0.9L10.1,16.9c-0.3-0.3-0.7-0.3-1,0
		c-0.3,0.3-0.3,0.7,0,1L20.7,29.2z"/>
	<path fill="#323E48" d="M38.2,38.9h-5.1c-0.4,0-0.8-0.2-1.1-0.4l-8.2-8.2c-0.3-0.3-0.7-0.3-1,0c-0.3,0.3-0.3,0.7,0,1l8.1,8.2
		c0.5,0.5,1.3,0.8,2,0.8h5.2c0.4,0,0.7-0.3,0.7-0.7C38.9,39.2,38.6,38.9,38.2,38.9z"/>
	<path fill="#323E48" d="M48,39.6c-0.5-0.5-1.3-0.8-2-0.9h-4.8c-0.4,0-0.7,0.4-0.6,0.8c0,0.3,0.3,0.6,0.6,0.6h4.8
		c0.4,0,0.8,0.2,1.1,0.4l3.3,3.3c0.3,0.3,0.7,0.3,1,0c0.3-0.3,0.3-0.7,0-1L48,39.6z"/>
</g>
</svg>
