<?xml version="1.0" encoding="utf-8"?>
<!-- Generator: Adobe Illustrator 27.4.0, SVG Export Plug-In . SVG Version: 6.00 Build 0)  -->
<svg version="1.2" baseProfile="tiny" id="Livello_1"
	 xmlns="http://www.w3.org/2000/svg" xmlns:xlink="http://www.w3.org/1999/xlink" x="0px" y="0px" viewBox="0 0 56.8 56.8"
	 overflow="visible" xml:space="preserve">
<linearGradient id="SVGID_1_" gradientUnits="userSpaceOnUse" x1="7.177" y1="28.4178" x2="49.6585" y2="28.4178">
	<stop  offset="1.097525e-06" style="stop-color:#C5B8BF"/>
	<stop  offset="1" style="stop-color:#21799F"/>
</linearGradient>
<circle fill="url(#SVGID_1_)" cx="28.4" cy="28.4" r="21.2"/>
<g>
	
		<circle fill="none" stroke="#FFFFFF" stroke-width="1.5" stroke-linecap="round" stroke-miterlimit="10" cx="28.4" cy="28.4" r="21.2"/>
</g>
<g>
	<path fill="#FFFFFF" d="M28.8,36.5c-4.3,0-8-3.5-7.9-8c0-4.4,3.5-7.9,8-7.9c4.3,0,8.1,3.6,7.9,8.3C36.7,33,33.2,36.5,28.8,36.5z
		 M34.2,28.5c0-3-2.4-5.3-5.3-5.4c-3.1-0.1-5.5,2.4-5.5,5.4c0,3,2.3,5.2,5.2,5.3C32,33.9,34.2,31.4,34.2,28.5z"/>
	<path fill="#FFFFFF" d="M35.8,20.2c0-0.3,0.1-0.6,0.3-0.9c0.4-0.4,0.7-0.7,1.1-1.1c0.7-0.6,1.7-0.4,2.1,0.4c0.2,0.5,0.1,1-0.3,1.4
		c-0.3,0.4-0.7,0.7-1.1,1.1c-0.4,0.3-0.8,0.5-1.3,0.3c-0.5-0.2-0.8-0.5-0.9-1C35.8,20.3,35.8,20.3,35.8,20.2z"/>
	<path fill="#FFFFFF" d="M27.3,40.8c0-0.3,0-0.6,0.1-0.9c0.2-0.8,0.9-1.2,1.7-1c0.5,0.2,0.9,0.6,0.9,1.2c0,0.4,0,0.9,0,1.3
		c0,0.6-0.4,1.2-1.1,1.3c-0.6,0.1-1.2-0.2-1.4-0.7c-0.1-0.2-0.1-0.4-0.1-0.6C27.3,41.2,27.3,41,27.3,40.8
		C27.3,40.8,27.3,40.8,27.3,40.8z"/>
	<path fill="#FFFFFF" d="M16.4,29.6c-0.2,0-0.4,0-0.6,0c-0.7,0-1.3-0.5-1.3-1.3c0-0.7,0.4-1.3,1.2-1.3c0.5-0.1,1.1,0,1.6,0
		c0.8,0.1,1.4,0.9,1.1,1.6c-0.2,0.6-0.6,0.9-1.2,1C16.8,29.6,16.6,29.6,16.4,29.6z"/>
	<path fill="#FFFFFF" d="M41.1,29.8c-0.2,0-0.4,0-0.6,0c-0.7,0-1.2-0.4-1.3-1.1c-0.1-0.6,0.2-1.2,0.8-1.4c0.2-0.1,0.4-0.1,0.6-0.1
		c0.4,0,0.8,0,1.2,0c0.7,0,1.2,0.4,1.3,1.2c0.1,0.5-0.2,1.1-0.9,1.4c-0.2,0.1-0.4,0.1-0.6,0.1C41.5,29.8,41.3,29.8,41.1,29.8
		C41.1,29.8,41.1,29.8,41.1,29.8z"/>
	<path fill="#FFFFFF" d="M30.2,16c0,0.2,0,0.4,0,0.6c0,0.9-0.8,1.5-1.7,1.3c-0.6-0.2-0.9-0.6-0.9-1.2c0-0.5,0-0.9,0-1.4
		c0-0.5,0.3-1,0.9-1.2c0.5-0.2,1.1,0,1.5,0.4c0.2,0.2,0.3,0.5,0.3,0.8C30.2,15.6,30.2,15.8,30.2,16C30.2,16,30.2,16,30.2,16z"/>
	<path fill="#FFFFFF" d="M19.4,38.9c-0.6,0-1-0.3-1.2-0.8c-0.2-0.5-0.1-1,0.2-1.3c0.3-0.4,0.7-0.8,1.1-1.1c0.5-0.4,1.3-0.4,1.7,0.1
		c0.5,0.5,0.5,1.3,0,1.8c-0.3,0.4-0.7,0.7-1.1,1C20.1,38.8,19.8,38.9,19.4,38.9z"/>
	<path fill="#FFFFFF" d="M39.2,37.7c0,0.8-0.7,1.4-1.4,1.3c-0.3,0-0.5-0.2-0.7-0.4c-0.3-0.3-0.7-0.6-1-1c-0.3-0.4-0.5-0.8-0.3-1.3
		c0.2-0.5,0.5-0.8,1-0.9c0.4-0.1,0.8,0,1.1,0.3c0.3,0.3,0.7,0.7,1,1C39.1,37.1,39.2,37.4,39.2,37.7z"/>
	<path fill="#FFFFFF" d="M21.8,20c0,0.9-0.9,1.5-1.7,1.3c-0.2-0.1-0.4-0.2-0.6-0.3c-0.3-0.3-0.6-0.6-0.9-0.9
		c-0.2-0.3-0.4-0.6-0.4-0.9c0-0.3,0.2-0.6,0.4-0.9c0.5-0.5,1.3-0.5,1.8,0c0.3,0.3,0.7,0.7,1,1C21.7,19.4,21.8,19.8,21.8,20z"/>
</g>
</svg>
