<?xml version="1.0" encoding="utf-8"?>
<!-- Generator: Adobe Illustrator 27.4.0, SVG Export Plug-In . SVG Version: 6.00 Build 0)  -->
<svg version="1.2" baseProfile="tiny" id="Livello_1"
	 xmlns="http://www.w3.org/2000/svg" xmlns:xlink="http://www.w3.org/1999/xlink" x="0px" y="0px" viewBox="0 0 56.8 56.8"
	 overflow="visible" xml:space="preserve">
<g>
	<path fill="#323E48" d="M23.3,35.4c0.3-0.2,0.4-0.7,0.2-1c-0.2-0.3-0.7-0.4-1-0.2c-1.8,1.3-2.9,3.3-3.2,5.5c0,0,0,0.1,0,0.1
		c0,0.3-0.1,0.6-0.1,0.9c0,0.3,0,0.6,0.1,0.9c0,0,0,0.1,0,0.1c0.3,2.1,1.4,4.1,3.1,5.4c0,0,0.1,0.1,0.1,0.1c1.4,1,3.1,1.6,4.9,1.6
		c0.5,0,1.1-0.1,1.6-0.2c3.2-0.6,5.7-3.2,6.4-6.4c0,0,0-0.1,0-0.1c0.1-0.5,0.1-1,0.1-1.5c0-0.5,0-1-0.1-1.5c0,0,0-0.1,0-0.1
		c-0.6-3.2-3.1-5.7-6.4-6.4c-0.4-0.1-0.8,0.2-0.9,0.6c-0.1,0.4,0.2,0.8,0.6,0.9c2.6,0.5,4.6,2.5,5.2,5.1c0,0,0,0.1,0,0.1
		c0.1,0.4,0.1,0.9,0.1,1.3c0,0.4,0,0.9-0.1,1.3c0,0,0,0.1,0,0.1c-0.5,2.6-2.6,4.6-5.2,5.1c-1.8,0.4-3.6,0-5.1-1.1
		c0,0-0.1-0.1-0.1-0.1c-1.4-1.1-2.4-2.7-2.7-4.6c0-0.2,0-0.5,0-0.7c0-0.3,0-0.5,0.1-0.8C20.9,38.1,21.9,36.4,23.3,35.4z"/>
	<path fill="#323E48" d="M43.8,25.6l-8.9-3.3c-0.3-0.1-0.7-0.2-1-0.1c-0.7,0.1-1.4,0.1-2.1,0c-0.4-0.1-0.8,0.2-0.8,0.6l-0.2,1
		c-1.1-0.2-2.1-0.7-3-1.2l0.6-0.8c0.1-0.1,0.1-0.3,0.1-0.4c0-0.1,0-0.2-0.1-0.3c-0.1-0.1-0.1-0.2-0.2-0.3c-0.2-0.1-0.4-0.3-0.6-0.5
		L27.3,20c-0.4-0.4-0.8-0.8-1.1-1.2c-0.2-0.3-0.7-0.4-1-0.2l-0.8,0.6c-0.6-0.9-1-1.9-1.2-3l1-0.2c0.4-0.1,0.7-0.5,0.6-0.8
		c-0.1-0.8-0.1-1.7,0-2.5c0.1-0.4-0.2-0.8-0.6-0.8l-1-0.2c0.2-1.1,0.7-2.1,1.2-3l0.9,0.6c0.3,0.2,0.8,0.1,1-0.2
		c0.1-0.1,0.2-0.3,0.3-0.4c0,0,0,0,0-0.1l0.1-0.1C26.9,8.3,27,8.2,27.2,8l0.2-0.2c0.2-0.2,0.4-0.4,0.6-0.5c0.3-0.2,0.4-0.7,0.2-1
		l-0.6-0.8c0.1-0.1,0.3-0.2,0.5-0.3l0.1-0.1c0.8-0.4,1.5-0.7,2.4-0.9l0.2,1c0.1,0.4,0.5,0.7,0.8,0.6c0.4-0.1,0.8-0.1,1.2-0.1
		c0.4,0,0.8,0,1.2,0.1c0.4,0.1,0.8-0.2,0.8-0.6l0.2-1c0.8,0.2,1.6,0.5,2.4,0.9l0.1,0.1c0.1,0.1,0.3,0.2,0.5,0.3l-0.6,0.8
		c-0.2,0.3-0.1,0.8,0.2,1c0.2,0.2,0.4,0.3,0.6,0.5C38.5,7.9,38.5,8,38.6,8c0.1,0.1,0.3,0.3,0.4,0.4c0,0,0,0.1,0.1,0.1c0,0,0,0,0,0.1
		c0.1,0.1,0.2,0.3,0.3,0.4c0.2,0.3,0.7,0.4,1,0.2l0.9-0.6c0.6,0.9,1,1.9,1.2,3l-1,0.2c-0.4,0.1-0.7,0.5-0.6,0.8
		c0.1,0.8,0.1,1.7,0,2.5C41,15.6,41.2,16,41.6,16l1,0.2c-0.2,1.1-0.7,2.1-1.2,3l-0.8-0.6c-0.3-0.2-0.8-0.1-1,0.2
		c-0.3,0.4-0.7,0.8-1.1,1.2l-0.1,0.1c-0.2,0.2-0.4,0.3-0.6,0.5c-0.3,0.2-0.4,0.7-0.2,1s0.7,0.4,1,0.2c0.2-0.2,0.5-0.4,0.7-0.5
		c0,0,0.1-0.1,0.1-0.1c0.3-0.3,0.6-0.5,0.8-0.8l0.9,0.6c0.2,0.1,0.4,0.2,0.6,0.1c0.2,0,0.4-0.2,0.5-0.3l0.2-0.3
		c0.8-1.3,1.4-2.7,1.7-4.1l0.1-0.4c0-0.2,0-0.4-0.1-0.6c-0.1-0.2-0.3-0.3-0.5-0.3l-1-0.2c0-0.5,0-1,0-1.5l1-0.2
		c0.4-0.1,0.7-0.5,0.6-0.9l-0.1-0.4c-0.3-1.5-0.9-2.9-1.7-4.1l-0.2-0.3c-0.2-0.3-0.7-0.4-1-0.2l-0.9,0.6c0,0-0.1-0.1-0.1-0.1
		C40,7.3,39.8,7.1,39.6,7c-0.1-0.1-0.2-0.1-0.2-0.2c-0.1-0.1-0.1-0.1-0.2-0.2l0.6-0.9c0.1-0.2,0.1-0.4,0.1-0.6c0-0.1,0-0.1-0.1-0.2
		c-0.1-0.1-0.1-0.2-0.3-0.3l-0.4-0.3C39,4.2,38.6,4,38.4,3.9l-0.2-0.1c-1-0.5-2-0.9-3.1-1.1l-0.4-0.1c-0.1,0-0.1,0-0.2,0
		c-0.2,0-0.3,0-0.4,0.1C34,2.9,33.9,3,33.8,3.2l-0.2,1c-0.2,0-0.5,0-0.7,0c-0.2,0-0.5,0-0.7,0l-0.2-1c0-0.2-0.2-0.4-0.3-0.5
		c-0.1,0-0.1-0.1-0.2-0.1c-0.1,0-0.3-0.1-0.4,0l-0.4,0.1c-1.1,0.2-2.1,0.6-3.1,1.1l-0.2,0.1c-0.2,0.1-0.5,0.3-0.7,0.4l-0.4,0.3
		c0,0-0.1,0.1-0.1,0.1C26,4.8,25.9,5,25.8,5.1c0,0.2,0,0.4,0.1,0.6l0.6,0.9c-0.1,0-0.1,0.1-0.2,0.2c-0.1,0.1-0.2,0.1-0.2,0.2
		c-0.2,0.2-0.3,0.3-0.5,0.6c0,0-0.1,0.1-0.1,0.1L24.6,7c-0.3-0.2-0.8-0.1-1,0.2l-0.2,0.3c-0.8,1.3-1.4,2.6-1.7,4.1l-0.1,0.4
		c-0.1,0.4,0.2,0.8,0.6,0.9l1,0.2c0,0.5,0,1,0,1.5l-1,0.2c-0.2,0-0.4,0.2-0.5,0.3c-0.1,0.2-0.1,0.4-0.1,0.6l0.1,0.4
		c0.3,1.5,0.9,2.9,1.7,4.1l0.2,0.3c0.1,0.2,0.3,0.3,0.5,0.3c0.2,0,0.4,0,0.6-0.1l0.9-0.6c0.2,0.3,0.5,0.6,0.8,0.8
		c0,0,0.1,0.1,0.1,0.1c0,0,0.1,0.1,0.1,0.1L26,22.2c-0.1,0.1-0.1,0.2-0.1,0.3c0,0.3,0.1,0.6,0.3,0.7l0.3,0.2
		c1.3,0.8,2.6,1.4,4.1,1.7l0.4,0.1c0.2,0.1,0.4,0,0.6-0.1c0.2-0.1,0.3-0.3,0.3-0.5l0.2-1.1c0.6,0,1.2,0,1.8,0c0.1,0,0.2,0,0.3,0
		l8.4,3.1l-4.3,11.5c-0.1,0.4-0.2,0.8-0.1,1.2c0,0.4,0.1,0.8,0.1,1.2c0,0.5,0,1.1-0.1,1.6c-0.1,0.4,0.2,0.8,0.6,0.8l1.5,0.3
		c-0.3,1.6-1,3.1-1.8,4.5l-1.3-0.9C37,47,36.8,47,36.6,47c-0.1,0-0.3,0.1-0.4,0.3c-0.2,0.3-0.4,0.5-0.6,0.8l-0.1,0.1
		c-0.5,0.5-1,1-1.6,1.4c-0.3,0.2-0.4,0.7-0.2,1l0.9,1.3c-1.4,0.9-2.9,1.5-4.5,1.8l-0.3-1.5c-0.1-0.4-0.5-0.7-0.8-0.6
		c-1.1,0.2-2.2,0.2-3.3,0c-0.4-0.1-0.8,0.2-0.8,0.6l-0.3,1.5c-1.6-0.3-3.1-1-4.4-1.8l0.9-1.3c0.2-0.3,0.1-0.8-0.2-1
		c-0.2-0.1-0.4-0.3-0.6-0.5c0,0,0,0-0.1-0.1l0,0c0,0-0.1-0.1-0.1-0.1c-0.2-0.2-0.4-0.4-0.6-0.6c-0.1-0.1-0.2-0.2-0.3-0.3
		c-0.2-0.3-0.5-0.5-0.7-0.8c-0.2-0.3-0.7-0.4-1-0.2L16.1,48c-0.2-0.2-0.4-0.6-0.5-0.9L15.5,47l0-0.1c-0.6-1.1-1-2.2-1.2-3.4l1.5-0.3
		c0.4-0.1,0.7-0.5,0.6-0.8c-0.1-0.5-0.1-1.1-0.1-1.6c0-0.5,0-1.1,0.1-1.6c0.1-0.4-0.2-0.8-0.6-0.8l-1.5-0.3c0.3-1.2,0.7-2.3,1.2-3.4
		l0-0.1l0.1-0.1c0.1-0.2,0.4-0.6,0.5-0.8l1.3,0.9c0.3,0.2,0.8,0.1,1-0.2c0.2-0.3,0.4-0.6,0.7-0.8c0.1-0.1,0.2-0.2,0.2-0.3
		c0.2-0.2,0.4-0.4,0.6-0.6l0.1-0.1c0,0,0.1,0,0.1-0.1c0.2-0.2,0.4-0.3,0.6-0.5c0.3-0.2,0.4-0.7,0.2-1L20,29.5
		c1.4-0.9,2.9-1.5,4.4-1.8l0.3,1.5c0.1,0.4,0.5,0.7,0.8,0.6c1.1-0.2,2.2-0.2,3.3,0c0.4,0.1,0.8-0.2,0.8-0.6l0.3-1.5
		c1.6,0.3,3.1,0.9,4.5,1.8l-0.9,1.3c-0.2,0.3-0.1,0.8,0.2,1c0.6,0.4,1.1,0.9,1.6,1.4l0.1,0.1c0.2,0.2,0.4,0.5,0.6,0.8
		c0.2,0.3,0.7,0.4,1,0.2c0.3-0.2,0.4-0.7,0.2-1c-0.2-0.3-0.5-0.6-0.7-0.9l-0.1-0.1c-0.4-0.4-0.8-0.8-1.2-1.2l0.9-1.3
		c0.1-0.2,0.2-0.4,0.1-0.6c0-0.2-0.2-0.4-0.3-0.5l-0.5-0.3c-1.6-1.1-3.4-1.8-5.4-2.2L29.7,26c-0.2,0-0.4,0-0.6,0.1
		c-0.2,0.1-0.3,0.3-0.3,0.5l-0.3,1.6c-0.8-0.1-1.6-0.1-2.4,0l-0.3-1.6c-0.1-0.4-0.5-0.7-0.9-0.6l-0.5,0.1c-1.9,0.4-3.7,1.1-5.4,2.2
		l-0.4,0.3c-0.3,0.2-0.4,0.7-0.2,1l0.9,1.4c0,0-0.1,0-0.1,0.1c-0.1,0-0.1,0.1-0.2,0.2c-0.2,0.2-0.5,0.4-0.7,0.6
		c-0.1,0.1-0.2,0.2-0.3,0.3c-0.1,0.1-0.2,0.3-0.3,0.4l-1.3-0.9c-0.2-0.1-0.5-0.1-0.7,0c-0.1,0.1-0.3,0.2-0.3,0.3l-0.4,0.6
		c-0.2,0.2-0.4,0.7-0.6,1l-0.1,0.1c0,0-0.1,0.1-0.1,0.1c-0.7,1.3-1.1,2.6-1.4,4l-0.1,0.5c0,0.1,0,0.1,0,0.2c0,0.2,0,0.3,0.1,0.5
		c0.1,0.2,0.3,0.3,0.5,0.3l1.6,0.3c0,0.4-0.1,0.8-0.1,1.2c0,0.4,0,0.8,0.1,1.2l-1.6,0.3c-0.2,0-0.4,0.2-0.5,0.3
		c0,0.1-0.1,0.1-0.1,0.2c0,0.1-0.1,0.3,0,0.4l0.1,0.5c0.3,1.4,0.8,2.7,1.4,4c0,0,0.1,0.1,0.1,0.1l0.1,0.2c0.2,0.3,0.4,0.7,0.6,0.9
		l0.4,0.6c0,0,0.1,0.1,0.1,0.1c0.2,0.3,0.7,0.3,1,0.1l1.3-0.9c0.1,0.1,0.2,0.3,0.3,0.4c0.1,0.1,0.2,0.2,0.3,0.3
		c0.2,0.2,0.4,0.4,0.7,0.7c0.1,0.1,0.1,0.1,0.2,0.2c0,0,0.1,0.1,0.1,0.1l-0.9,1.4c-0.2,0.3-0.1,0.8,0.2,1l0.5,0.3
		c1.6,1.1,3.4,1.8,5.4,2.2l0.5,0.1c0.4,0.1,0.8-0.2,0.9-0.6l0.3-1.6c0.8,0.1,1.6,0.1,2.4,0l0.3,1.6c0,0.2,0.2,0.4,0.3,0.5
		c0.1,0.1,0.3,0.1,0.4,0.1c0,0,0.1,0,0.1,0l0.5-0.1c1.9-0.4,3.7-1.1,5.4-2.2l0.5-0.3c0.2-0.1,0.3-0.3,0.3-0.5c0-0.2,0-0.4-0.1-0.6
		l-0.9-1.3c0.4-0.4,0.9-0.8,1.3-1.2c0,0,0.1-0.1,0.1-0.1c0.1-0.1,0.2-0.2,0.3-0.3l1.3,0.9c0.1,0.1,0.2,0.1,0.3,0.1
		c0.1,0,0.2,0,0.2,0c0.2,0,0.4-0.2,0.5-0.3l0.3-0.4c1.1-1.6,1.8-3.4,2.2-5.3l0.1-0.6c0.1-0.2,0-0.4-0.1-0.6s-0.3-0.3-0.5-0.3
		l-1.6-0.3c0-0.4,0.1-0.8,0.1-1.2c0-0.5,0-0.9-0.1-1.4c0-0.2,0-0.4,0.1-0.5L44.2,27c0.1-0.2,0-0.3,0-0.5
		C44.3,26.1,44.1,25.7,43.8,25.6z"/>
	<path fill="#323E48" d="M29,11.1c0.8-1.1,2-1.8,3.3-1.9c0.2,0,0.4,0,0.5,0c0.2,0,0.4,0,0.6,0c1.3,0.2,2.5,0.9,3.3,1.9
		c0.2,0.3,0.7,0.4,1,0.2c0.3-0.2,0.4-0.7,0.2-1c-1-1.4-2.6-2.3-4.4-2.5c-0.2,0-0.5,0-0.7,0c-0.2,0-0.5,0-0.8,0.1
		c-1.7,0.2-3.2,1.1-4.2,2.4c0,0-0.1,0.1-0.1,0.1c-1.1,1.4-1.5,3.3-1.1,5c0.5,2.5,2.5,4.5,5,5c0,0,0,0,0.1,0c0.4,0.1,0.8,0.1,1.2,0.1
		c0.4,0,0.8,0,1.2-0.1c0,0,0,0,0.1,0c2.5-0.5,4.5-2.5,5-5c0.1-0.4-0.2-0.8-0.6-0.9c-0.4-0.1-0.8,0.2-0.9,0.6
		c-0.4,1.9-1.9,3.4-3.8,3.8c0,0,0,0-0.1,0c-0.6,0.1-1.3,0.1-1.9,0c0,0,0,0-0.1,0c-1.9-0.4-3.4-1.9-3.8-3.8c-0.3-1.3,0-2.6,0.8-3.7
		C28.9,11.1,29,11.1,29,11.1z"/>
</g>
</svg>
