<?xml version="1.0" encoding="utf-8"?>
<!-- Generator: Adobe Illustrator 27.4.0, SVG Export Plug-In . SVG Version: 6.00 Build 0)  -->
<svg version="1.2" baseProfile="tiny" id="Livello_1"
	 xmlns="http://www.w3.org/2000/svg" xmlns:xlink="http://www.w3.org/1999/xlink" x="0px" y="0px" viewBox="0 0 56.8 56.8"
	 overflow="visible" xml:space="preserve">
<g>
	<path fill="#ffffff" d="M30.7,9.6V24c0,0.4,0.3,0.8,0.8,0.8s0.8-0.3,0.8-0.8V9.3c0-0.2-0.1-0.4-0.2-0.5l-4-4
		c-0.3-0.3-0.8-0.3-1.1,0s-0.3,0.8,0,1.1L30.7,9.6z"/>
	<path fill="#ffffff" d="M32.2,38.7V27.1c0-0.4-0.3-0.8-0.8-0.8s-0.8,0.3-0.8,0.8v12.1c0,0.3,0.2,0.6,0.5,0.7
		c2.6,1.1,4.2,3.7,4.2,6.5c0,3.9-3.2,7.1-7.1,7.1s-7.1-3.2-7.1-7.1c0-2.8,1.7-5.3,4.2-6.5c0.3-0.1,0.4-0.4,0.4-0.7V26.4h2
		c0.4,0,0.8-0.3,0.8-0.8s-0.3-0.8-0.8-0.8h-2v-3.2h2c0.4,0,0.8-0.3,0.8-0.8s-0.3-0.8-0.8-0.8h-2V17h2c0.4,0,0.8-0.3,0.8-0.8
		c0-0.4-0.3-0.8-0.8-0.8h-2v-3.2h2c0.4,0,0.8-0.3,0.8-0.8s-0.3-0.8-0.8-0.8h-2V4c0-0.4-0.3-0.8-0.8-0.8S24.5,3.5,24.5,4v34.8
		c-2.8,1.5-4.7,4.4-4.7,7.6c0,4.7,3.8,8.6,8.6,8.6s8.6-3.8,8.6-8.6C37,43.1,35.1,40.1,32.2,38.7z"/>
	<path fill="#ffffff" d="M29.7,31.8l-2-2c-0.1-0.1-0.3-0.1-0.4-0.1c-0.1,0.1-0.2,0.2-0.2,0.3v11.5c-2.1,0.6-3.6,2.5-3.6,4.7
		c0,2.7,2.2,4.9,4.9,4.9s4.9-2.2,4.9-4.9c0-2.1-1.4-4-3.4-4.6v-9.6C29.9,32,29.8,31.9,29.7,31.8z"/>
</g>
</svg>
