<?xml version="1.0" encoding="utf-8"?>
<!-- Generator: Adobe Illustrator 27.4.0, SVG Export Plug-In . SVG Version: 6.00 Build 0)  -->
<svg version="1.2" baseProfile="tiny" id="Livello_1"
	 xmlns="http://www.w3.org/2000/svg" xmlns:xlink="http://www.w3.org/1999/xlink" x="0px" y="0px" viewBox="0 0 18 18"
	 overflow="visible" xml:space="preserve">
<path fill="#28ABE3" d="M9,0C4,0,0,4,0,9c0,5,4,9,9,9c5,0,9-4,9-9C18,4,13.9,0,9,0z M9.9,13.8c0,0,0,0.1,0,0.1c0,0-0.1,0-0.1,0H8.2
	c0,0-0.1,0-0.1,0s0-0.1,0-0.1V7.2c0,0,0-0.1,0-0.1c0,0,0.1,0,0.1,0h1.6c0,0,0.1,0,0.1,0c0,0,0,0.1,0,0.1V13.8z M9.8,5.9
	C9.6,6.1,9.3,6.2,9,6.2S8.5,6.1,8.3,5.9C8.1,5.7,8,5.5,8,5.2c0-0.3,0.1-0.6,0.3-0.8C8.5,4.2,8.7,4.1,9,4.1s0.6,0.1,0.8,0.3
	c0.2,0.2,0.3,0.5,0.3,0.8C10.1,5.5,10,5.7,9.8,5.9z"/>
</svg>
