<?xml version="1.0" encoding="utf-8"?>
<!-- Generator: Adobe Illustrator 27.4.0, SVG Export Plug-In . SVG Version: 6.00 Build 0)  -->
<svg version="1.2" baseProfile="tiny" id="Livello_1"
	 xmlns="http://www.w3.org/2000/svg" xmlns:xlink="http://www.w3.org/1999/xlink" x="0px" y="0px" viewBox="0 0 638.1 827.1"
	 overflow="visible" xml:space="preserve">
<g>
	
		<rect x="511.1" y="112.8" fill="#B3B2B2" stroke="#808181" stroke-width="0.5" stroke-miterlimit="10" width="116.4" height="97.4"/>
	<rect x="71.7" y="310.1" fill="#3C3C3B" width="483.1" height="458.6"/>
	<polygon fill="#343434" stroke="#808181" stroke-width="0.5" stroke-miterlimit="10" points="517.8,492.2 116.2,492.2 116.2,632.7 
		98.4,632.7 98.4,743.8 115.1,760.5 524.8,760.5 538.6,746.7 538.6,632.7 517.8,632.7 	"/>
	
		<rect x="71.7" y="112.8" fill="#575756" stroke="#808181" stroke-width="0.5" stroke-miterlimit="10" width="439.6" height="198.7"/>
	<path fill="#CCCCCB" stroke="#808181" stroke-width="0.25" stroke-miterlimit="10" d="M522.2,46.3h35.8c0.7,0,1.3,0.6,1.3,1.3v12.1
		c0,0.7-0.6,1.3-1.3,1.3h-35.8c-0.7,0-1.3-0.6-1.3-1.3V47.6C521,46.9,521.5,46.3,522.2,46.3z"/>
	<path fill="#CCCCCB" stroke="#808181" stroke-width="0.25" stroke-miterlimit="10" d="M522.2,31.7h35.8c0.7,0,1.3,0.6,1.3,1.3v12.1
		c0,0.7-0.6,1.3-1.3,1.3h-35.8c-0.7,0-1.3-0.6-1.3-1.3V33C521,32.3,521.5,31.7,522.2,31.7z"/>
	<path fill="#CCCCCB" stroke="#808181" stroke-width="0.25" stroke-miterlimit="10" d="M522.2,17.1h35.8c0.7,0,1.3,0.6,1.3,1.3v12.1
		c0,0.7-0.6,1.3-1.3,1.3h-35.8c-0.7,0-1.3-0.6-1.3-1.3V18.3C521,17.6,521.5,17.1,522.2,17.1z"/>
	<path fill="#9D9D9C" stroke="#808181" stroke-width="2" stroke-miterlimit="10" d="M255.8,222.8h69.8c1,0,1.8,0.8,1.8,1.8v11.1
		c0,1-0.8,1.8-1.8,1.8h-69.8c-1,0-1.8-0.8-1.8-1.8v-11.1C254,223.6,254.8,222.8,255.8,222.8z"/>
	<rect x="518.9" y="210.2" fill="#CCCCCB" width="108.7" height="182.5"/>
	
		<rect x="511.3" y="210.2" fill="#CCCCCB" stroke="#808181" stroke-width="0.5" stroke-miterlimit="10" width="7.3" height="101.3"/>
	<path fill="#CCCCCB" d="M521.1,54.6h102.1c3.3,0,6,2.7,6,6v141.8c0,3.3-2.7,6-6,6H521.1c-3.3,0-6-2.7-6-6V60.7
		C515,57.3,517.7,54.6,521.1,54.6z"/>
	<path fill="#B3B2B2" d="M518.4,54.6h107.5c1.9,0,3.4,1.5,3.4,3.4v0.7c0,1.9-1.5,3.4-3.4,3.4H518.4c-1.9,0-3.4-1.5-3.4-3.4V58
		C515,56.2,516.5,54.6,518.4,54.6z"/>
	<path fill="#B3B2B2" d="M542.2,199.1h53.9c1.3,0,2.4,1.1,2.4,2.4v2.6c0,1.3-1.1,2.4-2.4,2.4h-53.9c-1.3,0-2.4-1.1-2.4-2.4v-2.6
		C539.8,200.2,540.9,199.1,542.2,199.1z"/>
	<rect x="12" y="457.9" fill="#CCCCCB" width="59.7" height="310.8"/>
	<rect x="554.8" y="457.9" fill="#CCCCCB" width="72.7" height="310.8"/>
	<rect x="528.1" y="457.9" fill="#CCCCCB" width="18.9" height="310.8"/>
	<rect x="551.4" y="392.7" fill="#B3B2B2" width="76.1" height="65.1"/>
	<rect x="71.7" y="311.5" fill="#B3B2B2" width="59.1" height="90.7"/>
	<rect x="80.5" y="406.5" fill="#B3B2B2" width="35.7" height="18.8"/>
	<rect x="80.5" y="429.6" fill="#B3B2B2" width="35.7" height="203.1"/>
	<rect x="511.3" y="406.5" fill="#B3B2B2" width="35.7" height="18.8"/>
	<rect x="517.8" y="429.6" fill="#B3B2B2" width="29.3" height="203.1"/>
	<rect x="511.3" y="311.5" fill="#B3B2B2" stroke="#808181" stroke-width="0.5" stroke-miterlimit="10" width="7.3" height="81.2"/>
	<rect x="11.7" y="392.7" fill="#B3B2B2" width="60" height="65.1"/>
	<rect x="11.7" y="184.3" fill="#B3B2B2" width="60" height="20.9"/>
	<rect x="11.7" y="205.2" fill="#CCCCCB" width="60" height="187.5"/>
	<rect x="11.7" y="112.8" fill="#CCCCCB" width="60" height="71.5"/>
	<rect x="518.9" y="392.7" fill="#CCCCCB" stroke="#989999" stroke-miterlimit="10" width="48.4" height="9.5"/>
	<path fill="#1B1B1B" stroke="#808181" stroke-width="0.5" stroke-miterlimit="10" d="M336.8,272.5h-90.3c-1.4,0-2.5-1.1-2.5-2.5
		v-7.6c0-1.4,1.1-2.5,2.5-2.5h90.3c1.4,0,2.5,1.1,2.5,2.5v7.6C339.2,271.4,338.1,272.5,336.8,272.5z"/>
	<circle fill="#F8E931" stroke="#E5E5E4" stroke-miterlimit="10" cx="543.2" cy="237.8" r="7.6"/>
	<circle fill="#989999" stroke="#E5E5E4" stroke-miterlimit="10" cx="572.1" cy="237.8" r="7.6"/>
	<circle fill="#989999" stroke="#E5E5E4" stroke-miterlimit="10" cx="556.9" cy="267" r="7.6"/>
	<circle fill="#C0292E" stroke="#E5E5E4" stroke-miterlimit="10" cx="589.8" cy="310.1" r="10.2"/>
	<circle fill="#989999" stroke="#E5E5E4" stroke-miterlimit="10" cx="601.5" cy="237.8" r="7.6"/>
	<circle fill="none" stroke="#CCCCCB" stroke-miterlimit="10" cx="589.8" cy="421" r="27.1"/>
	<circle fill="none" stroke="#CCCCCB" stroke-miterlimit="10" cx="589.8" cy="421" r="18.7"/>
	<circle fill="#989999" stroke="#CCCCCB" stroke-width="3" stroke-miterlimit="10" cx="42.1" cy="643.4" r="10.7"/>
	<circle fill="#989999" stroke="#CCCCCB" stroke-width="3" stroke-miterlimit="10" cx="42.1" cy="679.5" r="10.7"/>
	<circle fill="#989999" stroke="#CCCCCB" stroke-width="3" stroke-miterlimit="10" cx="42.1" cy="715.6" r="10.7"/>
	<circle fill="#676767" stroke="#CCCCCB" stroke-miterlimit="10" cx="571.1" cy="474.4" r="5.9"/>
	<circle fill="#676767" stroke="#CCCCCB" stroke-miterlimit="10" cx="571.1" cy="612" r="5.9"/>
	<circle fill="#676767" stroke="#CCCCCB" stroke-miterlimit="10" cx="571.1" cy="749.6" r="5.9"/>
	<circle fill="#676767" stroke="#CCCCCB" stroke-miterlimit="10" cx="608.1" cy="474.4" r="5.9"/>
	<circle fill="#676767" stroke="#CCCCCB" stroke-miterlimit="10" cx="23.6" cy="474.4" r="5.9"/>
	<circle fill="#676767" stroke="#CCCCCB" stroke-miterlimit="10" cx="60.6" cy="474.4" r="5.9"/>
	<line fill="none" stroke="#CCCCCB" stroke-miterlimit="10" x1="572.7" y1="399.9" x2="606.9" y2="399.9"/>
	<path fill="none" stroke="#CCCCCB" stroke-miterlimit="10" d="M610.7,403.7V415h1.5v22.3h-8c0,0-5.4,5.9-14.3,5.9
		c-8.9,0-16.2-7.2-16.2-7.2h-6.3v-30.6"/>
	<path fill="none" stroke="#CCCCCB" stroke-miterlimit="10" d="M589.1,437.4L589.1,437.4c-2.5,0-4.5-2-4.5-4.5v-23.1
		c0-2.5,2-4.5,4.5-4.5l0,0c2.5,0,4.5,2,4.5,4.5v23.1C593.6,435.4,591.6,437.4,589.1,437.4z"/>
	<rect x="593.1" y="495.1" fill="none" stroke="#CCCCCB" stroke-miterlimit="10" width="19.1" height="3.6"/>
	<path fill="#989999" stroke="#CCCCCB" stroke-width="3" stroke-miterlimit="10" d="M46,606h-9c-1.5,0-2.7-1.2-2.7-2.7v-4.7
		c0-1.5,1.2-2.7,2.7-2.7h9c1.5,0,2.7,1.2,2.7,2.7v4.7C48.7,604.7,47.5,606,46,606z"/>
	<path fill="#989999" stroke="#CCCCCB" stroke-width="3" stroke-miterlimit="10" d="M54,616.2L54,616.2c-2.3,0-4.2-1.9-4.2-4.2l0,0
		c0-2.3,1.9-4.2,4.2-4.2h0c2.3,0,4.2,1.9,4.2,4.2l0,0C58.2,614.3,56.3,616.2,54,616.2z"/>
	<circle fill="#989999" stroke="#CCCCCB" stroke-width="3" stroke-miterlimit="10" cx="591.2" cy="643.4" r="10.7"/>
	<circle fill="#989999" stroke="#CCCCCB" stroke-width="3" stroke-miterlimit="10" cx="591.2" cy="679.5" r="10.7"/>
	<circle fill="#989999" stroke="#CCCCCB" stroke-width="3" stroke-miterlimit="10" cx="591.2" cy="715.6" r="10.7"/>
	<path fill="#989999" stroke="#CCCCCB" stroke-width="3" stroke-miterlimit="10" d="M595.1,606h-9c-1.5,0-2.7-1.2-2.7-2.7v-4.7
		c0-1.5,1.2-2.7,2.7-2.7h9c1.5,0,2.7,1.2,2.7,2.7v4.7C597.8,604.7,596.6,606,595.1,606z"/>
	<path fill="#989999" stroke="#CCCCCB" stroke-width="3" stroke-miterlimit="10" d="M603.1,616.2L603.1,616.2
		c-2.3,0-4.2-1.9-4.2-4.2l0,0c0-2.3,1.9-4.2,4.2-4.2l0,0c2.3,0,4.2,1.9,4.2,4.2l0,0C607.3,614.3,605.4,616.2,603.1,616.2z"/>
	<rect x="550.9" y="62" fill="none" stroke="#808181" stroke-miterlimit="10" width="35.4" height="5.6"/>
	<g>
		<linearGradient id="SVGID_1_" gradientUnits="userSpaceOnUse" x1="510.3717" y1="169.9733" x2="666.374" y2="76.1916">
			<stop  offset="0" style="stop-color:#FBE9F2"/>
			<stop  offset="1" style="stop-color:#2DAAE1"/>
		</linearGradient>
		<rect x="526.8" y="81.8" fill="url(#SVGID_1_)" width="84.7" height="105.7"/>
		<path fill="#808181" d="M609.5,83.8v101.7h-80.7V83.8H609.5 M613.5,79.8h-88.7v109.7h88.7V79.8L613.5,79.8z"/>
	</g>
	<rect x="559.3" y="71.6" fill="none" stroke="#808181" stroke-miterlimit="10" width="18.7" height="4.7"/>
	<polygon fill="#706F6F" points="511.1,205.6 71.7,205.2 71.7,184.3 511.1,196.6 	"/>
	<rect x="37.5" y="768.7" fill="#1B1B1B" width="23.1" height="8.5"/>
	<polygon fill="#989999" points="66.4,799.5 66.4,796.6 60.6,796.6 60.6,791.4 55.7,791.4 55.7,777.2 41.5,777.2 41.5,791.4 
		36.8,791.4 36.8,796.6 31.1,796.6 31.1,799.2 9.6,806.9 9.6,814.1 87.8,814.1 87.8,806.9 	"/>
	<rect x="577.9" y="768.7" fill="#1B1B1B" width="23.1" height="8.5"/>
	<polygon fill="#989999" points="606.8,799.5 606.8,796.6 601,796.6 601,791.4 596.1,791.4 596.1,777.2 581.9,777.2 581.9,791.4 
		577.2,791.4 577.2,796.6 571.5,796.6 571.5,799.2 550,806.9 550,814.1 628.2,814.1 628.2,806.9 	"/>
	
		<rect x="140.8" y="758.2" fill="#343434" stroke="#808181" stroke-width="0.5" stroke-miterlimit="10" width="13.8" height="50.3"/>
	<polygon fill="#343434" stroke="#808181" stroke-width="0.5" stroke-miterlimit="10" points="132.3,749.6 132.3,750.8 132.3,755.5 
		132.3,801.8 136.4,801.8 136.4,755.5 158.1,755.5 158.1,801.8 162.2,801.8 162.2,755.5 162.2,750.8 162.2,749.6 	"/>
	<rect x="125.9" y="783.3" fill="#343434" stroke="#808181" stroke-width="0.5" stroke-miterlimit="10" width="42.7" height="5.9"/>
	<rect x="140.8" y="743.8" fill="#343434" stroke="#808181" stroke-width="0.5" stroke-miterlimit="10" width="13.8" height="5.9"/>
	<rect x="121.5" y="774.8" fill="#343434" stroke="#808181" stroke-width="0.5" stroke-miterlimit="10" width="51.5" height="2.3"/>
	
		<rect x="485.6" y="758.2" fill="#343434" stroke="#808181" stroke-width="0.5" stroke-miterlimit="10" width="13.8" height="50.3"/>
	<polygon fill="#343434" stroke="#808181" stroke-width="0.5" stroke-miterlimit="10" points="477.1,749.6 477.1,750.8 477.1,755.5 
		477.1,801.8 481.2,801.8 481.2,755.5 502.9,755.5 502.9,801.8 507,801.8 507,755.5 507,750.8 507,749.6 	"/>
	<rect x="470.7" y="783.3" fill="#343434" stroke="#808181" stroke-width="0.5" stroke-miterlimit="10" width="42.7" height="5.9"/>
	<rect x="485.6" y="743.8" fill="#343434" stroke="#808181" stroke-width="0.5" stroke-miterlimit="10" width="13.8" height="5.9"/>
	<rect x="466.3" y="774.8" fill="#343434" stroke="#808181" stroke-width="0.5" stroke-miterlimit="10" width="51.5" height="2.3"/>
	<polygon fill="#CCCCCB" points="123,722.4 123,742.1 180.9,742.1 180.9,760.5 194.4,760.5 200.2,795.7 440.2,794.4 443.7,760.2 
		458.7,759.1 460.1,740.6 514.9,741.5 514.9,722.4 511.3,722.4 509.3,737.7 128.8,737.7 127.6,722.4 	"/>
	<rect x="135.8" y="730.3" fill="#CCCCCB" width="26.3" height="6.1"/>
	<rect x="477.1" y="730.3" fill="#CCCCCB" width="26.3" height="6.1"/>
	<rect x="173" y="730.3" fill="#CCCCCB" width="293.3" height="7.3"/>
	<rect x="173" y="712" fill="#CCCCCB" width="6.4" height="16.9"/>
	<rect x="168.6" y="697.5" fill="#CCCCCB" width="7.3" height="6.2"/>
	<rect x="177.9" y="697.5" fill="#CCCCCB" width="7.3" height="6.2"/>
	<rect x="187.2" y="697.5" fill="#CCCCCB" width="7.3" height="6.2"/>
	<rect x="196.6" y="697.5" fill="#CCCCCB" width="7.3" height="6.2"/>
	<rect x="205.9" y="697.5" fill="#CCCCCB" width="7.3" height="6.2"/>
	<rect x="215.2" y="697.5" fill="#CCCCCB" width="7.3" height="6.2"/>
	<rect x="224.5" y="697.5" fill="#CCCCCB" width="7.3" height="6.2"/>
	<rect x="233.8" y="697.5" fill="#CCCCCB" width="7.3" height="6.2"/>
	<rect x="243.1" y="697.5" fill="#CCCCCB" width="7.3" height="6.2"/>
	<rect x="252.5" y="697.5" fill="#CCCCCB" width="7.3" height="6.2"/>
	<rect x="261.8" y="697.5" fill="#CCCCCB" width="7.3" height="6.2"/>
	<rect x="271.1" y="697.5" fill="#CCCCCB" width="7.3" height="6.2"/>
	<rect x="280.4" y="697.5" fill="#CCCCCB" width="7.3" height="6.2"/>
	<rect x="289.7" y="697.5" fill="#CCCCCB" width="7.3" height="6.2"/>
	<rect x="299.1" y="697.5" fill="#CCCCCB" width="7.3" height="6.2"/>
	<rect x="308.4" y="697.5" fill="#CCCCCB" width="7.3" height="6.2"/>
	<rect x="317.7" y="697.5" fill="#CCCCCB" width="7.3" height="6.2"/>
	<rect x="327" y="697.5" fill="#CCCCCB" width="7.3" height="6.2"/>
	<rect x="336.3" y="697.5" fill="#CCCCCB" width="7.3" height="6.2"/>
	<rect x="345.6" y="697.5" fill="#CCCCCB" width="7.3" height="6.2"/>
	<rect x="355" y="697.5" fill="#CCCCCB" width="7.3" height="6.2"/>
	<rect x="364.3" y="697.5" fill="#CCCCCB" width="7.3" height="6.2"/>
	<rect x="373.6" y="697.5" fill="#CCCCCB" width="7.3" height="6.2"/>
	<rect x="382.9" y="697.5" fill="#CCCCCB" width="7.3" height="6.2"/>
	<rect x="392.2" y="697.5" fill="#CCCCCB" width="7.3" height="6.2"/>
	<rect x="401.5" y="697.5" fill="#CCCCCB" width="7.3" height="6.2"/>
	<rect x="410.9" y="697.5" fill="#CCCCCB" width="7.3" height="6.2"/>
	<rect x="420.2" y="697.5" fill="#CCCCCB" width="7.3" height="6.2"/>
	<rect x="429.5" y="697.5" fill="#CCCCCB" width="7.3" height="6.2"/>
	<rect x="438.8" y="697.5" fill="#CCCCCB" width="7.3" height="6.2"/>
	<rect x="448.1" y="697.5" fill="#CCCCCB" width="7.3" height="6.2"/>
	<rect x="457.4" y="697.5" fill="#CCCCCB" width="7.3" height="6.2"/>
	<rect x="466.8" y="697.5" fill="#CCCCCB" width="7.3" height="6.2"/>
	<rect x="181.6" y="712" fill="#CCCCCB" width="6.4" height="16.9"/>
	<rect x="190.2" y="712" fill="#CCCCCB" width="6.4" height="16.9"/>
	<rect x="198.8" y="712" fill="#CCCCCB" width="6.4" height="16.9"/>
	<rect x="207.3" y="712" fill="#CCCCCB" width="6.4" height="16.9"/>
	<rect x="215.9" y="712" fill="#CCCCCB" width="6.4" height="16.9"/>
	<rect x="224.5" y="712" fill="#CCCCCB" width="6.4" height="16.9"/>
	<rect x="233.1" y="712" fill="#CCCCCB" width="6.4" height="16.9"/>
	<rect x="241.7" y="712" fill="#CCCCCB" width="6.4" height="16.9"/>
	<rect x="250.3" y="712" fill="#CCCCCB" width="6.4" height="16.9"/>
	<rect x="258.9" y="712" fill="#CCCCCB" width="6.4" height="16.9"/>
	<rect x="267.4" y="712" fill="#CCCCCB" width="6.4" height="16.9"/>
	<rect x="276" y="712" fill="#CCCCCB" width="6.4" height="16.9"/>
	<rect x="284.6" y="712" fill="#CCCCCB" width="6.4" height="16.9"/>
	<rect x="293.2" y="712" fill="#CCCCCB" width="6.4" height="16.9"/>
	<rect x="301.8" y="712" fill="#CCCCCB" width="6.4" height="16.9"/>
	<rect x="310.4" y="712" fill="#CCCCCB" width="6.4" height="16.9"/>
	<rect x="319" y="712" fill="#CCCCCB" width="6.4" height="16.9"/>
	<rect x="327.5" y="712" fill="#CCCCCB" width="6.4" height="16.9"/>
	<rect x="336.1" y="712" fill="#CCCCCB" width="6.4" height="16.9"/>
	<rect x="344.7" y="712" fill="#CCCCCB" width="6.4" height="16.9"/>
	<rect x="353.3" y="712" fill="#CCCCCB" width="6.4" height="16.9"/>
	<rect x="361.9" y="712" fill="#CCCCCB" width="6.4" height="16.9"/>
	<rect x="370.5" y="712" fill="#CCCCCB" width="6.4" height="16.9"/>
	<rect x="379.1" y="712" fill="#CCCCCB" width="6.4" height="16.9"/>
	<rect x="387.6" y="712" fill="#CCCCCB" width="6.4" height="16.9"/>
	<rect x="396.2" y="712" fill="#CCCCCB" width="6.4" height="16.9"/>
	<rect x="404.8" y="712" fill="#CCCCCB" width="6.4" height="16.9"/>
	<rect x="413.4" y="712" fill="#CCCCCB" width="6.4" height="16.9"/>
	<rect x="422" y="712" fill="#CCCCCB" width="6.4" height="16.9"/>
	<rect x="430.6" y="712" fill="#CCCCCB" width="6.4" height="16.9"/>
	<rect x="439.1" y="712" fill="#CCCCCB" width="6.4" height="16.9"/>
	<rect x="447.7" y="712" fill="#CCCCCB" width="6.4" height="16.9"/>
	<rect x="456.3" y="712" fill="#CCCCCB" width="6.4" height="16.9"/>
	<polygon fill="#CCCCCB" points="477.1,704.9 162.2,704.9 162.2,708.6 167.7,708.6 170.8,711.7 466.8,711.7 470.3,708.1 
		477.1,708.1 	"/>
	<rect x="177.9" y="665.1" fill="none" stroke="#808181" stroke-miterlimit="10" width="284.8" height="18"/>
	<rect x="164.2" y="542.3" fill="#B3B2B2" width="309.9" height="70.9"/>
	<rect x="164.2" y="481.5" fill="#B3B2B2" width="309.9" height="15.4"/>
	<rect x="164.2" y="374.5" fill="#B3B2B2" width="309.9" height="122.4"/>
	<rect x="164.2" y="616.2" fill="#B3B2B2" width="309.9" height="77.4"/>
	<rect x="168.1" y="502.5" fill="#B3B2B2" width="7" height="27.5"/>
	<rect x="168.1" y="448.4" fill="none" stroke="#676767" stroke-miterlimit="10" width="7" height="12.2"/>
	<rect x="178.1" y="448.4" fill="none" stroke="#676767" stroke-miterlimit="10" width="7" height="12.2"/>
	<rect x="188" y="448.4" fill="none" stroke="#676767" stroke-miterlimit="10" width="7" height="12.2"/>
	<rect x="198" y="448.4" fill="none" stroke="#676767" stroke-miterlimit="10" width="7" height="12.2"/>
	<rect x="207.9" y="448.4" fill="none" stroke="#676767" stroke-miterlimit="10" width="7" height="12.2"/>
	<rect x="217.9" y="448.4" fill="none" stroke="#676767" stroke-miterlimit="10" width="7" height="12.2"/>
	<rect x="227.8" y="448.4" fill="none" stroke="#676767" stroke-miterlimit="10" width="7" height="12.2"/>
	<rect x="237.8" y="448.4" fill="none" stroke="#676767" stroke-miterlimit="10" width="7" height="12.2"/>
	<rect x="247.7" y="448.4" fill="none" stroke="#676767" stroke-miterlimit="10" width="7" height="12.2"/>
	<rect x="257.7" y="448.4" fill="none" stroke="#676767" stroke-miterlimit="10" width="7" height="12.2"/>
	<rect x="267.6" y="448.4" fill="none" stroke="#676767" stroke-miterlimit="10" width="7" height="12.2"/>
	<rect x="277.6" y="448.4" fill="none" stroke="#676767" stroke-miterlimit="10" width="7" height="12.2"/>
	<rect x="287.5" y="448.4" fill="none" stroke="#676767" stroke-miterlimit="10" width="7" height="12.2"/>
	<rect x="297.5" y="448.4" fill="none" stroke="#676767" stroke-miterlimit="10" width="7" height="12.2"/>
	<rect x="307.4" y="448.4" fill="none" stroke="#676767" stroke-miterlimit="10" width="7" height="12.2"/>
	<rect x="317.4" y="448.4" fill="none" stroke="#676767" stroke-miterlimit="10" width="7" height="12.2"/>
	<rect x="327.3" y="448.4" fill="none" stroke="#676767" stroke-miterlimit="10" width="7" height="12.2"/>
	<rect x="337.3" y="448.4" fill="none" stroke="#676767" stroke-miterlimit="10" width="7" height="12.2"/>
	<rect x="347.2" y="448.4" fill="none" stroke="#676767" stroke-miterlimit="10" width="7" height="12.2"/>
	<rect x="357.2" y="448.4" fill="none" stroke="#676767" stroke-miterlimit="10" width="7" height="12.2"/>
	<rect x="367.1" y="448.4" fill="none" stroke="#676767" stroke-miterlimit="10" width="7" height="12.2"/>
	<rect x="377.1" y="448.4" fill="none" stroke="#676767" stroke-miterlimit="10" width="7" height="12.2"/>
	<rect x="387.1" y="448.4" fill="none" stroke="#676767" stroke-miterlimit="10" width="7" height="12.2"/>
	<rect x="397" y="448.4" fill="none" stroke="#676767" stroke-miterlimit="10" width="7" height="12.2"/>
	<rect x="407" y="448.4" fill="none" stroke="#676767" stroke-miterlimit="10" width="7" height="12.2"/>
	<rect x="416.9" y="448.4" fill="none" stroke="#676767" stroke-miterlimit="10" width="7" height="12.2"/>
	<rect x="426.9" y="448.4" fill="none" stroke="#676767" stroke-miterlimit="10" width="7" height="12.2"/>
	<rect x="436.8" y="448.4" fill="none" stroke="#676767" stroke-miterlimit="10" width="7" height="12.2"/>
	<rect x="446.8" y="448.4" fill="none" stroke="#676767" stroke-miterlimit="10" width="7" height="12.2"/>
	<rect x="456.7" y="448.4" fill="none" stroke="#676767" stroke-miterlimit="10" width="7" height="12.2"/>
	<rect x="177.9" y="502.5" fill="#B3B2B2" width="7" height="27.5"/>
	<rect x="187.7" y="502.5" fill="#B3B2B2" width="7" height="27.5"/>
	<rect x="197.5" y="502.5" fill="#B3B2B2" width="7" height="27.5"/>
	<rect x="207.3" y="502.5" fill="#B3B2B2" width="7" height="27.5"/>
	<rect x="217.1" y="502.5" fill="#B3B2B2" width="7" height="27.5"/>
	<rect x="227" y="502.5" fill="#B3B2B2" width="7" height="27.5"/>
	<rect x="236.8" y="502.5" fill="#B3B2B2" width="7" height="27.5"/>
	<rect x="246.6" y="502.5" fill="#B3B2B2" width="7" height="27.5"/>
	<rect x="256.4" y="502.5" fill="#B3B2B2" width="7" height="27.5"/>
	<rect x="266.2" y="502.5" fill="#B3B2B2" width="7" height="27.5"/>
	<rect x="276" y="502.5" fill="#B3B2B2" width="7" height="27.5"/>
	<rect x="285.8" y="502.5" fill="#B3B2B2" width="7" height="27.5"/>
	<rect x="295.6" y="502.5" fill="#B3B2B2" width="7" height="27.5"/>
	<rect x="305.4" y="502.5" fill="#B3B2B2" width="7" height="27.5"/>
	<rect x="315.2" y="502.5" fill="#B3B2B2" width="7" height="27.5"/>
	<rect x="325" y="502.5" fill="#B3B2B2" width="7" height="27.5"/>
	<rect x="334.8" y="502.5" fill="#B3B2B2" width="7" height="27.5"/>
	<rect x="344.6" y="502.5" fill="#B3B2B2" width="7" height="27.5"/>
	<rect x="354.4" y="502.5" fill="#B3B2B2" width="7" height="27.5"/>
	<rect x="364.2" y="502.5" fill="#B3B2B2" width="7" height="27.5"/>
	<rect x="374" y="502.5" fill="#B3B2B2" width="7" height="27.5"/>
	<rect x="383.8" y="502.5" fill="#B3B2B2" width="7" height="27.5"/>
	<rect x="393.6" y="502.5" fill="#B3B2B2" width="7" height="27.5"/>
	<rect x="403.4" y="502.5" fill="#B3B2B2" width="7" height="27.5"/>
	<rect x="413.2" y="502.5" fill="#B3B2B2" width="7" height="27.5"/>
	<rect x="423.1" y="502.5" fill="#B3B2B2" width="7" height="27.5"/>
	<rect x="432.9" y="502.5" fill="#B3B2B2" width="7" height="27.5"/>
	<rect x="442.7" y="502.5" fill="#B3B2B2" width="7" height="27.5"/>
	<rect x="452.5" y="502.5" fill="#B3B2B2" width="7" height="27.5"/>
	<rect x="462.3" y="502.5" fill="#B3B2B2" width="7" height="27.5"/>
	
		<rect x="121.5" y="484.8" fill="#676767" stroke="#808181" stroke-width="0.5" stroke-miterlimit="10" width="22.8" height="101.3"/>
	
		<rect x="495.7" y="484.8" fill="#676767" stroke="#808181" stroke-width="0.5" stroke-miterlimit="10" width="15.4" height="101.3"/>
	<rect x="168.1" y="378.2" fill="none" stroke="#676767" stroke-miterlimit="10" width="302.5" height="37.7"/>
	<circle fill="#676767" stroke="#CCCCCB" stroke-miterlimit="10" cx="168.7" cy="623.4" r="2.9"/>
	<circle fill="#676767" stroke="#CCCCCB" stroke-miterlimit="10" cx="168.7" cy="607.2" r="2.9"/>
	<circle fill="#676767" stroke="#CCCCCB" stroke-miterlimit="10" cx="168.7" cy="546.4" r="2.9"/>
	<circle fill="#676767" stroke="#CCCCCB" stroke-miterlimit="10" cx="470.4" cy="607.2" r="2.9"/>
	<circle fill="#676767" stroke="#CCCCCB" stroke-miterlimit="10" cx="470.4" cy="546.4" r="2.9"/>
	<circle fill="#676767" stroke="#CCCCCB" stroke-miterlimit="10" cx="168.7" cy="687.3" r="2.9"/>
	<circle fill="#676767" stroke="#CCCCCB" stroke-miterlimit="10" cx="469.3" cy="623.4" r="2.9"/>
	<circle fill="#676767" stroke="#CCCCCB" stroke-miterlimit="10" cx="469.3" cy="687.3" r="2.9"/>
	<rect x="71.7" y="237.8" fill="#1B1B1B" stroke="#808181" stroke-width="0.5" stroke-miterlimit="10" width="439.4" height="4.3"/>
	<path fill="none" stroke="#808181" stroke-width="10" stroke-linecap="round" stroke-linejoin="round" stroke-miterlimit="10" d="
		M130.9,511.6l23.7-172v335.9c0,12.2,9.9,22,22,22h286.9c12.2,0,22-9.9,22-22V339.6L507,505.8"/>
</g>
</svg>
