<svg width="104" height="105" viewBox="0 0 104 105" fill="none" xmlns="http://www.w3.org/2000/svg">
<g clip-path="url(#clip0_103_9465)">
<path d="M104 0.899994H0.300003V104.6H104V0.899994Z" fill="#7ABB4E"/>
<path d="M47.7 93.6H42.3V98.7H6.10001V63.7" stroke="#7ABB4E" stroke-miterlimit="10"/>
<path d="M16.9 57.1H47.7" stroke="#7ABB4E" stroke-miterlimit="10"/>
<path d="M6.10001 63.7H17.2L16.9 57.1" stroke="#7ABB4E" stroke-miterlimit="10"/>
<path d="M93.4595 14.0388L97.2595 14.0388L97.2595 10.2388L93.4595 10.2388L93.4595 14.0388Z" stroke="#E5E5E5" stroke-width="0.5" stroke-miterlimit="10"/>
<path d="M87.9976 14.0388L91.7976 14.0388L91.7976 10.2388L87.9976 10.2388L87.9976 14.0388Z" stroke="#E5E5E5" stroke-width="0.5" stroke-miterlimit="10"/>
<path d="M86.9293 25.5756L90.7293 25.5756L90.7293 21.7756L86.9293 21.7756L86.9293 25.5756Z" stroke="#E5E5E5" stroke-width="0.5" stroke-miterlimit="10"/>
<path d="M92.9663 35.7209L96.7663 35.7209L96.7663 31.9209L92.9663 31.9209L92.9663 35.7209Z" stroke="#E5E5E5" stroke-width="0.5" stroke-miterlimit="10"/>
<path d="M60.561 29.0901L67.861 29.0901L67.861 21.7901L60.561 21.7901L60.561 29.0901Z" stroke="#E5E5E5" stroke-width="0.5" stroke-miterlimit="10"/>
<path d="M69.892 35.3209L72.892 35.3209L72.892 32.3209L69.892 32.3209L69.892 35.3209Z" stroke="#E5E5E5" stroke-width="0.5" stroke-miterlimit="10"/>
<path d="M82.5315 12.1439L84.4315 12.1439L84.4315 10.2439L82.5315 10.2439L82.5315 12.1439Z" stroke="#E5E5E5" stroke-width="0.5" stroke-miterlimit="10"/>
<path d="M79.5778 12.1439L81.4778 12.1439L81.4778 10.2439L79.5778 10.2439L79.5778 12.1439Z" fill="#E5E5E5"/>
<path d="M77.1485 12.1439L79.0485 12.1439L79.0485 10.2439L77.1485 10.2439L77.1485 12.1439Z" fill="#E5E5E5"/>
<path d="M95.3 19.6C96.3493 19.6 97.2 18.7493 97.2 17.7C97.2 16.6506 96.3493 15.8 95.3 15.8C94.2507 15.8 93.4 16.6506 93.4 17.7C93.4 18.7493 94.2507 19.6 95.3 19.6Z" fill="#E5E5E5"/>
<path d="M89.9 35C90.5075 35 91 34.5075 91 33.9C91 33.2925 90.5075 32.8 89.9 32.8C89.2925 32.8 88.8 33.2925 88.8 33.9C88.8 34.5075 89.2925 35 89.9 35Z" fill="#E5E5E5"/>
<path d="M87.4 35C88.0075 35 88.5 34.5075 88.5 33.9C88.5 33.2925 88.0075 32.8 87.4 32.8C86.7925 32.8 86.3 33.2925 86.3 33.9C86.3 34.5075 86.7925 35 87.4 35Z" fill="#E5E5E5"/>
<path d="M84.8 35C85.4075 35 85.9 34.5075 85.9 33.9C85.9 33.2925 85.4075 32.8 84.8 32.8C84.1925 32.8 83.7 33.2925 83.7 33.9C83.7 34.5075 84.1925 35 84.8 35Z" fill="#E5E5E5"/>
<path d="M82.2 35C82.8075 35 83.3 34.5075 83.3 33.9C83.3 33.2925 82.8075 32.8 82.2 32.8C81.5925 32.8 81.1 33.2925 81.1 33.9C81.1 34.5075 81.5925 35 82.2 35Z" fill="#E5E5E5"/>
<path d="M79.6 35C80.2075 35 80.7 34.5075 80.7 33.9C80.7 33.2925 80.2075 32.8 79.6 32.8C78.9925 32.8 78.5 33.2925 78.5 33.9C78.5 34.5075 78.9925 35 79.6 35Z" fill="#E5E5E5"/>
<path d="M77.1 35C77.7075 35 78.2 34.5075 78.2 33.9C78.2 33.2925 77.7075 32.8 77.1 32.8C76.4925 32.8 76 33.2925 76 33.9C76 34.5075 76.4925 35 77.1 35Z" fill="#E5E5E5"/>
<path d="M89.9 18.8C90.5075 18.8 91 18.3075 91 17.7C91 17.0925 90.5075 16.6 89.9 16.6C89.2925 16.6 88.8 17.0925 88.8 17.7C88.8 18.3075 89.2925 18.8 89.9 18.8Z" stroke="#E5E5E5" stroke-miterlimit="10"/>
<path d="M86.2 18.8C86.8075 18.8 87.3 18.3075 87.3 17.7C87.3 17.0925 86.8075 16.6 86.2 16.6C85.5925 16.6 85.1 17.0925 85.1 17.7C85.1 18.3075 85.5925 18.8 86.2 18.8Z" stroke="#E5E5E5" stroke-miterlimit="10"/>
<path d="M82.5 18.8C83.1075 18.8 83.6 18.3075 83.6 17.7C83.6 17.0925 83.1075 16.6 82.5 16.6C81.8925 16.6 81.4 17.0925 81.4 17.7C81.4 18.3075 81.8925 18.8 82.5 18.8Z" stroke="#E5E5E5" stroke-miterlimit="10"/>
<path d="M78.8 18.8C79.4075 18.8 79.9 18.3075 79.9 17.7C79.9 17.0925 79.4075 16.6 78.8 16.6C78.1925 16.6 77.7 17.0925 77.7 17.7C77.7 18.3075 78.1925 18.8 78.8 18.8Z" stroke="#E5E5E5" stroke-miterlimit="10"/>
<path d="M75.1 18.8C75.7075 18.8 76.2 18.3075 76.2 17.7C76.2 17.0925 75.7075 16.6 75.1 16.6C74.4925 16.6 74 17.0925 74 17.7C74 18.3075 74.4925 18.8 75.1 18.8Z" stroke="#E5E5E5" stroke-miterlimit="10"/>
<path d="M71.4 18.8C72.0075 18.8 72.5 18.3075 72.5 17.7C72.5 17.0925 72.0075 16.6 71.4 16.6C70.7925 16.6 70.3 17.0925 70.3 17.7C70.3 18.3075 70.7925 18.8 71.4 18.8Z" stroke="#E5E5E5" stroke-miterlimit="10"/>
<path d="M82.5 42.6C83.1075 42.6 83.6 42.1075 83.6 41.5C83.6 40.8925 83.1075 40.4 82.5 40.4C81.8925 40.4 81.4 40.8925 81.4 41.5C81.4 42.1075 81.8925 42.6 82.5 42.6Z" stroke="#E5E5E5" stroke-miterlimit="10"/>
<path d="M78.8 42.6C79.4075 42.6 79.9 42.1075 79.9 41.5C79.9 40.8925 79.4075 40.4 78.8 40.4C78.1925 40.4 77.7 40.8925 77.7 41.5C77.7 42.1075 78.1925 42.6 78.8 42.6Z" stroke="#E5E5E5" stroke-miterlimit="10"/>
<path d="M75.1 42.6C75.7075 42.6 76.2 42.1075 76.2 41.5C76.2 40.8925 75.7075 40.4 75.1 40.4C74.4925 40.4 74 40.8925 74 41.5C74 42.1075 74.4925 42.6 75.1 42.6Z" stroke="#E5E5E5" stroke-miterlimit="10"/>
<path d="M71.4 42.6C72.0075 42.6 72.5 42.1075 72.5 41.5C72.5 40.8925 72.0075 40.4 71.4 40.4C70.7925 40.4 70.3 40.8925 70.3 41.5C70.3 42.1075 70.7925 42.6 71.4 42.6Z" stroke="#E5E5E5" stroke-miterlimit="10"/>
<path d="M47.7 41.7H42.3V46.9H6.10001V11.9" stroke="#7ABB4E" stroke-miterlimit="10"/>
<path d="M16.9 5.29999H47.7" stroke="#7ABB4E" stroke-miterlimit="10"/>
<path d="M6.10001 11.9H17.2L16.9 5.29999" stroke="#7ABB4E" stroke-miterlimit="10"/>
<path d="M41.6015 14.0388L45.4015 14.0388L45.4015 10.2388L41.6015 10.2388L41.6015 14.0388Z" stroke="#E5E5E5" stroke-width="0.5" stroke-miterlimit="10"/>
<path d="M36.2396 14.0388L40.0396 14.0388L40.0396 10.2388L36.2396 10.2388L36.2396 14.0388Z" stroke="#E5E5E5" stroke-width="0.5" stroke-miterlimit="10"/>
<path d="M35.0713 25.5756L38.8713 25.5756L38.8713 21.7756L35.0713 21.7756L35.0713 25.5756Z" stroke="#E5E5E5" stroke-width="0.5" stroke-miterlimit="10"/>
<path d="M41.1083 35.7208L44.9083 35.7208L44.9083 31.9208L41.1083 31.9208L41.1083 35.7208Z" stroke="#E5E5E5" stroke-width="0.5" stroke-miterlimit="10"/>
<path d="M8.80303 29.0901L16.103 29.0901L16.103 21.7901L8.80303 21.7901L8.80303 29.0901Z" stroke="#E5E5E5" stroke-width="0.5" stroke-miterlimit="10"/>
<path d="M18.034 35.3208L21.034 35.3208L21.034 32.3208L18.034 32.3208L18.034 35.3208Z" stroke="#E5E5E5" stroke-width="0.5" stroke-miterlimit="10"/>
<path d="M30.6735 12.1438L32.5735 12.1438L32.5735 10.2438L30.6735 10.2438L30.6735 12.1438Z" stroke="#E5E5E5" stroke-width="0.5" stroke-miterlimit="10"/>
<path d="M27.7198 12.1438L29.6198 12.1438L29.6198 10.2438L27.7198 10.2438L27.7198 12.1438Z" fill="#E5E5E5"/>
<path d="M25.3906 12.1438L27.2906 12.1438L27.2906 10.2438L25.3906 10.2438L25.3906 12.1438Z" fill="#E5E5E5"/>
<path d="M43.5 19.6C44.5493 19.6 45.4 18.7493 45.4 17.7C45.4 16.6506 44.5493 15.8 43.5 15.8C42.4507 15.8 41.6 16.6506 41.6 17.7C41.6 18.7493 42.4507 19.6 43.5 19.6Z" fill="#E5E5E5"/>
<path d="M38.1 35C38.7075 35 39.2 34.5075 39.2 33.9C39.2 33.2925 38.7075 32.8 38.1 32.8C37.4925 32.8 37 33.2925 37 33.9C37 34.5075 37.4925 35 38.1 35Z" fill="#E5E5E5"/>
<path d="M35.5 35C36.1075 35 36.6 34.5075 36.6 33.9C36.6 33.2925 36.1075 32.8 35.5 32.8C34.8925 32.8 34.4 33.2925 34.4 33.9C34.4 34.5075 34.8925 35 35.5 35Z" fill="#E5E5E5"/>
<path d="M33 35C33.6075 35 34.1 34.5075 34.1 33.9C34.1 33.2925 33.6075 32.8 33 32.8C32.3925 32.8 31.9 33.2925 31.9 33.9C31.9 34.5075 32.3925 35 33 35Z" fill="#E5E5E5"/>
<path d="M30.4 35C31.0075 35 31.5 34.5075 31.5 33.9C31.5 33.2925 31.0075 32.8 30.4 32.8C29.7925 32.8 29.3 33.2925 29.3 33.9C29.3 34.5075 29.7925 35 30.4 35Z" fill="#E5E5E5"/>
<path d="M27.8 35C28.4075 35 28.9 34.5075 28.9 33.9C28.9 33.2925 28.4075 32.8 27.8 32.8C27.1925 32.8 26.7 33.2925 26.7 33.9C26.7 34.5075 27.1925 35 27.8 35Z" fill="#E5E5E5"/>
<path d="M25.2 35C25.8075 35 26.3 34.5075 26.3 33.9C26.3 33.2925 25.8075 32.8 25.2 32.8C24.5925 32.8 24.1 33.2925 24.1 33.9C24.1 34.5075 24.5925 35 25.2 35Z" fill="#E5E5E5"/>
<path d="M38.1 18.8C38.7075 18.8 39.2 18.3075 39.2 17.7C39.2 17.0925 38.7075 16.6 38.1 16.6C37.4925 16.6 37 17.0925 37 17.7C37 18.3075 37.4925 18.8 38.1 18.8Z" stroke="#E5E5E5" stroke-miterlimit="10"/>
<path d="M34.4 18.8C35.0075 18.8 35.5 18.3075 35.5 17.7C35.5 17.0925 35.0075 16.6 34.4 16.6C33.7925 16.6 33.3 17.0925 33.3 17.7C33.3 18.3075 33.7925 18.8 34.4 18.8Z" stroke="#E5E5E5" stroke-miterlimit="10"/>
<path d="M30.7 18.8C31.3075 18.8 31.8 18.3075 31.8 17.7C31.8 17.0925 31.3075 16.6 30.7 16.6C30.0925 16.6 29.6 17.0925 29.6 17.7C29.6 18.3075 30.0925 18.8 30.7 18.8Z" stroke="#E5E5E5" stroke-miterlimit="10"/>
<path d="M27 18.8C27.6075 18.8 28.1 18.3075 28.1 17.7C28.1 17.0925 27.6075 16.6 27 16.6C26.3925 16.6 25.9 17.0925 25.9 17.7C25.9 18.3075 26.3925 18.8 27 18.8Z" stroke="#E5E5E5" stroke-miterlimit="10"/>
<path d="M23.3 18.8C23.9075 18.8 24.4 18.3075 24.4 17.7C24.4 17.0925 23.9075 16.6 23.3 16.6C22.6925 16.6 22.2 17.0925 22.2 17.7C22.2 18.3075 22.6925 18.8 23.3 18.8Z" stroke="#E5E5E5" stroke-miterlimit="10"/>
<path d="M19.6 18.8C20.2075 18.8 20.7 18.3075 20.7 17.7C20.7 17.0925 20.2075 16.6 19.6 16.6C18.9925 16.6 18.5 17.0925 18.5 17.7C18.5 18.3075 18.9925 18.8 19.6 18.8Z" stroke="#E5E5E5" stroke-miterlimit="10"/>
<path d="M30.7 42.6C31.3075 42.6 31.8 42.1075 31.8 41.5C31.8 40.8925 31.3075 40.4 30.7 40.4C30.0925 40.4 29.6 40.8925 29.6 41.5C29.6 42.1075 30.0925 42.6 30.7 42.6Z" stroke="#E5E5E5" stroke-miterlimit="10"/>
<path d="M27 42.6C27.6075 42.6 28.1 42.1075 28.1 41.5C28.1 40.8925 27.6075 40.4 27 40.4C26.3925 40.4 25.9 40.8925 25.9 41.5C25.9 42.1075 26.3925 42.6 27 42.6Z" stroke="#E5E5E5" stroke-miterlimit="10"/>
<path d="M23.3 42.6C23.9075 42.6 24.4 42.1075 24.4 41.5C24.4 40.8925 23.9075 40.4 23.3 40.4C22.6925 40.4 22.2 40.8925 22.2 41.5C22.2 42.1075 22.6925 42.6 23.3 42.6Z" stroke="#E5E5E5" stroke-miterlimit="10"/>
<path d="M19.6 42.6C20.2075 42.6 20.7 42.1075 20.7 41.5C20.7 40.8925 20.2075 40.4 19.6 40.4C18.9925 40.4 18.5 40.8925 18.5 41.5C18.5 42.1075 18.9925 42.6 19.6 42.6Z" stroke="#E5E5E5" stroke-miterlimit="10"/>
<path d="M98.1 93.6H92.7V98.7H56.5V63.7" stroke="#7ABB4E" stroke-miterlimit="10"/>
<path d="M67.3 57.1H98.1" stroke="#7ABB4E" stroke-miterlimit="10"/>
<path d="M56.5 63.7H67.7L67.3 57.1" stroke="#7ABB4E" stroke-miterlimit="10"/>
<path d="M93.4594 64.5168L97.2594 64.5168L97.2594 60.7168L93.4594 60.7168L93.4594 64.5168Z" stroke="#E5E5E5" stroke-width="0.5" stroke-miterlimit="10"/>
<path d="M87.9975 64.5168L91.7975 64.5168L91.7975 60.7168L87.9975 60.7167L87.9975 64.5168Z" stroke="#E5E5E5" stroke-width="0.5" stroke-miterlimit="10"/>
<path d="M86.9292 76.0535L90.7292 76.0535L90.7292 72.2535L86.9292 72.2535L86.9292 76.0535Z" stroke="#E5E5E5" stroke-width="0.5" stroke-miterlimit="10"/>
<path d="M92.9662 86.1989L96.7662 86.1989L96.7662 82.3989L92.9662 82.3989L92.9662 86.1989Z" stroke="#E5E5E5" stroke-width="0.5" stroke-miterlimit="10"/>
<path d="M60.5609 79.5682L67.8609 79.5682L67.8609 72.2682L60.5609 72.2682L60.5609 79.5682Z" stroke="#E5E5E5" stroke-width="0.5" stroke-miterlimit="10"/>
<path d="M69.8919 85.7988L72.8919 85.7988L72.8919 82.7988L69.8919 82.7988L69.8919 85.7988Z" stroke="#E5E5E5" stroke-width="0.5" stroke-miterlimit="10"/>
<path d="M82.5314 62.6219L84.4314 62.6219L84.4314 60.7219L82.5314 60.7219L82.5314 62.6219Z" stroke="#E5E5E5" stroke-width="0.5" stroke-miterlimit="10"/>
<path d="M79.5777 62.6219L81.4777 62.6219L81.4777 60.7219L79.5777 60.7219L79.5777 62.6219Z" fill="#E5E5E5"/>
<path d="M77.1485 62.6219L79.0485 62.6219L79.0485 60.7219L77.1485 60.7219L77.1485 62.6219Z" fill="#E5E5E5"/>
<path d="M95.3 70C96.3493 70 97.2 69.1493 97.2 68.1C97.2 67.0506 96.3493 66.2 95.3 66.2C94.2507 66.2 93.4 67.0506 93.4 68.1C93.4 69.1493 94.2507 70 95.3 70Z" fill="#E5E5E5"/>
<path d="M89.9 85.4C90.5075 85.4 91 84.9075 91 84.3C91 83.6925 90.5075 83.2 89.9 83.2C89.2925 83.2 88.8 83.6925 88.8 84.3C88.8 84.9075 89.2925 85.4 89.9 85.4Z" fill="#E5E5E5"/>
<path d="M87.4 85.4C88.0075 85.4 88.5 84.9075 88.5 84.3C88.5 83.6925 88.0075 83.2 87.4 83.2C86.7925 83.2 86.3 83.6925 86.3 84.3C86.3 84.9075 86.7925 85.4 87.4 85.4Z" fill="#E5E5E5"/>
<path d="M84.8 85.4C85.4075 85.4 85.9 84.9075 85.9 84.3C85.9 83.6925 85.4075 83.2 84.8 83.2C84.1925 83.2 83.7 83.6925 83.7 84.3C83.7 84.9075 84.1925 85.4 84.8 85.4Z" fill="#E5E5E5"/>
<path d="M82.2 85.4C82.8075 85.4 83.3 84.9075 83.3 84.3C83.3 83.6925 82.8075 83.2 82.2 83.2C81.5925 83.2 81.1 83.6925 81.1 84.3C81.1 84.9075 81.5925 85.4 82.2 85.4Z" fill="#E5E5E5"/>
<path d="M79.6 85.4C80.2075 85.4 80.7 84.9075 80.7 84.3C80.7 83.6925 80.2075 83.2 79.6 83.2C78.9925 83.2 78.5 83.6925 78.5 84.3C78.5 84.9075 78.9925 85.4 79.6 85.4Z" fill="#E5E5E5"/>
<path d="M77.1 85.4C77.7075 85.4 78.2 84.9075 78.2 84.3C78.2 83.6925 77.7075 83.2 77.1 83.2C76.4925 83.2 76 83.6925 76 84.3C76 84.9075 76.4925 85.4 77.1 85.4Z" fill="#E5E5E5"/>
<path d="M89.9 69.2C90.5075 69.2 91 68.7075 91 68.1C91 67.4925 90.5075 67 89.9 67C89.2925 67 88.8 67.4925 88.8 68.1C88.8 68.7075 89.2925 69.2 89.9 69.2Z" stroke="#E5E5E5" stroke-miterlimit="10"/>
<path d="M86.2 69.2C86.8075 69.2 87.3 68.7075 87.3 68.1C87.3 67.4925 86.8075 67 86.2 67C85.5925 67 85.1 67.4925 85.1 68.1C85.1 68.7075 85.5925 69.2 86.2 69.2Z" stroke="#E5E5E5" stroke-miterlimit="10"/>
<path d="M82.5 69.2C83.1075 69.2 83.6 68.7075 83.6 68.1C83.6 67.4925 83.1075 67 82.5 67C81.8925 67 81.4 67.4925 81.4 68.1C81.4 68.7075 81.8925 69.2 82.5 69.2Z" stroke="#E5E5E5" stroke-miterlimit="10"/>
<path d="M78.8 69.2C79.4075 69.2 79.9 68.7075 79.9 68.1C79.9 67.4925 79.4075 67 78.8 67C78.1925 67 77.7 67.4925 77.7 68.1C77.7 68.7075 78.1925 69.2 78.8 69.2Z" stroke="#E5E5E5" stroke-miterlimit="10"/>
<path d="M75.1 69.2C75.7075 69.2 76.2 68.7075 76.2 68.1C76.2 67.4925 75.7075 67 75.1 67C74.4925 67 74 67.4925 74 68.1C74 68.7075 74.4925 69.2 75.1 69.2Z" stroke="#E5E5E5" stroke-miterlimit="10"/>
<path d="M71.4 69.2C72.0075 69.2 72.5 68.7075 72.5 68.1C72.5 67.4925 72.0075 67 71.4 67C70.7925 67 70.3 67.4925 70.3 68.1C70.3 68.7075 70.7925 69.2 71.4 69.2Z" stroke="#E5E5E5" stroke-miterlimit="10"/>
<path d="M82.5 93C83.1075 93 83.6 92.5075 83.6 91.9C83.6 91.2925 83.1075 90.8 82.5 90.8C81.8925 90.8 81.4 91.2925 81.4 91.9C81.4 92.5075 81.8925 93 82.5 93Z" stroke="#E5E5E5" stroke-miterlimit="10"/>
<path d="M78.8 93C79.4075 93 79.9 92.5075 79.9 91.9C79.9 91.2925 79.4075 90.8 78.8 90.8C78.1925 90.8 77.7 91.2925 77.7 91.9C77.7 92.5075 78.1925 93 78.8 93Z" stroke="#E5E5E5" stroke-miterlimit="10"/>
<path d="M75.1 93C75.7075 93 76.2 92.5075 76.2 91.9C76.2 91.2925 75.7075 90.8 75.1 90.8C74.4925 90.8 74 91.2925 74 91.9C74 92.5075 74.4925 93 75.1 93Z" stroke="#E5E5E5" stroke-miterlimit="10"/>
<path d="M71.4 93C72.0075 93 72.5 92.5075 72.5 91.9C72.5 91.2925 72.0075 90.8 71.4 90.8C70.7925 90.8 70.3 91.2925 70.3 91.9C70.3 92.5075 70.7925 93 71.4 93Z" stroke="#E5E5E5" stroke-miterlimit="10"/>
<path d="M98.1 41.7H92.7V46.9H56.5V11.9" stroke="#7ABB4E" stroke-miterlimit="10"/>
<path d="M67.3 5.29999H98.1" stroke="#7ABB4E" stroke-miterlimit="10"/>
<path d="M56.5 11.9H67.7L67.3 5.29999" stroke="#7ABB4E" stroke-miterlimit="10"/>
<path d="M41.6014 64.5168L45.4014 64.5168L45.4014 60.7168L41.6014 60.7168L41.6014 64.5168Z" stroke="#E5E5E5" stroke-width="0.5" stroke-miterlimit="10"/>
<path d="M36.2396 64.5168L40.0396 64.5168L40.0396 60.7168L36.2396 60.7168L36.2396 64.5168Z" stroke="#E5E5E5" stroke-width="0.5" stroke-miterlimit="10"/>
<path d="M35.0713 76.0536L38.8713 76.0536L38.8713 72.2536L35.0713 72.2536L35.0713 76.0536Z" stroke="#E5E5E5" stroke-width="0.5" stroke-miterlimit="10"/>
<path d="M41.1083 86.1989L44.9083 86.1989L44.9083 82.3989L41.1083 82.3989L41.1083 86.1989Z" stroke="#E5E5E5" stroke-width="0.5" stroke-miterlimit="10"/>
<path d="M8.80294 79.5682L16.1029 79.5682L16.1029 72.2682L8.80294 72.2682L8.80294 79.5682Z" stroke="#E5E5E5" stroke-width="0.5" stroke-miterlimit="10"/>
<path d="M18.0339 85.7988L21.0339 85.7988L21.0339 82.7988L18.0339 82.7988L18.0339 85.7988Z" stroke="#E5E5E5" stroke-width="0.5" stroke-miterlimit="10"/>
<path d="M30.6734 62.6219L32.5734 62.6219L32.5734 60.7219L30.6734 60.7219L30.6734 62.6219Z" stroke="#E5E5E5" stroke-width="0.5" stroke-miterlimit="10"/>
<path d="M27.7198 62.6219L29.6198 62.6219L29.6198 60.7219L27.7198 60.7219L27.7198 62.6219Z" fill="#E5E5E5"/>
<path d="M25.3905 62.6219L27.2905 62.6219L27.2905 60.7219L25.3905 60.7219L25.3905 62.6219Z" fill="#E5E5E5"/>
<path d="M43.5 70C44.5493 70 45.4 69.1493 45.4 68.1C45.4 67.0506 44.5493 66.2 43.5 66.2C42.4507 66.2 41.6 67.0506 41.6 68.1C41.6 69.1493 42.4507 70 43.5 70Z" fill="#E5E5E5"/>
<path d="M38.1 85.4C38.7075 85.4 39.2 84.9075 39.2 84.3C39.2 83.6925 38.7075 83.2 38.1 83.2C37.4925 83.2 37 83.6925 37 84.3C37 84.9075 37.4925 85.4 38.1 85.4Z" fill="#E5E5E5"/>
<path d="M35.5 85.4C36.1075 85.4 36.6 84.9075 36.6 84.3C36.6 83.6925 36.1075 83.2 35.5 83.2C34.8925 83.2 34.4 83.6925 34.4 84.3C34.4 84.9075 34.8925 85.4 35.5 85.4Z" fill="#E5E5E5"/>
<path d="M33 85.4C33.6075 85.4 34.1 84.9075 34.1 84.3C34.1 83.6925 33.6075 83.2 33 83.2C32.3925 83.2 31.9 83.6925 31.9 84.3C31.9 84.9075 32.3925 85.4 33 85.4Z" fill="#E5E5E5"/>
<path d="M30.4 85.4C31.0075 85.4 31.5 84.9075 31.5 84.3C31.5 83.6925 31.0075 83.2 30.4 83.2C29.7925 83.2 29.3 83.6925 29.3 84.3C29.3 84.9075 29.7925 85.4 30.4 85.4Z" fill="#E5E5E5"/>
<path d="M27.8 85.4C28.4075 85.4 28.9 84.9075 28.9 84.3C28.9 83.6925 28.4075 83.2 27.8 83.2C27.1925 83.2 26.7 83.6925 26.7 84.3C26.7 84.9075 27.1925 85.4 27.8 85.4Z" fill="#E5E5E5"/>
<path d="M25.2 85.4C25.8075 85.4 26.3 84.9075 26.3 84.3C26.3 83.6925 25.8075 83.2 25.2 83.2C24.5925 83.2 24.1 83.6925 24.1 84.3C24.1 84.9075 24.5925 85.4 25.2 85.4Z" fill="#E5E5E5"/>
<path d="M38.1 69.2C38.7075 69.2 39.2 68.7075 39.2 68.1C39.2 67.4925 38.7075 67 38.1 67C37.4925 67 37 67.4925 37 68.1C37 68.7075 37.4925 69.2 38.1 69.2Z" stroke="#E5E5E5" stroke-miterlimit="10"/>
<path d="M34.4 69.2C35.0075 69.2 35.5 68.7075 35.5 68.1C35.5 67.4925 35.0075 67 34.4 67C33.7925 67 33.3 67.4925 33.3 68.1C33.3 68.7075 33.7925 69.2 34.4 69.2Z" stroke="#E5E5E5" stroke-miterlimit="10"/>
<path d="M30.7 69.2C31.3075 69.2 31.8 68.7075 31.8 68.1C31.8 67.4925 31.3075 67 30.7 67C30.0925 67 29.6 67.4925 29.6 68.1C29.6 68.7075 30.0925 69.2 30.7 69.2Z" stroke="#E5E5E5" stroke-miterlimit="10"/>
<path d="M27 69.2C27.6075 69.2 28.1 68.7075 28.1 68.1C28.1 67.4925 27.6075 67 27 67C26.3925 67 25.9 67.4925 25.9 68.1C25.9 68.7075 26.3925 69.2 27 69.2Z" stroke="#E5E5E5" stroke-miterlimit="10"/>
<path d="M23.3 69.2C23.9075 69.2 24.4 68.7075 24.4 68.1C24.4 67.4925 23.9075 67 23.3 67C22.6925 67 22.2 67.4925 22.2 68.1C22.2 68.7075 22.6925 69.2 23.3 69.2Z" stroke="#E5E5E5" stroke-miterlimit="10"/>
<path d="M19.6 69.2C20.2075 69.2 20.7 68.7075 20.7 68.1C20.7 67.4925 20.2075 67 19.6 67C18.9925 67 18.5 67.4925 18.5 68.1C18.5 68.7075 18.9925 69.2 19.6 69.2Z" stroke="#E5E5E5" stroke-miterlimit="10"/>
<path d="M30.7 93C31.3075 93 31.8 92.5075 31.8 91.9C31.8 91.2925 31.3075 90.8 30.7 90.8C30.0925 90.8 29.6 91.2925 29.6 91.9C29.6 92.5075 30.0925 93 30.7 93Z" stroke="#E5E5E5" stroke-miterlimit="10"/>
<path d="M27 93C27.6075 93 28.1 92.5075 28.1 91.9C28.1 91.2925 27.6075 90.8 27 90.8C26.3925 90.8 25.9 91.2925 25.9 91.9C25.9 92.5075 26.3925 93 27 93Z" stroke="#E5E5E5" stroke-miterlimit="10"/>
<path d="M23.3 93C23.9075 93 24.4 92.5075 24.4 91.9C24.4 91.2925 23.9075 90.8 23.3 90.8C22.6925 90.8 22.2 91.2925 22.2 91.9C22.2 92.5075 22.6925 93 23.3 93Z" stroke="#E5E5E5" stroke-miterlimit="10"/>
<path d="M19.6 93C20.2075 93 20.7 92.5075 20.7 91.9C20.7 91.2925 20.2075 90.8 19.6 90.8C18.9925 90.8 18.5 91.2925 18.5 91.9C18.5 92.5075 18.9925 93 19.6 93Z" stroke="#E5E5E5" stroke-miterlimit="10"/>
</g>
<defs>
<clipPath id="clip0_103_9465">
<rect width="104" height="105" fill="white"/>
</clipPath>
</defs>
</svg>
